G04 #@! TF.GenerationSoftware,KiCad,Pcbnew,(6.0.0-0)*
G04 #@! TF.CreationDate,2023-05-16T16:06:40-07:00*
G04 #@! TF.ProjectId,ItsyBitsy breadboard,49747379-4269-4747-9379-206272656164,0.0.0*
G04 #@! TF.SameCoordinates,Original*
G04 #@! TF.FileFunction,Soldermask,Top*
G04 #@! TF.FilePolarity,Negative*
%FSLAX46Y46*%
G04 Gerber Fmt 4.6, Leading zero omitted, Abs format (unit mm)*
G04 Created by KiCad (PCBNEW (6.0.0-0)) date 2023-05-16 16:06:40*
%MOMM*%
%LPD*%
G01*
G04 APERTURE LIST*
G04 Aperture macros list*
%AMRoundRect*
0 Rectangle with rounded corners*
0 $1 Rounding radius*
0 $2 $3 $4 $5 $6 $7 $8 $9 X,Y pos of 4 corners*
0 Add a 4 corners polygon primitive as box body*
4,1,4,$2,$3,$4,$5,$6,$7,$8,$9,$2,$3,0*
0 Add four circle primitives for the rounded corners*
1,1,$1+$1,$2,$3*
1,1,$1+$1,$4,$5*
1,1,$1+$1,$6,$7*
1,1,$1+$1,$8,$9*
0 Add four rect primitives between the rounded corners*
20,1,$1+$1,$2,$3,$4,$5,0*
20,1,$1+$1,$4,$5,$6,$7,0*
20,1,$1+$1,$6,$7,$8,$9,0*
20,1,$1+$1,$8,$9,$2,$3,0*%
G04 Aperture macros list end*
%ADD10RoundRect,0.050800X0.850000X-0.850000X0.850000X0.850000X-0.850000X0.850000X-0.850000X-0.850000X0*%
%ADD11O,1.801600X1.801600*%
%ADD12RoundRect,0.050800X0.850000X0.850000X-0.850000X0.850000X-0.850000X-0.850000X0.850000X-0.850000X0*%
%ADD13RoundRect,0.300800X1.500000X-0.250000X1.500000X0.250000X-1.500000X0.250000X-1.500000X-0.250000X0*%
%ADD14RoundRect,0.300801X1.449999X-0.499999X1.449999X0.499999X-1.449999X0.499999X-1.449999X-0.499999X0*%
%ADD15RoundRect,0.300800X0.250000X0.475000X-0.250000X0.475000X-0.250000X-0.475000X0.250000X-0.475000X0*%
%ADD16RoundRect,0.294550X0.243750X0.456250X-0.243750X0.456250X-0.243750X-0.456250X0.243750X-0.456250X0*%
%ADD17RoundRect,0.300800X0.450000X-0.262500X0.450000X0.262500X-0.450000X0.262500X-0.450000X-0.262500X0*%
%ADD18RoundRect,0.300800X-0.262500X-0.450000X0.262500X-0.450000X0.262500X0.450000X-0.262500X0.450000X0*%
%ADD19RoundRect,0.200800X0.512500X0.150000X-0.512500X0.150000X-0.512500X-0.150000X0.512500X-0.150000X0*%
%ADD20C,2.601600*%
G04 APERTURE END LIST*
D10*
X111760000Y-115570000D03*
D11*
X114300000Y-115570000D03*
X116840000Y-115570000D03*
X119380000Y-115570000D03*
X121920000Y-115570000D03*
X124460000Y-115570000D03*
X127000000Y-115570000D03*
X129540000Y-115570000D03*
X132080000Y-115570000D03*
X134620000Y-115570000D03*
X137160000Y-115570000D03*
X139700000Y-115570000D03*
X142240000Y-115570000D03*
X144780000Y-115570000D03*
X147320000Y-115570000D03*
X149860000Y-115570000D03*
X152400000Y-115570000D03*
D10*
X111760000Y-100330000D03*
D11*
X114300000Y-100330000D03*
X116840000Y-100330000D03*
X119380000Y-100330000D03*
X121920000Y-100330000D03*
X124460000Y-100330000D03*
X127000000Y-100330000D03*
X129540000Y-100330000D03*
X132080000Y-100330000D03*
X134620000Y-100330000D03*
X137160000Y-100330000D03*
X139700000Y-100330000D03*
X142240000Y-100330000D03*
X144780000Y-100330000D03*
X147320000Y-100330000D03*
X149860000Y-100330000D03*
D12*
X144780000Y-113030000D03*
D11*
X144780000Y-110490000D03*
X144780000Y-107950000D03*
X144780000Y-105410000D03*
X144780000Y-102870000D03*
D13*
X149550000Y-109000000D03*
X149550000Y-107000000D03*
D14*
X155300000Y-104650000D03*
X155300000Y-111350000D03*
D10*
X111760000Y-118110000D03*
D11*
X114300000Y-118110000D03*
X116840000Y-118110000D03*
X119380000Y-118110000D03*
X121920000Y-118110000D03*
X124460000Y-118110000D03*
X127000000Y-118110000D03*
X129540000Y-118110000D03*
X132080000Y-118110000D03*
X134620000Y-118110000D03*
X137160000Y-118110000D03*
X139700000Y-118110000D03*
X142240000Y-118110000D03*
X144780000Y-118110000D03*
X147320000Y-118110000D03*
X149860000Y-118110000D03*
X152400000Y-118110000D03*
D10*
X111760000Y-97790000D03*
D11*
X114300000Y-97790000D03*
X116840000Y-97790000D03*
X119380000Y-97790000D03*
X121920000Y-97790000D03*
X124460000Y-97790000D03*
X127000000Y-97790000D03*
X129540000Y-97790000D03*
X132080000Y-97790000D03*
X134620000Y-97790000D03*
X137160000Y-97790000D03*
X139700000Y-97790000D03*
X142240000Y-97790000D03*
X144780000Y-97790000D03*
X147320000Y-97790000D03*
X149860000Y-97790000D03*
D15*
X141158000Y-105800000D03*
X139258000Y-105800000D03*
D16*
X154683700Y-101200000D03*
X152808700Y-101200000D03*
X154687500Y-99000000D03*
X152812500Y-99000000D03*
D17*
X139446000Y-109612500D03*
X139446000Y-107787500D03*
X141478000Y-109624500D03*
X141478000Y-107799500D03*
D18*
X135739500Y-109474000D03*
X137564500Y-109474000D03*
D19*
X137281500Y-107376000D03*
X137281500Y-106426000D03*
X137281500Y-105476000D03*
X135006500Y-105476000D03*
X135006500Y-107376000D03*
D20*
X157899989Y-99400004D03*
X157899989Y-99400004D03*
X113030000Y-107900000D03*
X113030000Y-107900000D03*
X157899989Y-116599995D03*
X157899989Y-116599995D03*
M02*
