G04 #@! TF.GenerationSoftware,KiCad,Pcbnew,(6.0.0-0)*
G04 #@! TF.CreationDate,2023-05-16T16:06:40-07:00*
G04 #@! TF.ProjectId,ItsyBitsy breadboard,49747379-4269-4747-9379-206272656164,0.0.0*
G04 #@! TF.SameCoordinates,Original*
G04 #@! TF.FileFunction,Copper,L1,Top*
G04 #@! TF.FilePolarity,Positive*
%FSLAX46Y46*%
G04 Gerber Fmt 4.6, Leading zero omitted, Abs format (unit mm)*
G04 Created by KiCad (PCBNEW (6.0.0-0)) date 2023-05-16 16:06:40*
%MOMM*%
%LPD*%
G01*
G04 APERTURE LIST*
G04 Aperture macros list*
%AMRoundRect*
0 Rectangle with rounded corners*
0 $1 Rounding radius*
0 $2 $3 $4 $5 $6 $7 $8 $9 X,Y pos of 4 corners*
0 Add a 4 corners polygon primitive as box body*
4,1,4,$2,$3,$4,$5,$6,$7,$8,$9,$2,$3,0*
0 Add four circle primitives for the rounded corners*
1,1,$1+$1,$2,$3*
1,1,$1+$1,$4,$5*
1,1,$1+$1,$6,$7*
1,1,$1+$1,$8,$9*
0 Add four rect primitives between the rounded corners*
20,1,$1+$1,$2,$3,$4,$5,0*
20,1,$1+$1,$4,$5,$6,$7,0*
20,1,$1+$1,$6,$7,$8,$9,0*
20,1,$1+$1,$8,$9,$2,$3,0*%
G04 Aperture macros list end*
G04 #@! TA.AperFunction,ComponentPad*
%ADD10R,1.700000X1.700000*%
G04 #@! TD*
G04 #@! TA.AperFunction,ComponentPad*
%ADD11O,1.700000X1.700000*%
G04 #@! TD*
G04 #@! TA.AperFunction,SMDPad,CuDef*
%ADD12RoundRect,0.250000X1.500000X-0.250000X1.500000X0.250000X-1.500000X0.250000X-1.500000X-0.250000X0*%
G04 #@! TD*
G04 #@! TA.AperFunction,SMDPad,CuDef*
%ADD13RoundRect,0.250001X1.449999X-0.499999X1.449999X0.499999X-1.449999X0.499999X-1.449999X-0.499999X0*%
G04 #@! TD*
G04 #@! TA.AperFunction,SMDPad,CuDef*
%ADD14RoundRect,0.250000X0.250000X0.475000X-0.250000X0.475000X-0.250000X-0.475000X0.250000X-0.475000X0*%
G04 #@! TD*
G04 #@! TA.AperFunction,SMDPad,CuDef*
%ADD15RoundRect,0.243750X0.243750X0.456250X-0.243750X0.456250X-0.243750X-0.456250X0.243750X-0.456250X0*%
G04 #@! TD*
G04 #@! TA.AperFunction,SMDPad,CuDef*
%ADD16RoundRect,0.250000X0.450000X-0.262500X0.450000X0.262500X-0.450000X0.262500X-0.450000X-0.262500X0*%
G04 #@! TD*
G04 #@! TA.AperFunction,SMDPad,CuDef*
%ADD17RoundRect,0.250000X-0.262500X-0.450000X0.262500X-0.450000X0.262500X0.450000X-0.262500X0.450000X0*%
G04 #@! TD*
G04 #@! TA.AperFunction,SMDPad,CuDef*
%ADD18RoundRect,0.150000X0.512500X0.150000X-0.512500X0.150000X-0.512500X-0.150000X0.512500X-0.150000X0*%
G04 #@! TD*
G04 #@! TA.AperFunction,ViaPad*
%ADD19C,0.685800*%
G04 #@! TD*
G04 #@! TA.AperFunction,Conductor*
%ADD20C,0.254000*%
G04 #@! TD*
G04 #@! TA.AperFunction,Conductor*
%ADD21C,0.152400*%
G04 #@! TD*
G04 APERTURE END LIST*
D10*
X111760000Y-115570000D03*
D11*
X114300000Y-115570000D03*
X116840000Y-115570000D03*
X119380000Y-115570000D03*
X121920000Y-115570000D03*
X124460000Y-115570000D03*
X127000000Y-115570000D03*
X129540000Y-115570000D03*
X132080000Y-115570000D03*
X134620000Y-115570000D03*
X137160000Y-115570000D03*
X139700000Y-115570000D03*
X142240000Y-115570000D03*
X144780000Y-115570000D03*
X147320000Y-115570000D03*
X149860000Y-115570000D03*
X152400000Y-115570000D03*
D10*
X111760000Y-100330000D03*
D11*
X114300000Y-100330000D03*
X116840000Y-100330000D03*
X119380000Y-100330000D03*
X121920000Y-100330000D03*
X124460000Y-100330000D03*
X127000000Y-100330000D03*
X129540000Y-100330000D03*
X132080000Y-100330000D03*
X134620000Y-100330000D03*
X137160000Y-100330000D03*
X139700000Y-100330000D03*
X142240000Y-100330000D03*
X144780000Y-100330000D03*
X147320000Y-100330000D03*
X149860000Y-100330000D03*
D10*
X144780000Y-113030000D03*
D11*
X144780000Y-110490000D03*
X144780000Y-107950000D03*
X144780000Y-105410000D03*
X144780000Y-102870000D03*
D12*
X149550000Y-109000000D03*
X149550000Y-107000000D03*
D13*
X155300000Y-104650000D03*
X155300000Y-111350000D03*
D10*
X111760000Y-118110000D03*
D11*
X114300000Y-118110000D03*
X116840000Y-118110000D03*
X119380000Y-118110000D03*
X121920000Y-118110000D03*
X124460000Y-118110000D03*
X127000000Y-118110000D03*
X129540000Y-118110000D03*
X132080000Y-118110000D03*
X134620000Y-118110000D03*
X137160000Y-118110000D03*
X139700000Y-118110000D03*
X142240000Y-118110000D03*
X144780000Y-118110000D03*
X147320000Y-118110000D03*
X149860000Y-118110000D03*
X152400000Y-118110000D03*
D10*
X111760000Y-97790000D03*
D11*
X114300000Y-97790000D03*
X116840000Y-97790000D03*
X119380000Y-97790000D03*
X121920000Y-97790000D03*
X124460000Y-97790000D03*
X127000000Y-97790000D03*
X129540000Y-97790000D03*
X132080000Y-97790000D03*
X134620000Y-97790000D03*
X137160000Y-97790000D03*
X139700000Y-97790000D03*
X142240000Y-97790000D03*
X144780000Y-97790000D03*
X147320000Y-97790000D03*
X149860000Y-97790000D03*
D14*
X141158000Y-105800000D03*
X139258000Y-105800000D03*
D15*
X154683700Y-101200000D03*
X152808700Y-101200000D03*
X154687500Y-99000000D03*
X152812500Y-99000000D03*
D16*
X139446000Y-109612500D03*
X139446000Y-107787500D03*
X141478000Y-109624500D03*
X141478000Y-107799500D03*
D17*
X135739500Y-109474000D03*
X137564500Y-109474000D03*
D18*
X137281500Y-107376000D03*
X137281500Y-106426000D03*
X137281500Y-105476000D03*
X135006500Y-105476000D03*
X135006500Y-107376000D03*
D19*
X132624000Y-112776000D03*
X149606000Y-105664000D03*
X137922000Y-104140000D03*
X152654000Y-103378000D03*
X134874000Y-102870000D03*
X133350000Y-106426000D03*
X137564500Y-111148500D03*
X143002000Y-110490000D03*
X156210000Y-102000000D03*
D20*
X154687500Y-99000000D02*
X155551720Y-99864220D01*
X155551720Y-99864220D02*
X155551720Y-101341720D01*
X155551720Y-101341720D02*
X156210000Y-102000000D01*
D21*
X144780000Y-113030000D02*
X145870000Y-113030000D01*
X147320000Y-114480000D02*
X147320000Y-115570000D01*
X145870000Y-113030000D02*
X147320000Y-114480000D01*
D20*
X114300000Y-115570000D02*
X114300000Y-113500000D01*
X114300000Y-113500000D02*
X115024000Y-112776000D01*
X115024000Y-112776000D02*
X132624000Y-112776000D01*
X116840000Y-100330000D02*
X116840000Y-101840000D01*
X116840000Y-101840000D02*
X117870000Y-102870000D01*
X117870000Y-102870000D02*
X134874000Y-102870000D01*
D21*
X154683700Y-101200000D02*
X154683700Y-102299517D01*
X151713733Y-111760000D02*
X141593500Y-111760000D01*
X154683700Y-102299517D02*
X152335218Y-104648000D01*
X152335218Y-104648000D02*
X152335218Y-111138515D01*
X152335218Y-111138515D02*
X151713733Y-111760000D01*
X141593500Y-111760000D02*
X139446000Y-109612500D01*
D20*
X149550000Y-107000000D02*
X149550000Y-105720000D01*
X149550000Y-105720000D02*
X149606000Y-105664000D01*
D21*
X152812500Y-99000000D02*
X151892000Y-99920500D01*
X151892000Y-99920500D02*
X151892000Y-111151360D01*
X151892000Y-111151360D02*
X151587680Y-111455680D01*
X151587680Y-111455680D02*
X148285680Y-111455680D01*
X148285680Y-111455680D02*
X146050000Y-109220000D01*
X146050000Y-109220000D02*
X143764000Y-109220000D01*
X143764000Y-109220000D02*
X142343500Y-107799500D01*
X142343500Y-107799500D02*
X141478000Y-107799500D01*
D20*
X135006500Y-105476000D02*
X135006500Y-103002500D01*
X135006500Y-103002500D02*
X134874000Y-102870000D01*
X149550000Y-109000000D02*
X147862000Y-109000000D01*
X145542000Y-106680000D02*
X142038000Y-106680000D01*
X147862000Y-109000000D02*
X145542000Y-106680000D01*
X142038000Y-106680000D02*
X141158000Y-105800000D01*
X141478000Y-109624500D02*
X142136500Y-109624500D01*
X142136500Y-109624500D02*
X143002000Y-110490000D01*
X152808700Y-101200000D02*
X152808700Y-103223300D01*
X152808700Y-103223300D02*
X152654000Y-103378000D01*
D21*
X144780000Y-105410000D02*
X149860000Y-100330000D01*
X137281500Y-107376000D02*
X139034500Y-107376000D01*
X139034500Y-107376000D02*
X139446000Y-107787500D01*
X135006500Y-107376000D02*
X135006500Y-108741000D01*
X135006500Y-108741000D02*
X135739500Y-109474000D01*
D20*
X137564500Y-109474000D02*
X137564500Y-111148500D01*
X137281500Y-106426000D02*
X133350000Y-106426000D01*
X139258000Y-105800000D02*
X138632000Y-106426000D01*
X138632000Y-106426000D02*
X137281500Y-106426000D01*
X137922000Y-104140000D02*
X140462000Y-104140000D01*
X137281500Y-105476000D02*
X137281500Y-104780500D01*
X137281500Y-104780500D02*
X137922000Y-104140000D01*
X140462000Y-104140000D02*
X141158000Y-104836000D01*
X141158000Y-104836000D02*
X141158000Y-105800000D01*
X111760000Y-99226000D02*
X111760000Y-97790000D01*
X111760000Y-100330000D02*
X111760000Y-99226000D01*
M02*
