G04 #@! TF.GenerationSoftware,KiCad,Pcbnew,(6.0.0-0)*
G04 #@! TF.CreationDate,2023-05-16T16:06:40-07:00*
G04 #@! TF.ProjectId,ItsyBitsy breadboard,49747379-4269-4747-9379-206272656164,0.0.0*
G04 #@! TF.SameCoordinates,Original*
G04 #@! TF.FileFunction,Copper,L2,Bot*
G04 #@! TF.FilePolarity,Positive*
%FSLAX46Y46*%
G04 Gerber Fmt 4.6, Leading zero omitted, Abs format (unit mm)*
G04 Created by KiCad (PCBNEW (6.0.0-0)) date 2023-05-16 16:06:40*
%MOMM*%
%LPD*%
G01*
G04 APERTURE LIST*
G04 #@! TA.AperFunction,ComponentPad*
%ADD10R,1.700000X1.700000*%
G04 #@! TD*
G04 #@! TA.AperFunction,ComponentPad*
%ADD11O,1.700000X1.700000*%
G04 #@! TD*
G04 #@! TA.AperFunction,ViaPad*
%ADD12C,0.685800*%
G04 #@! TD*
G04 #@! TA.AperFunction,Conductor*
%ADD13C,0.152400*%
G04 #@! TD*
G04 #@! TA.AperFunction,Conductor*
%ADD14C,0.254000*%
G04 #@! TD*
G04 APERTURE END LIST*
D10*
X111760000Y-115570000D03*
D11*
X114300000Y-115570000D03*
X116840000Y-115570000D03*
X119380000Y-115570000D03*
X121920000Y-115570000D03*
X124460000Y-115570000D03*
X127000000Y-115570000D03*
X129540000Y-115570000D03*
X132080000Y-115570000D03*
X134620000Y-115570000D03*
X137160000Y-115570000D03*
X139700000Y-115570000D03*
X142240000Y-115570000D03*
X144780000Y-115570000D03*
X147320000Y-115570000D03*
X149860000Y-115570000D03*
X152400000Y-115570000D03*
D10*
X111760000Y-100330000D03*
D11*
X114300000Y-100330000D03*
X116840000Y-100330000D03*
X119380000Y-100330000D03*
X121920000Y-100330000D03*
X124460000Y-100330000D03*
X127000000Y-100330000D03*
X129540000Y-100330000D03*
X132080000Y-100330000D03*
X134620000Y-100330000D03*
X137160000Y-100330000D03*
X139700000Y-100330000D03*
X142240000Y-100330000D03*
X144780000Y-100330000D03*
X147320000Y-100330000D03*
X149860000Y-100330000D03*
D10*
X144780000Y-113030000D03*
D11*
X144780000Y-110490000D03*
X144780000Y-107950000D03*
X144780000Y-105410000D03*
X144780000Y-102870000D03*
D10*
X111760000Y-118110000D03*
D11*
X114300000Y-118110000D03*
X116840000Y-118110000D03*
X119380000Y-118110000D03*
X121920000Y-118110000D03*
X124460000Y-118110000D03*
X127000000Y-118110000D03*
X129540000Y-118110000D03*
X132080000Y-118110000D03*
X134620000Y-118110000D03*
X137160000Y-118110000D03*
X139700000Y-118110000D03*
X142240000Y-118110000D03*
X144780000Y-118110000D03*
X147320000Y-118110000D03*
X149860000Y-118110000D03*
X152400000Y-118110000D03*
D10*
X111760000Y-97790000D03*
D11*
X114300000Y-97790000D03*
X116840000Y-97790000D03*
X119380000Y-97790000D03*
X121920000Y-97790000D03*
X124460000Y-97790000D03*
X127000000Y-97790000D03*
X129540000Y-97790000D03*
X132080000Y-97790000D03*
X134620000Y-97790000D03*
X137160000Y-97790000D03*
X139700000Y-97790000D03*
X142240000Y-97790000D03*
X144780000Y-97790000D03*
X147320000Y-97790000D03*
X149860000Y-97790000D03*
D12*
X132624000Y-112776000D03*
X149606000Y-105664000D03*
X137922000Y-104140000D03*
X152654000Y-103378000D03*
X134874000Y-102870000D03*
X133350000Y-106426000D03*
X137564500Y-111148500D03*
X143002000Y-110490000D03*
X156210000Y-102000000D03*
D13*
X144780000Y-102870000D02*
X147320000Y-100330000D01*
X144780000Y-110490000D02*
X149860000Y-115570000D01*
X144780000Y-107950000D02*
X152400000Y-115570000D01*
D14*
X132624000Y-112776000D02*
X142494000Y-112776000D01*
X137922000Y-104140000D02*
X112522000Y-104140000D01*
X112522000Y-104140000D02*
X111760000Y-103378000D01*
X111760000Y-103378000D02*
X111760000Y-100330000D01*
X142494000Y-112776000D02*
X143002000Y-112268000D01*
X143002000Y-112268000D02*
X143002000Y-110490000D01*
X143724511Y-104100511D02*
X151931489Y-104100511D01*
X142494000Y-102870000D02*
X143724511Y-104100511D01*
X134874000Y-102870000D02*
X142494000Y-102870000D01*
X151931489Y-104100511D02*
X152654000Y-103378000D01*
D13*
X137160000Y-99127919D02*
X137160000Y-97790000D01*
X137160000Y-100330000D02*
X137160000Y-99127919D01*
X139700000Y-100330000D02*
X139700000Y-97790000D01*
D14*
X114300000Y-115570000D02*
X114300000Y-118110000D01*
D13*
X116840000Y-115570000D02*
X116840000Y-116772081D01*
X116840000Y-116772081D02*
X116840000Y-118110000D01*
X119380000Y-115570000D02*
X119380000Y-118110000D01*
X121920000Y-116772081D02*
X121920000Y-118110000D01*
X121920000Y-115570000D02*
X121920000Y-116772081D01*
X124460000Y-115570000D02*
X124460000Y-118110000D01*
X127000000Y-115570000D02*
X127000000Y-118110000D01*
X129540000Y-115570000D02*
X129540000Y-118110000D01*
X132080000Y-115570000D02*
X132080000Y-118110000D01*
X134620000Y-115570000D02*
X134620000Y-118110000D01*
X137160000Y-115570000D02*
X137160000Y-118110000D01*
X139700000Y-115570000D02*
X139700000Y-118110000D01*
X142240000Y-115570000D02*
X142240000Y-118110000D01*
X144780000Y-115570000D02*
X144780000Y-118110000D01*
X147320000Y-118110000D02*
X147320000Y-115570000D01*
X149860000Y-118110000D02*
X149860000Y-115570000D01*
X152400000Y-118110000D02*
X152400000Y-115570000D01*
X149860000Y-100330000D02*
X149860000Y-97790000D01*
X147320000Y-100330000D02*
X147320000Y-97790000D01*
X144780000Y-100330000D02*
X144780000Y-97790000D01*
X142240000Y-100330000D02*
X142240000Y-97790000D01*
X134620000Y-100330000D02*
X134620000Y-97790000D01*
X132080000Y-100330000D02*
X132080000Y-97790000D01*
X129540000Y-100330000D02*
X129540000Y-97790000D01*
X127000000Y-100330000D02*
X127000000Y-97790000D01*
X124460000Y-100330000D02*
X124460000Y-97790000D01*
X121920000Y-100330000D02*
X121920000Y-97790000D01*
X119380000Y-100330000D02*
X119380000Y-97790000D01*
X111760000Y-115570000D02*
X111760000Y-118110000D01*
D14*
X116840000Y-100330000D02*
X116840000Y-97790000D01*
G04 #@! TA.AperFunction,Conductor*
G36*
X110533973Y-96754295D02*
G01*
X110602084Y-96774324D01*
X110648556Y-96827999D01*
X110657248Y-96902695D01*
X110657314Y-96902702D01*
X110657284Y-96903006D01*
X110657501Y-96904871D01*
X110656707Y-96908862D01*
X110656707Y-96908867D01*
X110655500Y-96914933D01*
X110655501Y-98665066D01*
X110670266Y-98739301D01*
X110677161Y-98749620D01*
X110677162Y-98749622D01*
X110717516Y-98810015D01*
X110726516Y-98823484D01*
X110810699Y-98879734D01*
X110884933Y-98894500D01*
X111759858Y-98894500D01*
X112635066Y-98894499D01*
X112670818Y-98887388D01*
X112697126Y-98882156D01*
X112697128Y-98882155D01*
X112709301Y-98879734D01*
X112719621Y-98872839D01*
X112719622Y-98872838D01*
X112783168Y-98830377D01*
X112793484Y-98823484D01*
X112849734Y-98739301D01*
X112864500Y-98665067D01*
X112864500Y-98493428D01*
X112884502Y-98425307D01*
X112938158Y-98378814D01*
X113008432Y-98368710D01*
X113073012Y-98398204D01*
X113097933Y-98427593D01*
X113197694Y-98590388D01*
X113203777Y-98598699D01*
X113343213Y-98759667D01*
X113350580Y-98766883D01*
X113514434Y-98902916D01*
X113522881Y-98908831D01*
X113592479Y-98949501D01*
X113641203Y-99001140D01*
X113654274Y-99070923D01*
X113627543Y-99136694D01*
X113587087Y-99170053D01*
X113578462Y-99174542D01*
X113569738Y-99180036D01*
X113399433Y-99307905D01*
X113391726Y-99314748D01*
X113244590Y-99468717D01*
X113238104Y-99476727D01*
X113118098Y-99652649D01*
X113113000Y-99661623D01*
X113104787Y-99679316D01*
X113057963Y-99732683D01*
X112989720Y-99752264D01*
X112921724Y-99731841D01*
X112875564Y-99677899D01*
X112864499Y-99626266D01*
X112864499Y-99454934D01*
X112849734Y-99380699D01*
X112830813Y-99352381D01*
X112800377Y-99306832D01*
X112793484Y-99296516D01*
X112709301Y-99240266D01*
X112635067Y-99225500D01*
X111760142Y-99225500D01*
X110884934Y-99225501D01*
X110849182Y-99232612D01*
X110822874Y-99237844D01*
X110822872Y-99237845D01*
X110810699Y-99240266D01*
X110800379Y-99247161D01*
X110800378Y-99247162D01*
X110760665Y-99273698D01*
X110726516Y-99296516D01*
X110670266Y-99380699D01*
X110655500Y-99454933D01*
X110655501Y-101205066D01*
X110670266Y-101279301D01*
X110677161Y-101289620D01*
X110677162Y-101289622D01*
X110717516Y-101350015D01*
X110726516Y-101363484D01*
X110810699Y-101419734D01*
X110884933Y-101434500D01*
X111252500Y-101434500D01*
X111320621Y-101454502D01*
X111367114Y-101508158D01*
X111378500Y-101560500D01*
X111378500Y-103323865D01*
X111375914Y-103348164D01*
X111375846Y-103349602D01*
X111373655Y-103359780D01*
X111374879Y-103370120D01*
X111377627Y-103393342D01*
X111377979Y-103399320D01*
X111378072Y-103399312D01*
X111378500Y-103404490D01*
X111378500Y-103409692D01*
X111379354Y-103414822D01*
X111381686Y-103428832D01*
X111382522Y-103434704D01*
X111388582Y-103485907D01*
X111392567Y-103494206D01*
X111394078Y-103503283D01*
X111418558Y-103548651D01*
X111421239Y-103553914D01*
X111440127Y-103593250D01*
X111440130Y-103593254D01*
X111443560Y-103600398D01*
X111447170Y-103604692D01*
X111449102Y-103606624D01*
X111450889Y-103608573D01*
X111450918Y-103608626D01*
X111450788Y-103608745D01*
X111451289Y-103609313D01*
X111454388Y-103615057D01*
X111462033Y-103622124D01*
X111494209Y-103651867D01*
X111497775Y-103655297D01*
X112213954Y-104371476D01*
X112229318Y-104390499D01*
X112230282Y-104391558D01*
X112235929Y-104400304D01*
X112244108Y-104406752D01*
X112244110Y-104406754D01*
X112262477Y-104421234D01*
X112266950Y-104425209D01*
X112267011Y-104425137D01*
X112270968Y-104428490D01*
X112274649Y-104432171D01*
X112278881Y-104435195D01*
X112290439Y-104443455D01*
X112295185Y-104447018D01*
X112335670Y-104478934D01*
X112344355Y-104481984D01*
X112351843Y-104487335D01*
X112401266Y-104502115D01*
X112406840Y-104503927D01*
X112455502Y-104521016D01*
X112461091Y-104521500D01*
X112463802Y-104521500D01*
X112466469Y-104521615D01*
X112466532Y-104521634D01*
X112466525Y-104521808D01*
X112467271Y-104521855D01*
X112473524Y-104523725D01*
X112527688Y-104521597D01*
X112532634Y-104521500D01*
X137400692Y-104521500D01*
X137468813Y-104541502D01*
X137489790Y-104558407D01*
X137490900Y-104559517D01*
X137495929Y-104566071D01*
X137620722Y-104661828D01*
X137766047Y-104722023D01*
X137922000Y-104742555D01*
X138077953Y-104722023D01*
X138223278Y-104661828D01*
X138348071Y-104566071D01*
X138443828Y-104441277D01*
X138504023Y-104295953D01*
X138524555Y-104140000D01*
X138504023Y-103984047D01*
X138443828Y-103838723D01*
X138348071Y-103713929D01*
X138223278Y-103618172D01*
X138077953Y-103557977D01*
X137922000Y-103537445D01*
X137766047Y-103557977D01*
X137620723Y-103618172D01*
X137495929Y-103713929D01*
X137490900Y-103720483D01*
X137489790Y-103721593D01*
X137427479Y-103755620D01*
X137400692Y-103758500D01*
X112732213Y-103758500D01*
X112664092Y-103738498D01*
X112643118Y-103721595D01*
X112178405Y-103256882D01*
X112144379Y-103194570D01*
X112141500Y-103167787D01*
X112141500Y-101560499D01*
X112161502Y-101492378D01*
X112215158Y-101445885D01*
X112267500Y-101434499D01*
X112635066Y-101434499D01*
X112670818Y-101427388D01*
X112697126Y-101422156D01*
X112697128Y-101422155D01*
X112709301Y-101419734D01*
X112719621Y-101412839D01*
X112719622Y-101412838D01*
X112783168Y-101370377D01*
X112793484Y-101363484D01*
X112849734Y-101279301D01*
X112864500Y-101205067D01*
X112864500Y-101033428D01*
X112884502Y-100965307D01*
X112938158Y-100918814D01*
X113008432Y-100908710D01*
X113073012Y-100938204D01*
X113097933Y-100967593D01*
X113197694Y-101130388D01*
X113203777Y-101138699D01*
X113343213Y-101299667D01*
X113350580Y-101306883D01*
X113514434Y-101442916D01*
X113522881Y-101448831D01*
X113706756Y-101556279D01*
X113716042Y-101560729D01*
X113915001Y-101636703D01*
X113924899Y-101639579D01*
X114028250Y-101660606D01*
X114042299Y-101659410D01*
X114046000Y-101649065D01*
X114046000Y-97662000D01*
X114066002Y-97593879D01*
X114119658Y-97547386D01*
X114172000Y-97536000D01*
X114428000Y-97536000D01*
X114496121Y-97556002D01*
X114542614Y-97609658D01*
X114554000Y-97662000D01*
X114554000Y-101648517D01*
X114558064Y-101662359D01*
X114571478Y-101664393D01*
X114578184Y-101663534D01*
X114588262Y-101661392D01*
X114792255Y-101600191D01*
X114801842Y-101596433D01*
X114993095Y-101502739D01*
X115001945Y-101497464D01*
X115175328Y-101373792D01*
X115183200Y-101367139D01*
X115334052Y-101216812D01*
X115340730Y-101208965D01*
X115465003Y-101036020D01*
X115470313Y-101027183D01*
X115564670Y-100836267D01*
X115568469Y-100826672D01*
X115585066Y-100772047D01*
X115624007Y-100712683D01*
X115688862Y-100683796D01*
X115759038Y-100694558D01*
X115812256Y-100741551D01*
X115820048Y-100755922D01*
X115879377Y-100884616D01*
X115996533Y-101050389D01*
X116141938Y-101192035D01*
X116310720Y-101304812D01*
X116316023Y-101307090D01*
X116316026Y-101307092D01*
X116491921Y-101382662D01*
X116497228Y-101384942D01*
X116570244Y-101401464D01*
X116689579Y-101428467D01*
X116689584Y-101428468D01*
X116695216Y-101429742D01*
X116700987Y-101429969D01*
X116700989Y-101429969D01*
X116760756Y-101432317D01*
X116898053Y-101437712D01*
X117005348Y-101422155D01*
X117093231Y-101409413D01*
X117093236Y-101409412D01*
X117098945Y-101408584D01*
X117104409Y-101406729D01*
X117104414Y-101406728D01*
X117285693Y-101345192D01*
X117285698Y-101345190D01*
X117291165Y-101343334D01*
X117301010Y-101337821D01*
X117369138Y-101299667D01*
X117468276Y-101244147D01*
X117507969Y-101211135D01*
X117595696Y-101138172D01*
X117624345Y-101114345D01*
X117689488Y-101036020D01*
X117750453Y-100962718D01*
X117750455Y-100962715D01*
X117754147Y-100958276D01*
X117853334Y-100781165D01*
X117855190Y-100775698D01*
X117855192Y-100775693D01*
X117916728Y-100594414D01*
X117916729Y-100594409D01*
X117918584Y-100588945D01*
X117919412Y-100583236D01*
X117919413Y-100583231D01*
X117939512Y-100444610D01*
X117947712Y-100388053D01*
X117949232Y-100330000D01*
X117937366Y-100200858D01*
X117931187Y-100133613D01*
X117931186Y-100133610D01*
X117930658Y-100127859D01*
X117929090Y-100122299D01*
X117877125Y-99938046D01*
X117877124Y-99938044D01*
X117875557Y-99932487D01*
X117870025Y-99921268D01*
X117788331Y-99755609D01*
X117785776Y-99750428D01*
X117771897Y-99731841D01*
X117712761Y-99652649D01*
X117664320Y-99587779D01*
X117515258Y-99449987D01*
X117510375Y-99446906D01*
X117510371Y-99446903D01*
X117360562Y-99352381D01*
X117343581Y-99341667D01*
X117338221Y-99339528D01*
X117338214Y-99339525D01*
X117300808Y-99324601D01*
X117244949Y-99280780D01*
X117221500Y-99207572D01*
X117221500Y-98915597D01*
X117241502Y-98847476D01*
X117291740Y-98804361D01*
X117291165Y-98803334D01*
X117355878Y-98767093D01*
X117468276Y-98704147D01*
X117507969Y-98671135D01*
X117603176Y-98591951D01*
X117624345Y-98574345D01*
X117689488Y-98496020D01*
X117750453Y-98422718D01*
X117750455Y-98422715D01*
X117754147Y-98418276D01*
X117853334Y-98241165D01*
X117855190Y-98235698D01*
X117855192Y-98235693D01*
X117916728Y-98054414D01*
X117916729Y-98054409D01*
X117918584Y-98048945D01*
X117919412Y-98043236D01*
X117919413Y-98043231D01*
X117947179Y-97851727D01*
X117947712Y-97848053D01*
X117949232Y-97790000D01*
X117930658Y-97587859D01*
X117929090Y-97582299D01*
X117877125Y-97398046D01*
X117877124Y-97398044D01*
X117875557Y-97392487D01*
X117864978Y-97371033D01*
X117788331Y-97215609D01*
X117785776Y-97210428D01*
X117772333Y-97192425D01*
X117729451Y-97135000D01*
X117664320Y-97047779D01*
X117586336Y-96975691D01*
X117549891Y-96914763D01*
X117552172Y-96843803D01*
X117592454Y-96785341D01*
X117657949Y-96757938D01*
X117671914Y-96757167D01*
X118547332Y-96757519D01*
X118615443Y-96777548D01*
X118661915Y-96831223D01*
X118671990Y-96901501D01*
X118642471Y-96966070D01*
X118630359Y-96978250D01*
X118575392Y-97026455D01*
X118449720Y-97185869D01*
X118447031Y-97190980D01*
X118447029Y-97190983D01*
X118435833Y-97212264D01*
X118355203Y-97365515D01*
X118295007Y-97559378D01*
X118271148Y-97760964D01*
X118284424Y-97963522D01*
X118285845Y-97969118D01*
X118285846Y-97969123D01*
X118315536Y-98086024D01*
X118334392Y-98160269D01*
X118336809Y-98165512D01*
X118374010Y-98246208D01*
X118419377Y-98344616D01*
X118422710Y-98349332D01*
X118499788Y-98458395D01*
X118536533Y-98510389D01*
X118681938Y-98652035D01*
X118850720Y-98764812D01*
X118856023Y-98767090D01*
X118856026Y-98767092D01*
X118973038Y-98817364D01*
X119027731Y-98862632D01*
X119049300Y-98933132D01*
X119049300Y-99186836D01*
X119029298Y-99254957D01*
X118975642Y-99301450D01*
X118966914Y-99305047D01*
X118902463Y-99328824D01*
X118728010Y-99432612D01*
X118723670Y-99436418D01*
X118723666Y-99436421D01*
X118579733Y-99562648D01*
X118575392Y-99566455D01*
X118449720Y-99725869D01*
X118447031Y-99730980D01*
X118447029Y-99730983D01*
X118435833Y-99752264D01*
X118355203Y-99905515D01*
X118295007Y-100099378D01*
X118271148Y-100300964D01*
X118284424Y-100503522D01*
X118285845Y-100509118D01*
X118285846Y-100509123D01*
X118325607Y-100665678D01*
X118334392Y-100700269D01*
X118336807Y-100705507D01*
X118336809Y-100705512D01*
X118372604Y-100783157D01*
X118419377Y-100884616D01*
X118536533Y-101050389D01*
X118681938Y-101192035D01*
X118850720Y-101304812D01*
X118856023Y-101307090D01*
X118856026Y-101307092D01*
X119031921Y-101382662D01*
X119037228Y-101384942D01*
X119110244Y-101401464D01*
X119229579Y-101428467D01*
X119229584Y-101428468D01*
X119235216Y-101429742D01*
X119240987Y-101429969D01*
X119240989Y-101429969D01*
X119300756Y-101432317D01*
X119438053Y-101437712D01*
X119545348Y-101422155D01*
X119633231Y-101409413D01*
X119633236Y-101409412D01*
X119638945Y-101408584D01*
X119644409Y-101406729D01*
X119644414Y-101406728D01*
X119825693Y-101345192D01*
X119825698Y-101345190D01*
X119831165Y-101343334D01*
X119841010Y-101337821D01*
X119909138Y-101299667D01*
X120008276Y-101244147D01*
X120047969Y-101211135D01*
X120135696Y-101138172D01*
X120164345Y-101114345D01*
X120229488Y-101036020D01*
X120290453Y-100962718D01*
X120290455Y-100962715D01*
X120294147Y-100958276D01*
X120393334Y-100781165D01*
X120395190Y-100775698D01*
X120395192Y-100775693D01*
X120456728Y-100594414D01*
X120456729Y-100594409D01*
X120458584Y-100588945D01*
X120459412Y-100583236D01*
X120459413Y-100583231D01*
X120479512Y-100444610D01*
X120487712Y-100388053D01*
X120489232Y-100330000D01*
X120477366Y-100200858D01*
X120471187Y-100133613D01*
X120471186Y-100133610D01*
X120470658Y-100127859D01*
X120469090Y-100122299D01*
X120417125Y-99938046D01*
X120417124Y-99938044D01*
X120415557Y-99932487D01*
X120410025Y-99921268D01*
X120328331Y-99755609D01*
X120325776Y-99750428D01*
X120311897Y-99731841D01*
X120252761Y-99652649D01*
X120204320Y-99587779D01*
X120055258Y-99449987D01*
X120050375Y-99446906D01*
X120050371Y-99446903D01*
X119900562Y-99352381D01*
X119883581Y-99341667D01*
X119872485Y-99337240D01*
X119790009Y-99304335D01*
X119734150Y-99260514D01*
X119710700Y-99187305D01*
X119710700Y-98934516D01*
X119730702Y-98866395D01*
X119784358Y-98819902D01*
X119796184Y-98815208D01*
X119831165Y-98803334D01*
X120008276Y-98704147D01*
X120047969Y-98671135D01*
X120143176Y-98591951D01*
X120164345Y-98574345D01*
X120229488Y-98496020D01*
X120290453Y-98422718D01*
X120290455Y-98422715D01*
X120294147Y-98418276D01*
X120393334Y-98241165D01*
X120395190Y-98235698D01*
X120395192Y-98235693D01*
X120456728Y-98054414D01*
X120456729Y-98054409D01*
X120458584Y-98048945D01*
X120459412Y-98043236D01*
X120459413Y-98043231D01*
X120487179Y-97851727D01*
X120487712Y-97848053D01*
X120489232Y-97790000D01*
X120470658Y-97587859D01*
X120469090Y-97582299D01*
X120417125Y-97398046D01*
X120417124Y-97398044D01*
X120415557Y-97392487D01*
X120404978Y-97371033D01*
X120328331Y-97215609D01*
X120325776Y-97210428D01*
X120312333Y-97192425D01*
X120269451Y-97135000D01*
X120204320Y-97047779D01*
X120127440Y-96976712D01*
X120090997Y-96915787D01*
X120093278Y-96844827D01*
X120133560Y-96786364D01*
X120199055Y-96758961D01*
X120213022Y-96758190D01*
X121086166Y-96758541D01*
X121154278Y-96778570D01*
X121200750Y-96832245D01*
X121210825Y-96902523D01*
X121181306Y-96967092D01*
X121169192Y-96979273D01*
X121119738Y-97022643D01*
X121119734Y-97022647D01*
X121115392Y-97026455D01*
X120989720Y-97185869D01*
X120987031Y-97190980D01*
X120987029Y-97190983D01*
X120975833Y-97212264D01*
X120895203Y-97365515D01*
X120835007Y-97559378D01*
X120811148Y-97760964D01*
X120824424Y-97963522D01*
X120825845Y-97969118D01*
X120825846Y-97969123D01*
X120855536Y-98086024D01*
X120874392Y-98160269D01*
X120876809Y-98165512D01*
X120914010Y-98246208D01*
X120959377Y-98344616D01*
X120962710Y-98349332D01*
X121039788Y-98458395D01*
X121076533Y-98510389D01*
X121221938Y-98652035D01*
X121390720Y-98764812D01*
X121396023Y-98767090D01*
X121396026Y-98767092D01*
X121513038Y-98817364D01*
X121567731Y-98862632D01*
X121589300Y-98933132D01*
X121589300Y-99186836D01*
X121569298Y-99254957D01*
X121515642Y-99301450D01*
X121506914Y-99305047D01*
X121442463Y-99328824D01*
X121268010Y-99432612D01*
X121263670Y-99436418D01*
X121263666Y-99436421D01*
X121119733Y-99562648D01*
X121115392Y-99566455D01*
X120989720Y-99725869D01*
X120987031Y-99730980D01*
X120987029Y-99730983D01*
X120975833Y-99752264D01*
X120895203Y-99905515D01*
X120835007Y-100099378D01*
X120811148Y-100300964D01*
X120824424Y-100503522D01*
X120825845Y-100509118D01*
X120825846Y-100509123D01*
X120865607Y-100665678D01*
X120874392Y-100700269D01*
X120876807Y-100705507D01*
X120876809Y-100705512D01*
X120912604Y-100783157D01*
X120959377Y-100884616D01*
X121076533Y-101050389D01*
X121221938Y-101192035D01*
X121390720Y-101304812D01*
X121396023Y-101307090D01*
X121396026Y-101307092D01*
X121571921Y-101382662D01*
X121577228Y-101384942D01*
X121650244Y-101401464D01*
X121769579Y-101428467D01*
X121769584Y-101428468D01*
X121775216Y-101429742D01*
X121780987Y-101429969D01*
X121780989Y-101429969D01*
X121840756Y-101432317D01*
X121978053Y-101437712D01*
X122085348Y-101422155D01*
X122173231Y-101409413D01*
X122173236Y-101409412D01*
X122178945Y-101408584D01*
X122184409Y-101406729D01*
X122184414Y-101406728D01*
X122365693Y-101345192D01*
X122365698Y-101345190D01*
X122371165Y-101343334D01*
X122381010Y-101337821D01*
X122449138Y-101299667D01*
X122548276Y-101244147D01*
X122587969Y-101211135D01*
X122675696Y-101138172D01*
X122704345Y-101114345D01*
X122769488Y-101036020D01*
X122830453Y-100962718D01*
X122830455Y-100962715D01*
X122834147Y-100958276D01*
X122933334Y-100781165D01*
X122935190Y-100775698D01*
X122935192Y-100775693D01*
X122996728Y-100594414D01*
X122996729Y-100594409D01*
X122998584Y-100588945D01*
X122999412Y-100583236D01*
X122999413Y-100583231D01*
X123019512Y-100444610D01*
X123027712Y-100388053D01*
X123029232Y-100330000D01*
X123017366Y-100200858D01*
X123011187Y-100133613D01*
X123011186Y-100133610D01*
X123010658Y-100127859D01*
X123009090Y-100122299D01*
X122957125Y-99938046D01*
X122957124Y-99938044D01*
X122955557Y-99932487D01*
X122950025Y-99921268D01*
X122868331Y-99755609D01*
X122865776Y-99750428D01*
X122851897Y-99731841D01*
X122792761Y-99652649D01*
X122744320Y-99587779D01*
X122595258Y-99449987D01*
X122590375Y-99446906D01*
X122590371Y-99446903D01*
X122440562Y-99352381D01*
X122423581Y-99341667D01*
X122412485Y-99337240D01*
X122330009Y-99304335D01*
X122274150Y-99260514D01*
X122250700Y-99187305D01*
X122250700Y-98934516D01*
X122270702Y-98866395D01*
X122324358Y-98819902D01*
X122336184Y-98815208D01*
X122371165Y-98803334D01*
X122548276Y-98704147D01*
X122587969Y-98671135D01*
X122683176Y-98591951D01*
X122704345Y-98574345D01*
X122769488Y-98496020D01*
X122830453Y-98422718D01*
X122830455Y-98422715D01*
X122834147Y-98418276D01*
X122933334Y-98241165D01*
X122935190Y-98235698D01*
X122935192Y-98235693D01*
X122996728Y-98054414D01*
X122996729Y-98054409D01*
X122998584Y-98048945D01*
X122999412Y-98043236D01*
X122999413Y-98043231D01*
X123027179Y-97851727D01*
X123027712Y-97848053D01*
X123029232Y-97790000D01*
X123010658Y-97587859D01*
X123009090Y-97582299D01*
X122957125Y-97398046D01*
X122957124Y-97398044D01*
X122955557Y-97392487D01*
X122944978Y-97371033D01*
X122868331Y-97215609D01*
X122865776Y-97210428D01*
X122852333Y-97192425D01*
X122809451Y-97135000D01*
X122744320Y-97047779D01*
X122668546Y-96977734D01*
X122632103Y-96916808D01*
X122634384Y-96845848D01*
X122674666Y-96787386D01*
X122740161Y-96759983D01*
X122754128Y-96759212D01*
X123625002Y-96759562D01*
X123693113Y-96779591D01*
X123739585Y-96833266D01*
X123749660Y-96903544D01*
X123720141Y-96968113D01*
X123708028Y-96980293D01*
X123659739Y-97022642D01*
X123659735Y-97022647D01*
X123655392Y-97026455D01*
X123529720Y-97185869D01*
X123527031Y-97190980D01*
X123527029Y-97190983D01*
X123515833Y-97212264D01*
X123435203Y-97365515D01*
X123375007Y-97559378D01*
X123351148Y-97760964D01*
X123364424Y-97963522D01*
X123365845Y-97969118D01*
X123365846Y-97969123D01*
X123395536Y-98086024D01*
X123414392Y-98160269D01*
X123416809Y-98165512D01*
X123454010Y-98246208D01*
X123499377Y-98344616D01*
X123502710Y-98349332D01*
X123579788Y-98458395D01*
X123616533Y-98510389D01*
X123761938Y-98652035D01*
X123930720Y-98764812D01*
X123936023Y-98767090D01*
X123936026Y-98767092D01*
X124053038Y-98817364D01*
X124107731Y-98862632D01*
X124129300Y-98933132D01*
X124129300Y-99186836D01*
X124109298Y-99254957D01*
X124055642Y-99301450D01*
X124046914Y-99305047D01*
X123982463Y-99328824D01*
X123808010Y-99432612D01*
X123803670Y-99436418D01*
X123803666Y-99436421D01*
X123659733Y-99562648D01*
X123655392Y-99566455D01*
X123529720Y-99725869D01*
X123527031Y-99730980D01*
X123527029Y-99730983D01*
X123515833Y-99752264D01*
X123435203Y-99905515D01*
X123375007Y-100099378D01*
X123351148Y-100300964D01*
X123364424Y-100503522D01*
X123365845Y-100509118D01*
X123365846Y-100509123D01*
X123405607Y-100665678D01*
X123414392Y-100700269D01*
X123416807Y-100705507D01*
X123416809Y-100705512D01*
X123452604Y-100783157D01*
X123499377Y-100884616D01*
X123616533Y-101050389D01*
X123761938Y-101192035D01*
X123930720Y-101304812D01*
X123936023Y-101307090D01*
X123936026Y-101307092D01*
X124111921Y-101382662D01*
X124117228Y-101384942D01*
X124190244Y-101401464D01*
X124309579Y-101428467D01*
X124309584Y-101428468D01*
X124315216Y-101429742D01*
X124320987Y-101429969D01*
X124320989Y-101429969D01*
X124380756Y-101432317D01*
X124518053Y-101437712D01*
X124625348Y-101422155D01*
X124713231Y-101409413D01*
X124713236Y-101409412D01*
X124718945Y-101408584D01*
X124724409Y-101406729D01*
X124724414Y-101406728D01*
X124905693Y-101345192D01*
X124905698Y-101345190D01*
X124911165Y-101343334D01*
X124921010Y-101337821D01*
X124989138Y-101299667D01*
X125088276Y-101244147D01*
X125127969Y-101211135D01*
X125215696Y-101138172D01*
X125244345Y-101114345D01*
X125309488Y-101036020D01*
X125370453Y-100962718D01*
X125370455Y-100962715D01*
X125374147Y-100958276D01*
X125473334Y-100781165D01*
X125475190Y-100775698D01*
X125475192Y-100775693D01*
X125536728Y-100594414D01*
X125536729Y-100594409D01*
X125538584Y-100588945D01*
X125539412Y-100583236D01*
X125539413Y-100583231D01*
X125559512Y-100444610D01*
X125567712Y-100388053D01*
X125569232Y-100330000D01*
X125557366Y-100200858D01*
X125551187Y-100133613D01*
X125551186Y-100133610D01*
X125550658Y-100127859D01*
X125549090Y-100122299D01*
X125497125Y-99938046D01*
X125497124Y-99938044D01*
X125495557Y-99932487D01*
X125490025Y-99921268D01*
X125408331Y-99755609D01*
X125405776Y-99750428D01*
X125391897Y-99731841D01*
X125332761Y-99652649D01*
X125284320Y-99587779D01*
X125135258Y-99449987D01*
X125130375Y-99446906D01*
X125130371Y-99446903D01*
X124980562Y-99352381D01*
X124963581Y-99341667D01*
X124952485Y-99337240D01*
X124870009Y-99304335D01*
X124814150Y-99260514D01*
X124790700Y-99187305D01*
X124790700Y-98934516D01*
X124810702Y-98866395D01*
X124864358Y-98819902D01*
X124876184Y-98815208D01*
X124911165Y-98803334D01*
X125088276Y-98704147D01*
X125127969Y-98671135D01*
X125223176Y-98591951D01*
X125244345Y-98574345D01*
X125309488Y-98496020D01*
X125370453Y-98422718D01*
X125370455Y-98422715D01*
X125374147Y-98418276D01*
X125473334Y-98241165D01*
X125475190Y-98235698D01*
X125475192Y-98235693D01*
X125536728Y-98054414D01*
X125536729Y-98054409D01*
X125538584Y-98048945D01*
X125539412Y-98043236D01*
X125539413Y-98043231D01*
X125567179Y-97851727D01*
X125567712Y-97848053D01*
X125569232Y-97790000D01*
X125550658Y-97587859D01*
X125549090Y-97582299D01*
X125497125Y-97398046D01*
X125497124Y-97398044D01*
X125495557Y-97392487D01*
X125484978Y-97371033D01*
X125408331Y-97215609D01*
X125405776Y-97210428D01*
X125392333Y-97192425D01*
X125349451Y-97135000D01*
X125284320Y-97047779D01*
X125220156Y-96988466D01*
X125209654Y-96978758D01*
X125173209Y-96917830D01*
X125175490Y-96846870D01*
X125215772Y-96788408D01*
X125281267Y-96761005D01*
X125295230Y-96760234D01*
X126163838Y-96760583D01*
X126231949Y-96780612D01*
X126278421Y-96834287D01*
X126288496Y-96904565D01*
X126258977Y-96969134D01*
X126246864Y-96981315D01*
X126195392Y-97026455D01*
X126069720Y-97185869D01*
X126067031Y-97190980D01*
X126067029Y-97190983D01*
X126055833Y-97212264D01*
X125975203Y-97365515D01*
X125915007Y-97559378D01*
X125891148Y-97760964D01*
X125904424Y-97963522D01*
X125905845Y-97969118D01*
X125905846Y-97969123D01*
X125935536Y-98086024D01*
X125954392Y-98160269D01*
X125956809Y-98165512D01*
X125994010Y-98246208D01*
X126039377Y-98344616D01*
X126042710Y-98349332D01*
X126119788Y-98458395D01*
X126156533Y-98510389D01*
X126301938Y-98652035D01*
X126470720Y-98764812D01*
X126476023Y-98767090D01*
X126476026Y-98767092D01*
X126593038Y-98817364D01*
X126647731Y-98862632D01*
X126669300Y-98933132D01*
X126669300Y-99186836D01*
X126649298Y-99254957D01*
X126595642Y-99301450D01*
X126586914Y-99305047D01*
X126522463Y-99328824D01*
X126348010Y-99432612D01*
X126343670Y-99436418D01*
X126343666Y-99436421D01*
X126199733Y-99562648D01*
X126195392Y-99566455D01*
X126069720Y-99725869D01*
X126067031Y-99730980D01*
X126067029Y-99730983D01*
X126055833Y-99752264D01*
X125975203Y-99905515D01*
X125915007Y-100099378D01*
X125891148Y-100300964D01*
X125904424Y-100503522D01*
X125905845Y-100509118D01*
X125905846Y-100509123D01*
X125945607Y-100665678D01*
X125954392Y-100700269D01*
X125956807Y-100705507D01*
X125956809Y-100705512D01*
X125992604Y-100783157D01*
X126039377Y-100884616D01*
X126156533Y-101050389D01*
X126301938Y-101192035D01*
X126470720Y-101304812D01*
X126476023Y-101307090D01*
X126476026Y-101307092D01*
X126651921Y-101382662D01*
X126657228Y-101384942D01*
X126730244Y-101401464D01*
X126849579Y-101428467D01*
X126849584Y-101428468D01*
X126855216Y-101429742D01*
X126860987Y-101429969D01*
X126860989Y-101429969D01*
X126920756Y-101432317D01*
X127058053Y-101437712D01*
X127165348Y-101422155D01*
X127253231Y-101409413D01*
X127253236Y-101409412D01*
X127258945Y-101408584D01*
X127264409Y-101406729D01*
X127264414Y-101406728D01*
X127445693Y-101345192D01*
X127445698Y-101345190D01*
X127451165Y-101343334D01*
X127461010Y-101337821D01*
X127529138Y-101299667D01*
X127628276Y-101244147D01*
X127667969Y-101211135D01*
X127755696Y-101138172D01*
X127784345Y-101114345D01*
X127849488Y-101036020D01*
X127910453Y-100962718D01*
X127910455Y-100962715D01*
X127914147Y-100958276D01*
X128013334Y-100781165D01*
X128015190Y-100775698D01*
X128015192Y-100775693D01*
X128076728Y-100594414D01*
X128076729Y-100594409D01*
X128078584Y-100588945D01*
X128079412Y-100583236D01*
X128079413Y-100583231D01*
X128099512Y-100444610D01*
X128107712Y-100388053D01*
X128109232Y-100330000D01*
X128097366Y-100200858D01*
X128091187Y-100133613D01*
X128091186Y-100133610D01*
X128090658Y-100127859D01*
X128089090Y-100122299D01*
X128037125Y-99938046D01*
X128037124Y-99938044D01*
X128035557Y-99932487D01*
X128030025Y-99921268D01*
X127948331Y-99755609D01*
X127945776Y-99750428D01*
X127931897Y-99731841D01*
X127872761Y-99652649D01*
X127824320Y-99587779D01*
X127675258Y-99449987D01*
X127670375Y-99446906D01*
X127670371Y-99446903D01*
X127520562Y-99352381D01*
X127503581Y-99341667D01*
X127492485Y-99337240D01*
X127410009Y-99304335D01*
X127354150Y-99260514D01*
X127330700Y-99187305D01*
X127330700Y-98934516D01*
X127350702Y-98866395D01*
X127404358Y-98819902D01*
X127416184Y-98815208D01*
X127451165Y-98803334D01*
X127628276Y-98704147D01*
X127667969Y-98671135D01*
X127763176Y-98591951D01*
X127784345Y-98574345D01*
X127849488Y-98496020D01*
X127910453Y-98422718D01*
X127910455Y-98422715D01*
X127914147Y-98418276D01*
X128013334Y-98241165D01*
X128015190Y-98235698D01*
X128015192Y-98235693D01*
X128076728Y-98054414D01*
X128076729Y-98054409D01*
X128078584Y-98048945D01*
X128079412Y-98043236D01*
X128079413Y-98043231D01*
X128107179Y-97851727D01*
X128107712Y-97848053D01*
X128109232Y-97790000D01*
X128090658Y-97587859D01*
X128089090Y-97582299D01*
X128037125Y-97398046D01*
X128037124Y-97398044D01*
X128035557Y-97392487D01*
X128024978Y-97371033D01*
X127948331Y-97215609D01*
X127945776Y-97210428D01*
X127932333Y-97192425D01*
X127889451Y-97135000D01*
X127824320Y-97047779D01*
X127750758Y-96979779D01*
X127714315Y-96918853D01*
X127716596Y-96847893D01*
X127756878Y-96789431D01*
X127822373Y-96762028D01*
X127836340Y-96761257D01*
X128702672Y-96761605D01*
X128770784Y-96781634D01*
X128817256Y-96835309D01*
X128827331Y-96905587D01*
X128797812Y-96970156D01*
X128785701Y-96982335D01*
X128735392Y-97026455D01*
X128609720Y-97185869D01*
X128607031Y-97190980D01*
X128607029Y-97190983D01*
X128595833Y-97212264D01*
X128515203Y-97365515D01*
X128455007Y-97559378D01*
X128431148Y-97760964D01*
X128444424Y-97963522D01*
X128445845Y-97969118D01*
X128445846Y-97969123D01*
X128475536Y-98086024D01*
X128494392Y-98160269D01*
X128496809Y-98165512D01*
X128534010Y-98246208D01*
X128579377Y-98344616D01*
X128582710Y-98349332D01*
X128659788Y-98458395D01*
X128696533Y-98510389D01*
X128841938Y-98652035D01*
X129010720Y-98764812D01*
X129016023Y-98767090D01*
X129016026Y-98767092D01*
X129133038Y-98817364D01*
X129187731Y-98862632D01*
X129209300Y-98933132D01*
X129209300Y-99186836D01*
X129189298Y-99254957D01*
X129135642Y-99301450D01*
X129126914Y-99305047D01*
X129062463Y-99328824D01*
X128888010Y-99432612D01*
X128883670Y-99436418D01*
X128883666Y-99436421D01*
X128739733Y-99562648D01*
X128735392Y-99566455D01*
X128609720Y-99725869D01*
X128607031Y-99730980D01*
X128607029Y-99730983D01*
X128595833Y-99752264D01*
X128515203Y-99905515D01*
X128455007Y-100099378D01*
X128431148Y-100300964D01*
X128444424Y-100503522D01*
X128445845Y-100509118D01*
X128445846Y-100509123D01*
X128485607Y-100665678D01*
X128494392Y-100700269D01*
X128496807Y-100705507D01*
X128496809Y-100705512D01*
X128532604Y-100783157D01*
X128579377Y-100884616D01*
X128696533Y-101050389D01*
X128841938Y-101192035D01*
X129010720Y-101304812D01*
X129016023Y-101307090D01*
X129016026Y-101307092D01*
X129191921Y-101382662D01*
X129197228Y-101384942D01*
X129270244Y-101401464D01*
X129389579Y-101428467D01*
X129389584Y-101428468D01*
X129395216Y-101429742D01*
X129400987Y-101429969D01*
X129400989Y-101429969D01*
X129460756Y-101432317D01*
X129598053Y-101437712D01*
X129705348Y-101422155D01*
X129793231Y-101409413D01*
X129793236Y-101409412D01*
X129798945Y-101408584D01*
X129804409Y-101406729D01*
X129804414Y-101406728D01*
X129985693Y-101345192D01*
X129985698Y-101345190D01*
X129991165Y-101343334D01*
X130001010Y-101337821D01*
X130069138Y-101299667D01*
X130168276Y-101244147D01*
X130207969Y-101211135D01*
X130295696Y-101138172D01*
X130324345Y-101114345D01*
X130389488Y-101036020D01*
X130450453Y-100962718D01*
X130450455Y-100962715D01*
X130454147Y-100958276D01*
X130553334Y-100781165D01*
X130555190Y-100775698D01*
X130555192Y-100775693D01*
X130616728Y-100594414D01*
X130616729Y-100594409D01*
X130618584Y-100588945D01*
X130619412Y-100583236D01*
X130619413Y-100583231D01*
X130639512Y-100444610D01*
X130647712Y-100388053D01*
X130649232Y-100330000D01*
X130637366Y-100200858D01*
X130631187Y-100133613D01*
X130631186Y-100133610D01*
X130630658Y-100127859D01*
X130629090Y-100122299D01*
X130577125Y-99938046D01*
X130577124Y-99938044D01*
X130575557Y-99932487D01*
X130570025Y-99921268D01*
X130488331Y-99755609D01*
X130485776Y-99750428D01*
X130471897Y-99731841D01*
X130412761Y-99652649D01*
X130364320Y-99587779D01*
X130215258Y-99449987D01*
X130210375Y-99446906D01*
X130210371Y-99446903D01*
X130060562Y-99352381D01*
X130043581Y-99341667D01*
X130032485Y-99337240D01*
X129950009Y-99304335D01*
X129894150Y-99260514D01*
X129870700Y-99187305D01*
X129870700Y-98934516D01*
X129890702Y-98866395D01*
X129944358Y-98819902D01*
X129956184Y-98815208D01*
X129991165Y-98803334D01*
X130168276Y-98704147D01*
X130207969Y-98671135D01*
X130303176Y-98591951D01*
X130324345Y-98574345D01*
X130389488Y-98496020D01*
X130450453Y-98422718D01*
X130450455Y-98422715D01*
X130454147Y-98418276D01*
X130553334Y-98241165D01*
X130555190Y-98235698D01*
X130555192Y-98235693D01*
X130616728Y-98054414D01*
X130616729Y-98054409D01*
X130618584Y-98048945D01*
X130619412Y-98043236D01*
X130619413Y-98043231D01*
X130647179Y-97851727D01*
X130647712Y-97848053D01*
X130649232Y-97790000D01*
X130630658Y-97587859D01*
X130629090Y-97582299D01*
X130577125Y-97398046D01*
X130577124Y-97398044D01*
X130575557Y-97392487D01*
X130564978Y-97371033D01*
X130488331Y-97215609D01*
X130485776Y-97210428D01*
X130472333Y-97192425D01*
X130429451Y-97135000D01*
X130364320Y-97047779D01*
X130291865Y-96980802D01*
X130255421Y-96919875D01*
X130257702Y-96848915D01*
X130297984Y-96790453D01*
X130363479Y-96763050D01*
X130377444Y-96762279D01*
X130529910Y-96762340D01*
X131241507Y-96762627D01*
X131309619Y-96782656D01*
X131356091Y-96836331D01*
X131366166Y-96906609D01*
X131336647Y-96971178D01*
X131324533Y-96983359D01*
X131279738Y-97022643D01*
X131279734Y-97022647D01*
X131275392Y-97026455D01*
X131149720Y-97185869D01*
X131147031Y-97190980D01*
X131147029Y-97190983D01*
X131135833Y-97212264D01*
X131055203Y-97365515D01*
X130995007Y-97559378D01*
X130971148Y-97760964D01*
X130984424Y-97963522D01*
X130985845Y-97969118D01*
X130985846Y-97969123D01*
X131015536Y-98086024D01*
X131034392Y-98160269D01*
X131036809Y-98165512D01*
X131074010Y-98246208D01*
X131119377Y-98344616D01*
X131122710Y-98349332D01*
X131199788Y-98458395D01*
X131236533Y-98510389D01*
X131381938Y-98652035D01*
X131550720Y-98764812D01*
X131556023Y-98767090D01*
X131556026Y-98767092D01*
X131673038Y-98817364D01*
X131727731Y-98862632D01*
X131749300Y-98933132D01*
X131749300Y-99186836D01*
X131729298Y-99254957D01*
X131675642Y-99301450D01*
X131666914Y-99305047D01*
X131602463Y-99328824D01*
X131428010Y-99432612D01*
X131423670Y-99436418D01*
X131423666Y-99436421D01*
X131279733Y-99562648D01*
X131275392Y-99566455D01*
X131149720Y-99725869D01*
X131147031Y-99730980D01*
X131147029Y-99730983D01*
X131135833Y-99752264D01*
X131055203Y-99905515D01*
X130995007Y-100099378D01*
X130971148Y-100300964D01*
X130984424Y-100503522D01*
X130985845Y-100509118D01*
X130985846Y-100509123D01*
X131025607Y-100665678D01*
X131034392Y-100700269D01*
X131036807Y-100705507D01*
X131036809Y-100705512D01*
X131072604Y-100783157D01*
X131119377Y-100884616D01*
X131236533Y-101050389D01*
X131381938Y-101192035D01*
X131550720Y-101304812D01*
X131556023Y-101307090D01*
X131556026Y-101307092D01*
X131731921Y-101382662D01*
X131737228Y-101384942D01*
X131810244Y-101401464D01*
X131929579Y-101428467D01*
X131929584Y-101428468D01*
X131935216Y-101429742D01*
X131940987Y-101429969D01*
X131940989Y-101429969D01*
X132000756Y-101432317D01*
X132138053Y-101437712D01*
X132245348Y-101422155D01*
X132333231Y-101409413D01*
X132333236Y-101409412D01*
X132338945Y-101408584D01*
X132344409Y-101406729D01*
X132344414Y-101406728D01*
X132525693Y-101345192D01*
X132525698Y-101345190D01*
X132531165Y-101343334D01*
X132541010Y-101337821D01*
X132609138Y-101299667D01*
X132708276Y-101244147D01*
X132747969Y-101211135D01*
X132835696Y-101138172D01*
X132864345Y-101114345D01*
X132929488Y-101036020D01*
X132990453Y-100962718D01*
X132990455Y-100962715D01*
X132994147Y-100958276D01*
X133093334Y-100781165D01*
X133095190Y-100775698D01*
X133095192Y-100775693D01*
X133156728Y-100594414D01*
X133156729Y-100594409D01*
X133158584Y-100588945D01*
X133159412Y-100583236D01*
X133159413Y-100583231D01*
X133179512Y-100444610D01*
X133187712Y-100388053D01*
X133189232Y-100330000D01*
X133177366Y-100200858D01*
X133171187Y-100133613D01*
X133171186Y-100133610D01*
X133170658Y-100127859D01*
X133169090Y-100122299D01*
X133117125Y-99938046D01*
X133117124Y-99938044D01*
X133115557Y-99932487D01*
X133110025Y-99921268D01*
X133028331Y-99755609D01*
X133025776Y-99750428D01*
X133011897Y-99731841D01*
X132952761Y-99652649D01*
X132904320Y-99587779D01*
X132755258Y-99449987D01*
X132750375Y-99446906D01*
X132750371Y-99446903D01*
X132600562Y-99352381D01*
X132583581Y-99341667D01*
X132572485Y-99337240D01*
X132490009Y-99304335D01*
X132434150Y-99260514D01*
X132410700Y-99187305D01*
X132410700Y-98934516D01*
X132430702Y-98866395D01*
X132484358Y-98819902D01*
X132496184Y-98815208D01*
X132531165Y-98803334D01*
X132708276Y-98704147D01*
X132747969Y-98671135D01*
X132843176Y-98591951D01*
X132864345Y-98574345D01*
X132929488Y-98496020D01*
X132990453Y-98422718D01*
X132990455Y-98422715D01*
X132994147Y-98418276D01*
X133093334Y-98241165D01*
X133095190Y-98235698D01*
X133095192Y-98235693D01*
X133156728Y-98054414D01*
X133156729Y-98054409D01*
X133158584Y-98048945D01*
X133159412Y-98043236D01*
X133159413Y-98043231D01*
X133187179Y-97851727D01*
X133187712Y-97848053D01*
X133189232Y-97790000D01*
X133170658Y-97587859D01*
X133169090Y-97582299D01*
X133117125Y-97398046D01*
X133117124Y-97398044D01*
X133115557Y-97392487D01*
X133104978Y-97371033D01*
X133028331Y-97215609D01*
X133025776Y-97210428D01*
X133012333Y-97192425D01*
X132969451Y-97135000D01*
X132904320Y-97047779D01*
X132832969Y-96981822D01*
X132796526Y-96920898D01*
X132798807Y-96849938D01*
X132839089Y-96791475D01*
X132904584Y-96764072D01*
X132918551Y-96763301D01*
X133780342Y-96763648D01*
X133848454Y-96783677D01*
X133894926Y-96837352D01*
X133905001Y-96907630D01*
X133875482Y-96972199D01*
X133863369Y-96984380D01*
X133815392Y-97026455D01*
X133689720Y-97185869D01*
X133687031Y-97190980D01*
X133687029Y-97190983D01*
X133675833Y-97212264D01*
X133595203Y-97365515D01*
X133535007Y-97559378D01*
X133511148Y-97760964D01*
X133524424Y-97963522D01*
X133525845Y-97969118D01*
X133525846Y-97969123D01*
X133555536Y-98086024D01*
X133574392Y-98160269D01*
X133576809Y-98165512D01*
X133614010Y-98246208D01*
X133659377Y-98344616D01*
X133662710Y-98349332D01*
X133739788Y-98458395D01*
X133776533Y-98510389D01*
X133921938Y-98652035D01*
X134090720Y-98764812D01*
X134096023Y-98767090D01*
X134096026Y-98767092D01*
X134213038Y-98817364D01*
X134267731Y-98862632D01*
X134289300Y-98933132D01*
X134289300Y-99186836D01*
X134269298Y-99254957D01*
X134215642Y-99301450D01*
X134206914Y-99305047D01*
X134142463Y-99328824D01*
X133968010Y-99432612D01*
X133963670Y-99436418D01*
X133963666Y-99436421D01*
X133819733Y-99562648D01*
X133815392Y-99566455D01*
X133689720Y-99725869D01*
X133687031Y-99730980D01*
X133687029Y-99730983D01*
X133675833Y-99752264D01*
X133595203Y-99905515D01*
X133535007Y-100099378D01*
X133511148Y-100300964D01*
X133524424Y-100503522D01*
X133525845Y-100509118D01*
X133525846Y-100509123D01*
X133565607Y-100665678D01*
X133574392Y-100700269D01*
X133576807Y-100705507D01*
X133576809Y-100705512D01*
X133612604Y-100783157D01*
X133659377Y-100884616D01*
X133776533Y-101050389D01*
X133921938Y-101192035D01*
X134090720Y-101304812D01*
X134096023Y-101307090D01*
X134096026Y-101307092D01*
X134271921Y-101382662D01*
X134277228Y-101384942D01*
X134350244Y-101401464D01*
X134469579Y-101428467D01*
X134469584Y-101428468D01*
X134475216Y-101429742D01*
X134480987Y-101429969D01*
X134480989Y-101429969D01*
X134540756Y-101432317D01*
X134678053Y-101437712D01*
X134785348Y-101422155D01*
X134873231Y-101409413D01*
X134873236Y-101409412D01*
X134878945Y-101408584D01*
X134884409Y-101406729D01*
X134884414Y-101406728D01*
X135065693Y-101345192D01*
X135065698Y-101345190D01*
X135071165Y-101343334D01*
X135081010Y-101337821D01*
X135149138Y-101299667D01*
X135248276Y-101244147D01*
X135287969Y-101211135D01*
X135375696Y-101138172D01*
X135404345Y-101114345D01*
X135469488Y-101036020D01*
X135530453Y-100962718D01*
X135530455Y-100962715D01*
X135534147Y-100958276D01*
X135633334Y-100781165D01*
X135635190Y-100775698D01*
X135635192Y-100775693D01*
X135696728Y-100594414D01*
X135696729Y-100594409D01*
X135698584Y-100588945D01*
X135699412Y-100583236D01*
X135699413Y-100583231D01*
X135719512Y-100444610D01*
X135727712Y-100388053D01*
X135729232Y-100330000D01*
X135717366Y-100200858D01*
X135711187Y-100133613D01*
X135711186Y-100133610D01*
X135710658Y-100127859D01*
X135709090Y-100122299D01*
X135657125Y-99938046D01*
X135657124Y-99938044D01*
X135655557Y-99932487D01*
X135650025Y-99921268D01*
X135568331Y-99755609D01*
X135565776Y-99750428D01*
X135551897Y-99731841D01*
X135492761Y-99652649D01*
X135444320Y-99587779D01*
X135295258Y-99449987D01*
X135290375Y-99446906D01*
X135290371Y-99446903D01*
X135140562Y-99352381D01*
X135123581Y-99341667D01*
X135112485Y-99337240D01*
X135030009Y-99304335D01*
X134974150Y-99260514D01*
X134950700Y-99187305D01*
X134950700Y-98934516D01*
X134970702Y-98866395D01*
X135024358Y-98819902D01*
X135036184Y-98815208D01*
X135071165Y-98803334D01*
X135248276Y-98704147D01*
X135287969Y-98671135D01*
X135383176Y-98591951D01*
X135404345Y-98574345D01*
X135469488Y-98496020D01*
X135530453Y-98422718D01*
X135530455Y-98422715D01*
X135534147Y-98418276D01*
X135633334Y-98241165D01*
X135635190Y-98235698D01*
X135635192Y-98235693D01*
X135696728Y-98054414D01*
X135696729Y-98054409D01*
X135698584Y-98048945D01*
X135699412Y-98043236D01*
X135699413Y-98043231D01*
X135727179Y-97851727D01*
X135727712Y-97848053D01*
X135729232Y-97790000D01*
X135710658Y-97587859D01*
X135709090Y-97582299D01*
X135657125Y-97398046D01*
X135657124Y-97398044D01*
X135655557Y-97392487D01*
X135644978Y-97371033D01*
X135568331Y-97215609D01*
X135565776Y-97210428D01*
X135552333Y-97192425D01*
X135509451Y-97135000D01*
X135444320Y-97047779D01*
X135374075Y-96982845D01*
X135337632Y-96921919D01*
X135339913Y-96850959D01*
X135380195Y-96792497D01*
X135445690Y-96765094D01*
X135459657Y-96764323D01*
X135471226Y-96764328D01*
X136319178Y-96764669D01*
X136387290Y-96784698D01*
X136433762Y-96838373D01*
X136443837Y-96908651D01*
X136414318Y-96973220D01*
X136402206Y-96985400D01*
X136355392Y-97026455D01*
X136229720Y-97185869D01*
X136227031Y-97190980D01*
X136227029Y-97190983D01*
X136215833Y-97212264D01*
X136135203Y-97365515D01*
X136075007Y-97559378D01*
X136051148Y-97760964D01*
X136064424Y-97963522D01*
X136065845Y-97969118D01*
X136065846Y-97969123D01*
X136095536Y-98086024D01*
X136114392Y-98160269D01*
X136116809Y-98165512D01*
X136154010Y-98246208D01*
X136199377Y-98344616D01*
X136202710Y-98349332D01*
X136279788Y-98458395D01*
X136316533Y-98510389D01*
X136461938Y-98652035D01*
X136630720Y-98764812D01*
X136636023Y-98767090D01*
X136636026Y-98767092D01*
X136753038Y-98817364D01*
X136807731Y-98862632D01*
X136829300Y-98933132D01*
X136829300Y-99186836D01*
X136809298Y-99254957D01*
X136755642Y-99301450D01*
X136746914Y-99305047D01*
X136682463Y-99328824D01*
X136508010Y-99432612D01*
X136503670Y-99436418D01*
X136503666Y-99436421D01*
X136359733Y-99562648D01*
X136355392Y-99566455D01*
X136229720Y-99725869D01*
X136227031Y-99730980D01*
X136227029Y-99730983D01*
X136215833Y-99752264D01*
X136135203Y-99905515D01*
X136075007Y-100099378D01*
X136051148Y-100300964D01*
X136064424Y-100503522D01*
X136065845Y-100509118D01*
X136065846Y-100509123D01*
X136105607Y-100665678D01*
X136114392Y-100700269D01*
X136116807Y-100705507D01*
X136116809Y-100705512D01*
X136152604Y-100783157D01*
X136199377Y-100884616D01*
X136316533Y-101050389D01*
X136461938Y-101192035D01*
X136630720Y-101304812D01*
X136636023Y-101307090D01*
X136636026Y-101307092D01*
X136811921Y-101382662D01*
X136817228Y-101384942D01*
X136890244Y-101401464D01*
X137009579Y-101428467D01*
X137009584Y-101428468D01*
X137015216Y-101429742D01*
X137020987Y-101429969D01*
X137020989Y-101429969D01*
X137080756Y-101432317D01*
X137218053Y-101437712D01*
X137325348Y-101422155D01*
X137413231Y-101409413D01*
X137413236Y-101409412D01*
X137418945Y-101408584D01*
X137424409Y-101406729D01*
X137424414Y-101406728D01*
X137605693Y-101345192D01*
X137605698Y-101345190D01*
X137611165Y-101343334D01*
X137621010Y-101337821D01*
X137689138Y-101299667D01*
X137788276Y-101244147D01*
X137827969Y-101211135D01*
X137915696Y-101138172D01*
X137944345Y-101114345D01*
X138009488Y-101036020D01*
X138070453Y-100962718D01*
X138070455Y-100962715D01*
X138074147Y-100958276D01*
X138173334Y-100781165D01*
X138175190Y-100775698D01*
X138175192Y-100775693D01*
X138236728Y-100594414D01*
X138236729Y-100594409D01*
X138238584Y-100588945D01*
X138239412Y-100583236D01*
X138239413Y-100583231D01*
X138259512Y-100444610D01*
X138267712Y-100388053D01*
X138269232Y-100330000D01*
X138257366Y-100200858D01*
X138251187Y-100133613D01*
X138251186Y-100133610D01*
X138250658Y-100127859D01*
X138249090Y-100122299D01*
X138197125Y-99938046D01*
X138197124Y-99938044D01*
X138195557Y-99932487D01*
X138190025Y-99921268D01*
X138108331Y-99755609D01*
X138105776Y-99750428D01*
X138091897Y-99731841D01*
X138032761Y-99652649D01*
X137984320Y-99587779D01*
X137835258Y-99449987D01*
X137830375Y-99446906D01*
X137830371Y-99446903D01*
X137680562Y-99352381D01*
X137663581Y-99341667D01*
X137652485Y-99337240D01*
X137570009Y-99304335D01*
X137514150Y-99260514D01*
X137490700Y-99187305D01*
X137490700Y-98934516D01*
X137510702Y-98866395D01*
X137564358Y-98819902D01*
X137576184Y-98815208D01*
X137611165Y-98803334D01*
X137788276Y-98704147D01*
X137827969Y-98671135D01*
X137923176Y-98591951D01*
X137944345Y-98574345D01*
X138009488Y-98496020D01*
X138070453Y-98422718D01*
X138070455Y-98422715D01*
X138074147Y-98418276D01*
X138173334Y-98241165D01*
X138175190Y-98235698D01*
X138175192Y-98235693D01*
X138236728Y-98054414D01*
X138236729Y-98054409D01*
X138238584Y-98048945D01*
X138239412Y-98043236D01*
X138239413Y-98043231D01*
X138267179Y-97851727D01*
X138267712Y-97848053D01*
X138269232Y-97790000D01*
X138250658Y-97587859D01*
X138249090Y-97582299D01*
X138197125Y-97398046D01*
X138197124Y-97398044D01*
X138195557Y-97392487D01*
X138184978Y-97371033D01*
X138108331Y-97215609D01*
X138105776Y-97210428D01*
X138092333Y-97192425D01*
X138049451Y-97135000D01*
X137984320Y-97047779D01*
X137920156Y-96988466D01*
X137915183Y-96983869D01*
X137878738Y-96922941D01*
X137881019Y-96851981D01*
X137921301Y-96793519D01*
X137986796Y-96766116D01*
X138000755Y-96765345D01*
X138858014Y-96765690D01*
X138926125Y-96785719D01*
X138972597Y-96839394D01*
X138982672Y-96909672D01*
X138953153Y-96974241D01*
X138941040Y-96986421D01*
X138899739Y-97022641D01*
X138899729Y-97022652D01*
X138895392Y-97026455D01*
X138769720Y-97185869D01*
X138767031Y-97190980D01*
X138767029Y-97190983D01*
X138755833Y-97212264D01*
X138675203Y-97365515D01*
X138615007Y-97559378D01*
X138591148Y-97760964D01*
X138604424Y-97963522D01*
X138605845Y-97969118D01*
X138605846Y-97969123D01*
X138635536Y-98086024D01*
X138654392Y-98160269D01*
X138656809Y-98165512D01*
X138694010Y-98246208D01*
X138739377Y-98344616D01*
X138742710Y-98349332D01*
X138819788Y-98458395D01*
X138856533Y-98510389D01*
X139001938Y-98652035D01*
X139170720Y-98764812D01*
X139176023Y-98767090D01*
X139176026Y-98767092D01*
X139293038Y-98817364D01*
X139347731Y-98862632D01*
X139369300Y-98933132D01*
X139369300Y-99186836D01*
X139349298Y-99254957D01*
X139295642Y-99301450D01*
X139286914Y-99305047D01*
X139222463Y-99328824D01*
X139048010Y-99432612D01*
X139043670Y-99436418D01*
X139043666Y-99436421D01*
X138899733Y-99562648D01*
X138895392Y-99566455D01*
X138769720Y-99725869D01*
X138767031Y-99730980D01*
X138767029Y-99730983D01*
X138755833Y-99752264D01*
X138675203Y-99905515D01*
X138615007Y-100099378D01*
X138591148Y-100300964D01*
X138604424Y-100503522D01*
X138605845Y-100509118D01*
X138605846Y-100509123D01*
X138645607Y-100665678D01*
X138654392Y-100700269D01*
X138656807Y-100705507D01*
X138656809Y-100705512D01*
X138692604Y-100783157D01*
X138739377Y-100884616D01*
X138856533Y-101050389D01*
X139001938Y-101192035D01*
X139170720Y-101304812D01*
X139176023Y-101307090D01*
X139176026Y-101307092D01*
X139351921Y-101382662D01*
X139357228Y-101384942D01*
X139430244Y-101401464D01*
X139549579Y-101428467D01*
X139549584Y-101428468D01*
X139555216Y-101429742D01*
X139560987Y-101429969D01*
X139560989Y-101429969D01*
X139620756Y-101432317D01*
X139758053Y-101437712D01*
X139865348Y-101422155D01*
X139953231Y-101409413D01*
X139953236Y-101409412D01*
X139958945Y-101408584D01*
X139964409Y-101406729D01*
X139964414Y-101406728D01*
X140145693Y-101345192D01*
X140145698Y-101345190D01*
X140151165Y-101343334D01*
X140161010Y-101337821D01*
X140229138Y-101299667D01*
X140328276Y-101244147D01*
X140367969Y-101211135D01*
X140455696Y-101138172D01*
X140484345Y-101114345D01*
X140549488Y-101036020D01*
X140610453Y-100962718D01*
X140610455Y-100962715D01*
X140614147Y-100958276D01*
X140713334Y-100781165D01*
X140715190Y-100775698D01*
X140715192Y-100775693D01*
X140776728Y-100594414D01*
X140776729Y-100594409D01*
X140778584Y-100588945D01*
X140779412Y-100583236D01*
X140779413Y-100583231D01*
X140799512Y-100444610D01*
X140807712Y-100388053D01*
X140809232Y-100330000D01*
X140797366Y-100200858D01*
X140791187Y-100133613D01*
X140791186Y-100133610D01*
X140790658Y-100127859D01*
X140789090Y-100122299D01*
X140737125Y-99938046D01*
X140737124Y-99938044D01*
X140735557Y-99932487D01*
X140730025Y-99921268D01*
X140648331Y-99755609D01*
X140645776Y-99750428D01*
X140631897Y-99731841D01*
X140572761Y-99652649D01*
X140524320Y-99587779D01*
X140375258Y-99449987D01*
X140370375Y-99446906D01*
X140370371Y-99446903D01*
X140220562Y-99352381D01*
X140203581Y-99341667D01*
X140192485Y-99337240D01*
X140110009Y-99304335D01*
X140054150Y-99260514D01*
X140030700Y-99187305D01*
X140030700Y-98934516D01*
X140050702Y-98866395D01*
X140104358Y-98819902D01*
X140116184Y-98815208D01*
X140151165Y-98803334D01*
X140328276Y-98704147D01*
X140367969Y-98671135D01*
X140463176Y-98591951D01*
X140484345Y-98574345D01*
X140549488Y-98496020D01*
X140610453Y-98422718D01*
X140610455Y-98422715D01*
X140614147Y-98418276D01*
X140713334Y-98241165D01*
X140715190Y-98235698D01*
X140715192Y-98235693D01*
X140776728Y-98054414D01*
X140776729Y-98054409D01*
X140778584Y-98048945D01*
X140779412Y-98043236D01*
X140779413Y-98043231D01*
X140807179Y-97851727D01*
X140807712Y-97848053D01*
X140809232Y-97790000D01*
X140790658Y-97587859D01*
X140789090Y-97582299D01*
X140737125Y-97398046D01*
X140737124Y-97398044D01*
X140735557Y-97392487D01*
X140724978Y-97371033D01*
X140648331Y-97215609D01*
X140645776Y-97210428D01*
X140632333Y-97192425D01*
X140589451Y-97135000D01*
X140524320Y-97047779D01*
X140456287Y-96984890D01*
X140419844Y-96923964D01*
X140422125Y-96853005D01*
X140462407Y-96794542D01*
X140527902Y-96767139D01*
X140541869Y-96766368D01*
X141396848Y-96766712D01*
X141464960Y-96786741D01*
X141511432Y-96840416D01*
X141521507Y-96910694D01*
X141491988Y-96975263D01*
X141479875Y-96987443D01*
X141439739Y-97022642D01*
X141439735Y-97022647D01*
X141435392Y-97026455D01*
X141309720Y-97185869D01*
X141307031Y-97190980D01*
X141307029Y-97190983D01*
X141295833Y-97212264D01*
X141215203Y-97365515D01*
X141155007Y-97559378D01*
X141131148Y-97760964D01*
X141144424Y-97963522D01*
X141145845Y-97969118D01*
X141145846Y-97969123D01*
X141175536Y-98086024D01*
X141194392Y-98160269D01*
X141196809Y-98165512D01*
X141234010Y-98246208D01*
X141279377Y-98344616D01*
X141282710Y-98349332D01*
X141359788Y-98458395D01*
X141396533Y-98510389D01*
X141541938Y-98652035D01*
X141710720Y-98764812D01*
X141716023Y-98767090D01*
X141716026Y-98767092D01*
X141833038Y-98817364D01*
X141887731Y-98862632D01*
X141909300Y-98933132D01*
X141909300Y-99186836D01*
X141889298Y-99254957D01*
X141835642Y-99301450D01*
X141826914Y-99305047D01*
X141762463Y-99328824D01*
X141588010Y-99432612D01*
X141583670Y-99436418D01*
X141583666Y-99436421D01*
X141439733Y-99562648D01*
X141435392Y-99566455D01*
X141309720Y-99725869D01*
X141307031Y-99730980D01*
X141307029Y-99730983D01*
X141295833Y-99752264D01*
X141215203Y-99905515D01*
X141155007Y-100099378D01*
X141131148Y-100300964D01*
X141144424Y-100503522D01*
X141145845Y-100509118D01*
X141145846Y-100509123D01*
X141185607Y-100665678D01*
X141194392Y-100700269D01*
X141196807Y-100705507D01*
X141196809Y-100705512D01*
X141232604Y-100783157D01*
X141279377Y-100884616D01*
X141396533Y-101050389D01*
X141541938Y-101192035D01*
X141710720Y-101304812D01*
X141716023Y-101307090D01*
X141716026Y-101307092D01*
X141891921Y-101382662D01*
X141897228Y-101384942D01*
X141970244Y-101401464D01*
X142089579Y-101428467D01*
X142089584Y-101428468D01*
X142095216Y-101429742D01*
X142100987Y-101429969D01*
X142100989Y-101429969D01*
X142160756Y-101432317D01*
X142298053Y-101437712D01*
X142405348Y-101422155D01*
X142493231Y-101409413D01*
X142493236Y-101409412D01*
X142498945Y-101408584D01*
X142504409Y-101406729D01*
X142504414Y-101406728D01*
X142685693Y-101345192D01*
X142685698Y-101345190D01*
X142691165Y-101343334D01*
X142701010Y-101337821D01*
X142769138Y-101299667D01*
X142868276Y-101244147D01*
X142907969Y-101211135D01*
X142995696Y-101138172D01*
X143024345Y-101114345D01*
X143089488Y-101036020D01*
X143150453Y-100962718D01*
X143150455Y-100962715D01*
X143154147Y-100958276D01*
X143253334Y-100781165D01*
X143255190Y-100775698D01*
X143255192Y-100775693D01*
X143316728Y-100594414D01*
X143316729Y-100594409D01*
X143318584Y-100588945D01*
X143319412Y-100583236D01*
X143319413Y-100583231D01*
X143339512Y-100444610D01*
X143347712Y-100388053D01*
X143349232Y-100330000D01*
X143337366Y-100200858D01*
X143331187Y-100133613D01*
X143331186Y-100133610D01*
X143330658Y-100127859D01*
X143329090Y-100122299D01*
X143277125Y-99938046D01*
X143277124Y-99938044D01*
X143275557Y-99932487D01*
X143270025Y-99921268D01*
X143188331Y-99755609D01*
X143185776Y-99750428D01*
X143171897Y-99731841D01*
X143112761Y-99652649D01*
X143064320Y-99587779D01*
X142915258Y-99449987D01*
X142910375Y-99446906D01*
X142910371Y-99446903D01*
X142760562Y-99352381D01*
X142743581Y-99341667D01*
X142732485Y-99337240D01*
X142650009Y-99304335D01*
X142594150Y-99260514D01*
X142570700Y-99187305D01*
X142570700Y-98934516D01*
X142590702Y-98866395D01*
X142644358Y-98819902D01*
X142656184Y-98815208D01*
X142691165Y-98803334D01*
X142868276Y-98704147D01*
X142907969Y-98671135D01*
X143003176Y-98591951D01*
X143024345Y-98574345D01*
X143089488Y-98496020D01*
X143150453Y-98422718D01*
X143150455Y-98422715D01*
X143154147Y-98418276D01*
X143253334Y-98241165D01*
X143255190Y-98235698D01*
X143255192Y-98235693D01*
X143316728Y-98054414D01*
X143316729Y-98054409D01*
X143318584Y-98048945D01*
X143319412Y-98043236D01*
X143319413Y-98043231D01*
X143347179Y-97851727D01*
X143347712Y-97848053D01*
X143349232Y-97790000D01*
X143330658Y-97587859D01*
X143329090Y-97582299D01*
X143277125Y-97398046D01*
X143277124Y-97398044D01*
X143275557Y-97392487D01*
X143264978Y-97371033D01*
X143188331Y-97215609D01*
X143185776Y-97210428D01*
X143172333Y-97192425D01*
X143129451Y-97135000D01*
X143064320Y-97047779D01*
X142997394Y-96985913D01*
X142960950Y-96924986D01*
X142963231Y-96854026D01*
X143003513Y-96795564D01*
X143069008Y-96768161D01*
X143082969Y-96767390D01*
X143459372Y-96767542D01*
X143935683Y-96767734D01*
X144003795Y-96787764D01*
X144050267Y-96841438D01*
X144060342Y-96911716D01*
X144030823Y-96976285D01*
X144018710Y-96988466D01*
X143975392Y-97026455D01*
X143849720Y-97185869D01*
X143847031Y-97190980D01*
X143847029Y-97190983D01*
X143835833Y-97212264D01*
X143755203Y-97365515D01*
X143695007Y-97559378D01*
X143671148Y-97760964D01*
X143684424Y-97963522D01*
X143685845Y-97969118D01*
X143685846Y-97969123D01*
X143715536Y-98086024D01*
X143734392Y-98160269D01*
X143736809Y-98165512D01*
X143774010Y-98246208D01*
X143819377Y-98344616D01*
X143822710Y-98349332D01*
X143899788Y-98458395D01*
X143936533Y-98510389D01*
X144081938Y-98652035D01*
X144250720Y-98764812D01*
X144256023Y-98767090D01*
X144256026Y-98767092D01*
X144373038Y-98817364D01*
X144427731Y-98862632D01*
X144449300Y-98933132D01*
X144449300Y-99186836D01*
X144429298Y-99254957D01*
X144375642Y-99301450D01*
X144366914Y-99305047D01*
X144302463Y-99328824D01*
X144128010Y-99432612D01*
X144123670Y-99436418D01*
X144123666Y-99436421D01*
X143979733Y-99562648D01*
X143975392Y-99566455D01*
X143849720Y-99725869D01*
X143847031Y-99730980D01*
X143847029Y-99730983D01*
X143835833Y-99752264D01*
X143755203Y-99905515D01*
X143695007Y-100099378D01*
X143671148Y-100300964D01*
X143684424Y-100503522D01*
X143685845Y-100509118D01*
X143685846Y-100509123D01*
X143725607Y-100665678D01*
X143734392Y-100700269D01*
X143736807Y-100705507D01*
X143736809Y-100705512D01*
X143772604Y-100783157D01*
X143819377Y-100884616D01*
X143936533Y-101050389D01*
X144081938Y-101192035D01*
X144250720Y-101304812D01*
X144256023Y-101307090D01*
X144256026Y-101307092D01*
X144431921Y-101382662D01*
X144437228Y-101384942D01*
X144510244Y-101401464D01*
X144629579Y-101428467D01*
X144629584Y-101428468D01*
X144635216Y-101429742D01*
X144640987Y-101429969D01*
X144640989Y-101429969D01*
X144700756Y-101432317D01*
X144838053Y-101437712D01*
X144945348Y-101422155D01*
X145033231Y-101409413D01*
X145033236Y-101409412D01*
X145038945Y-101408584D01*
X145044409Y-101406729D01*
X145044414Y-101406728D01*
X145225693Y-101345192D01*
X145225698Y-101345190D01*
X145231165Y-101343334D01*
X145241010Y-101337821D01*
X145309138Y-101299667D01*
X145408276Y-101244147D01*
X145447969Y-101211135D01*
X145535696Y-101138172D01*
X145564345Y-101114345D01*
X145629488Y-101036020D01*
X145690453Y-100962718D01*
X145690455Y-100962715D01*
X145694147Y-100958276D01*
X145793334Y-100781165D01*
X145795190Y-100775698D01*
X145795192Y-100775693D01*
X145856728Y-100594414D01*
X145856729Y-100594409D01*
X145858584Y-100588945D01*
X145859412Y-100583236D01*
X145859413Y-100583231D01*
X145879512Y-100444610D01*
X145887712Y-100388053D01*
X145889232Y-100330000D01*
X145877366Y-100200858D01*
X145871187Y-100133613D01*
X145871186Y-100133610D01*
X145870658Y-100127859D01*
X145869090Y-100122299D01*
X145817125Y-99938046D01*
X145817124Y-99938044D01*
X145815557Y-99932487D01*
X145810025Y-99921268D01*
X145728331Y-99755609D01*
X145725776Y-99750428D01*
X145711897Y-99731841D01*
X145652761Y-99652649D01*
X145604320Y-99587779D01*
X145455258Y-99449987D01*
X145450375Y-99446906D01*
X145450371Y-99446903D01*
X145300562Y-99352381D01*
X145283581Y-99341667D01*
X145272485Y-99337240D01*
X145190009Y-99304335D01*
X145134150Y-99260514D01*
X145110700Y-99187305D01*
X145110700Y-98934516D01*
X145130702Y-98866395D01*
X145184358Y-98819902D01*
X145196184Y-98815208D01*
X145231165Y-98803334D01*
X145408276Y-98704147D01*
X145447969Y-98671135D01*
X145543176Y-98591951D01*
X145564345Y-98574345D01*
X145629488Y-98496020D01*
X145690453Y-98422718D01*
X145690455Y-98422715D01*
X145694147Y-98418276D01*
X145793334Y-98241165D01*
X145795190Y-98235698D01*
X145795192Y-98235693D01*
X145856728Y-98054414D01*
X145856729Y-98054409D01*
X145858584Y-98048945D01*
X145859412Y-98043236D01*
X145859413Y-98043231D01*
X145887179Y-97851727D01*
X145887712Y-97848053D01*
X145889232Y-97790000D01*
X145870658Y-97587859D01*
X145869090Y-97582299D01*
X145817125Y-97398046D01*
X145817124Y-97398044D01*
X145815557Y-97392487D01*
X145804978Y-97371033D01*
X145728331Y-97215609D01*
X145725776Y-97210428D01*
X145712333Y-97192425D01*
X145669451Y-97135000D01*
X145604320Y-97047779D01*
X145542364Y-96990507D01*
X145538502Y-96986937D01*
X145502057Y-96926009D01*
X145504338Y-96855049D01*
X145544621Y-96796587D01*
X145610116Y-96769184D01*
X145624082Y-96768413D01*
X146090703Y-96768601D01*
X146474520Y-96768755D01*
X146542631Y-96788784D01*
X146589103Y-96842459D01*
X146599178Y-96912737D01*
X146569659Y-96977306D01*
X146557545Y-96989487D01*
X146519738Y-97022643D01*
X146519734Y-97022647D01*
X146515392Y-97026455D01*
X146389720Y-97185869D01*
X146387031Y-97190980D01*
X146387029Y-97190983D01*
X146375833Y-97212264D01*
X146295203Y-97365515D01*
X146235007Y-97559378D01*
X146211148Y-97760964D01*
X146224424Y-97963522D01*
X146225845Y-97969118D01*
X146225846Y-97969123D01*
X146255536Y-98086024D01*
X146274392Y-98160269D01*
X146276809Y-98165512D01*
X146314010Y-98246208D01*
X146359377Y-98344616D01*
X146362710Y-98349332D01*
X146439788Y-98458395D01*
X146476533Y-98510389D01*
X146621938Y-98652035D01*
X146790720Y-98764812D01*
X146796023Y-98767090D01*
X146796026Y-98767092D01*
X146913038Y-98817364D01*
X146967731Y-98862632D01*
X146989300Y-98933132D01*
X146989300Y-99186836D01*
X146969298Y-99254957D01*
X146915642Y-99301450D01*
X146906914Y-99305047D01*
X146842463Y-99328824D01*
X146668010Y-99432612D01*
X146663670Y-99436418D01*
X146663666Y-99436421D01*
X146519733Y-99562648D01*
X146515392Y-99566455D01*
X146389720Y-99725869D01*
X146387031Y-99730980D01*
X146387029Y-99730983D01*
X146375833Y-99752264D01*
X146295203Y-99905515D01*
X146235007Y-100099378D01*
X146211148Y-100300964D01*
X146224424Y-100503522D01*
X146225845Y-100509118D01*
X146225846Y-100509123D01*
X146265607Y-100665678D01*
X146274392Y-100700269D01*
X146303152Y-100762655D01*
X146313507Y-100832889D01*
X146284245Y-100897575D01*
X146277821Y-100904499D01*
X145354476Y-101827844D01*
X145292164Y-101861870D01*
X145218693Y-101855779D01*
X145095039Y-101806446D01*
X145089379Y-101805320D01*
X145089375Y-101805319D01*
X144901613Y-101767971D01*
X144901610Y-101767971D01*
X144895946Y-101766844D01*
X144890171Y-101766768D01*
X144890167Y-101766768D01*
X144788793Y-101765441D01*
X144692971Y-101764187D01*
X144687274Y-101765166D01*
X144687273Y-101765166D01*
X144539839Y-101790500D01*
X144492910Y-101798564D01*
X144302463Y-101868824D01*
X144128010Y-101972612D01*
X144123670Y-101976418D01*
X144123666Y-101976421D01*
X144047862Y-102042900D01*
X143975392Y-102106455D01*
X143849720Y-102265869D01*
X143847031Y-102270980D01*
X143847029Y-102270983D01*
X143806418Y-102348172D01*
X143755203Y-102445515D01*
X143695007Y-102639378D01*
X143671148Y-102840964D01*
X143684424Y-103043522D01*
X143685845Y-103049118D01*
X143685846Y-103049123D01*
X143734144Y-103239293D01*
X143731526Y-103310242D01*
X143690966Y-103368512D01*
X143625341Y-103395603D01*
X143555487Y-103382914D01*
X143522926Y-103359404D01*
X142802042Y-102638520D01*
X142786689Y-102619511D01*
X142785722Y-102618448D01*
X142780071Y-102609696D01*
X142753528Y-102588771D01*
X142749053Y-102584794D01*
X142748992Y-102584865D01*
X142745035Y-102581512D01*
X142741352Y-102577829D01*
X142725561Y-102566545D01*
X142720815Y-102562982D01*
X142688507Y-102537512D01*
X142688506Y-102537511D01*
X142680330Y-102531066D01*
X142671643Y-102528015D01*
X142664157Y-102522666D01*
X142654181Y-102519683D01*
X142654180Y-102519682D01*
X142614789Y-102507902D01*
X142609157Y-102506072D01*
X142560498Y-102488984D01*
X142554909Y-102488500D01*
X142552198Y-102488500D01*
X142549531Y-102488385D01*
X142549468Y-102488366D01*
X142549475Y-102488192D01*
X142548729Y-102488145D01*
X142542476Y-102486275D01*
X142493692Y-102488192D01*
X142488322Y-102488403D01*
X142483375Y-102488500D01*
X135395308Y-102488500D01*
X135327187Y-102468498D01*
X135306210Y-102451593D01*
X135305100Y-102450483D01*
X135300071Y-102443929D01*
X135175278Y-102348172D01*
X135029953Y-102287977D01*
X134874000Y-102267445D01*
X134718047Y-102287977D01*
X134572723Y-102348172D01*
X134447929Y-102443929D01*
X134352172Y-102568723D01*
X134291977Y-102714047D01*
X134271445Y-102870000D01*
X134291977Y-103025953D01*
X134352172Y-103171277D01*
X134447929Y-103296071D01*
X134572722Y-103391828D01*
X134718047Y-103452023D01*
X134874000Y-103472555D01*
X135029953Y-103452023D01*
X135175278Y-103391828D01*
X135300071Y-103296071D01*
X135305100Y-103289517D01*
X135306210Y-103288407D01*
X135368521Y-103254380D01*
X135395308Y-103251500D01*
X142283788Y-103251500D01*
X142351909Y-103271502D01*
X142372883Y-103288405D01*
X143416469Y-104331991D01*
X143431822Y-104351000D01*
X143432789Y-104352063D01*
X143438440Y-104360815D01*
X143463996Y-104380962D01*
X143464983Y-104381740D01*
X143469461Y-104385719D01*
X143469521Y-104385648D01*
X143473478Y-104389001D01*
X143477159Y-104392682D01*
X143481391Y-104395706D01*
X143481393Y-104395708D01*
X143492968Y-104403980D01*
X143497713Y-104407543D01*
X143538181Y-104439445D01*
X143546866Y-104442495D01*
X143554353Y-104447845D01*
X143603758Y-104462620D01*
X143609353Y-104464438D01*
X143658013Y-104481527D01*
X143663602Y-104482011D01*
X143666315Y-104482011D01*
X143668980Y-104482126D01*
X143669043Y-104482145D01*
X143669036Y-104482319D01*
X143669782Y-104482366D01*
X143676035Y-104484236D01*
X143725894Y-104482277D01*
X143730189Y-104482108D01*
X143735136Y-104482011D01*
X143845254Y-104482011D01*
X143913375Y-104502013D01*
X143959868Y-104555669D01*
X143969972Y-104625943D01*
X143944204Y-104686016D01*
X143849720Y-104805869D01*
X143847031Y-104810980D01*
X143847029Y-104810983D01*
X143834073Y-104835609D01*
X143755203Y-104985515D01*
X143695007Y-105179378D01*
X143671148Y-105380964D01*
X143684424Y-105583522D01*
X143685845Y-105589118D01*
X143685846Y-105589123D01*
X143706119Y-105668945D01*
X143734392Y-105780269D01*
X143736809Y-105785512D01*
X143774010Y-105866208D01*
X143819377Y-105964616D01*
X143936533Y-106130389D01*
X144081938Y-106272035D01*
X144250720Y-106384812D01*
X144256023Y-106387090D01*
X144256026Y-106387092D01*
X144378415Y-106439674D01*
X144437228Y-106464942D01*
X144510244Y-106481464D01*
X144629579Y-106508467D01*
X144629584Y-106508468D01*
X144635216Y-106509742D01*
X144640987Y-106509969D01*
X144640989Y-106509969D01*
X144700756Y-106512317D01*
X144838053Y-106517712D01*
X144938499Y-106503148D01*
X145033231Y-106489413D01*
X145033236Y-106489412D01*
X145038945Y-106488584D01*
X145044409Y-106486729D01*
X145044414Y-106486728D01*
X145225693Y-106425192D01*
X145225698Y-106425190D01*
X145231165Y-106423334D01*
X145237876Y-106419576D01*
X145305683Y-106381602D01*
X145408276Y-106324147D01*
X145470934Y-106272035D01*
X145559913Y-106198031D01*
X145564345Y-106194345D01*
X145694147Y-106038276D01*
X145793334Y-105861165D01*
X145795190Y-105855698D01*
X145795192Y-105855693D01*
X145856728Y-105674414D01*
X145856729Y-105674409D01*
X145858584Y-105668945D01*
X145859412Y-105663236D01*
X145859413Y-105663231D01*
X145887179Y-105471727D01*
X145887712Y-105468053D01*
X145889232Y-105410000D01*
X145870658Y-105207859D01*
X145869090Y-105202299D01*
X145817125Y-105018046D01*
X145817124Y-105018044D01*
X145815557Y-105012487D01*
X145804978Y-104991033D01*
X145728331Y-104835609D01*
X145725776Y-104830428D01*
X145615985Y-104683400D01*
X145591253Y-104616850D01*
X145606427Y-104547494D01*
X145656689Y-104497352D01*
X145716943Y-104482011D01*
X151877354Y-104482011D01*
X151901653Y-104484597D01*
X151903091Y-104484665D01*
X151913269Y-104486856D01*
X151946830Y-104482884D01*
X151952809Y-104482532D01*
X151952801Y-104482439D01*
X151957979Y-104482011D01*
X151963181Y-104482011D01*
X151982335Y-104478823D01*
X151988193Y-104477989D01*
X152004807Y-104476023D01*
X152029056Y-104473153D01*
X152029057Y-104473153D01*
X152039396Y-104471929D01*
X152047695Y-104467944D01*
X152056772Y-104466433D01*
X152102140Y-104441953D01*
X152107403Y-104439272D01*
X152146739Y-104420384D01*
X152146743Y-104420381D01*
X152153887Y-104416951D01*
X152158181Y-104413341D01*
X152160113Y-104411409D01*
X152162062Y-104409622D01*
X152162115Y-104409593D01*
X152162234Y-104409723D01*
X152162802Y-104409222D01*
X152168546Y-104406123D01*
X152178174Y-104395708D01*
X152205343Y-104366316D01*
X152208773Y-104362749D01*
X152555142Y-104016381D01*
X152617454Y-103982356D01*
X152644237Y-103979477D01*
X152645812Y-103979477D01*
X152654000Y-103980555D01*
X152809953Y-103960023D01*
X152955278Y-103899828D01*
X153080071Y-103804071D01*
X153175828Y-103679277D01*
X153236023Y-103533953D01*
X153256555Y-103378000D01*
X153236023Y-103222047D01*
X153175828Y-103076723D01*
X153080071Y-102951929D01*
X152955278Y-102856172D01*
X152809953Y-102795977D01*
X152654000Y-102775445D01*
X152498047Y-102795977D01*
X152352723Y-102856172D01*
X152227929Y-102951929D01*
X152132172Y-103076723D01*
X152071977Y-103222047D01*
X152051445Y-103378000D01*
X152052523Y-103386188D01*
X152052523Y-103387764D01*
X152032521Y-103455885D01*
X152015618Y-103476859D01*
X151810371Y-103682106D01*
X151748059Y-103716132D01*
X151721276Y-103719011D01*
X145779240Y-103719011D01*
X145711119Y-103699009D01*
X145664626Y-103645353D01*
X145654522Y-103575079D01*
X145682366Y-103512441D01*
X145690453Y-103502718D01*
X145690455Y-103502715D01*
X145694147Y-103498276D01*
X145793334Y-103321165D01*
X145795190Y-103315698D01*
X145795192Y-103315693D01*
X145856728Y-103134414D01*
X145856729Y-103134409D01*
X145858584Y-103128945D01*
X145859412Y-103123236D01*
X145859413Y-103123231D01*
X145887179Y-102931727D01*
X145887712Y-102928053D01*
X145889232Y-102870000D01*
X145870658Y-102667859D01*
X145869090Y-102662299D01*
X145817125Y-102478046D01*
X145817124Y-102478044D01*
X145815557Y-102472487D01*
X145812002Y-102465279D01*
X145799224Y-102439365D01*
X145787036Y-102369422D01*
X145814596Y-102303993D01*
X145823136Y-102294544D01*
X146745833Y-101371847D01*
X146808145Y-101337821D01*
X146884665Y-101345174D01*
X146977228Y-101384942D01*
X147050244Y-101401464D01*
X147169579Y-101428467D01*
X147169584Y-101428468D01*
X147175216Y-101429742D01*
X147180987Y-101429969D01*
X147180989Y-101429969D01*
X147240756Y-101432317D01*
X147378053Y-101437712D01*
X147485348Y-101422155D01*
X147573231Y-101409413D01*
X147573236Y-101409412D01*
X147578945Y-101408584D01*
X147584409Y-101406729D01*
X147584414Y-101406728D01*
X147765693Y-101345192D01*
X147765698Y-101345190D01*
X147771165Y-101343334D01*
X147781010Y-101337821D01*
X147849138Y-101299667D01*
X147948276Y-101244147D01*
X147987969Y-101211135D01*
X148075696Y-101138172D01*
X148104345Y-101114345D01*
X148169488Y-101036020D01*
X148230453Y-100962718D01*
X148230455Y-100962715D01*
X148234147Y-100958276D01*
X148333334Y-100781165D01*
X148335190Y-100775698D01*
X148335192Y-100775693D01*
X148396728Y-100594414D01*
X148396729Y-100594409D01*
X148398584Y-100588945D01*
X148399412Y-100583236D01*
X148399413Y-100583231D01*
X148419512Y-100444610D01*
X148427712Y-100388053D01*
X148429232Y-100330000D01*
X148417366Y-100200858D01*
X148411187Y-100133613D01*
X148411186Y-100133610D01*
X148410658Y-100127859D01*
X148409090Y-100122299D01*
X148357125Y-99938046D01*
X148357124Y-99938044D01*
X148355557Y-99932487D01*
X148350025Y-99921268D01*
X148268331Y-99755609D01*
X148265776Y-99750428D01*
X148251897Y-99731841D01*
X148192761Y-99652649D01*
X148144320Y-99587779D01*
X147995258Y-99449987D01*
X147990375Y-99446906D01*
X147990371Y-99446903D01*
X147840562Y-99352381D01*
X147823581Y-99341667D01*
X147812485Y-99337240D01*
X147730009Y-99304335D01*
X147674150Y-99260514D01*
X147650700Y-99187305D01*
X147650700Y-98934516D01*
X147670702Y-98866395D01*
X147724358Y-98819902D01*
X147736184Y-98815208D01*
X147771165Y-98803334D01*
X147948276Y-98704147D01*
X147987969Y-98671135D01*
X148083176Y-98591951D01*
X148104345Y-98574345D01*
X148169488Y-98496020D01*
X148230453Y-98422718D01*
X148230455Y-98422715D01*
X148234147Y-98418276D01*
X148333334Y-98241165D01*
X148335190Y-98235698D01*
X148335192Y-98235693D01*
X148396728Y-98054414D01*
X148396729Y-98054409D01*
X148398584Y-98048945D01*
X148399412Y-98043236D01*
X148399413Y-98043231D01*
X148427179Y-97851727D01*
X148427712Y-97848053D01*
X148429232Y-97790000D01*
X148410658Y-97587859D01*
X148409090Y-97582299D01*
X148357125Y-97398046D01*
X148357124Y-97398044D01*
X148355557Y-97392487D01*
X148344978Y-97371033D01*
X148268331Y-97215609D01*
X148265776Y-97210428D01*
X148252333Y-97192425D01*
X148209451Y-97135000D01*
X148144320Y-97047779D01*
X148079605Y-96987957D01*
X148043162Y-96927031D01*
X148045443Y-96856071D01*
X148085725Y-96797609D01*
X148151220Y-96770206D01*
X148165187Y-96769435D01*
X149013354Y-96769776D01*
X149081466Y-96789805D01*
X149127938Y-96843480D01*
X149138013Y-96913758D01*
X149108494Y-96978327D01*
X149096381Y-96990507D01*
X149059739Y-97022641D01*
X149059729Y-97022652D01*
X149055392Y-97026455D01*
X148929720Y-97185869D01*
X148927031Y-97190980D01*
X148927029Y-97190983D01*
X148915833Y-97212264D01*
X148835203Y-97365515D01*
X148775007Y-97559378D01*
X148751148Y-97760964D01*
X148764424Y-97963522D01*
X148765845Y-97969118D01*
X148765846Y-97969123D01*
X148795536Y-98086024D01*
X148814392Y-98160269D01*
X148816809Y-98165512D01*
X148854010Y-98246208D01*
X148899377Y-98344616D01*
X148902710Y-98349332D01*
X148979788Y-98458395D01*
X149016533Y-98510389D01*
X149161938Y-98652035D01*
X149330720Y-98764812D01*
X149336023Y-98767090D01*
X149336026Y-98767092D01*
X149453038Y-98817364D01*
X149507731Y-98862632D01*
X149529300Y-98933132D01*
X149529300Y-99186836D01*
X149509298Y-99254957D01*
X149455642Y-99301450D01*
X149446914Y-99305047D01*
X149382463Y-99328824D01*
X149208010Y-99432612D01*
X149203670Y-99436418D01*
X149203666Y-99436421D01*
X149059733Y-99562648D01*
X149055392Y-99566455D01*
X148929720Y-99725869D01*
X148927031Y-99730980D01*
X148927029Y-99730983D01*
X148915833Y-99752264D01*
X148835203Y-99905515D01*
X148775007Y-100099378D01*
X148751148Y-100300964D01*
X148764424Y-100503522D01*
X148765845Y-100509118D01*
X148765846Y-100509123D01*
X148805607Y-100665678D01*
X148814392Y-100700269D01*
X148816807Y-100705507D01*
X148816809Y-100705512D01*
X148852604Y-100783157D01*
X148899377Y-100884616D01*
X149016533Y-101050389D01*
X149161938Y-101192035D01*
X149330720Y-101304812D01*
X149336023Y-101307090D01*
X149336026Y-101307092D01*
X149511921Y-101382662D01*
X149517228Y-101384942D01*
X149590244Y-101401464D01*
X149709579Y-101428467D01*
X149709584Y-101428468D01*
X149715216Y-101429742D01*
X149720987Y-101429969D01*
X149720989Y-101429969D01*
X149780756Y-101432317D01*
X149918053Y-101437712D01*
X150025348Y-101422155D01*
X150113231Y-101409413D01*
X150113236Y-101409412D01*
X150118945Y-101408584D01*
X150124409Y-101406729D01*
X150124414Y-101406728D01*
X150305693Y-101345192D01*
X150305698Y-101345190D01*
X150311165Y-101343334D01*
X150321010Y-101337821D01*
X150389138Y-101299667D01*
X150488276Y-101244147D01*
X150527969Y-101211135D01*
X150615696Y-101138172D01*
X150644345Y-101114345D01*
X150709488Y-101036020D01*
X150770453Y-100962718D01*
X150770455Y-100962715D01*
X150774147Y-100958276D01*
X150873334Y-100781165D01*
X150875190Y-100775698D01*
X150875192Y-100775693D01*
X150936728Y-100594414D01*
X150936729Y-100594409D01*
X150938584Y-100588945D01*
X150939412Y-100583236D01*
X150939413Y-100583231D01*
X150959512Y-100444610D01*
X150967712Y-100388053D01*
X150969232Y-100330000D01*
X150957366Y-100200858D01*
X150951187Y-100133613D01*
X150951186Y-100133610D01*
X150950658Y-100127859D01*
X150949090Y-100122299D01*
X150897125Y-99938046D01*
X150897124Y-99938044D01*
X150895557Y-99932487D01*
X150890025Y-99921268D01*
X150808331Y-99755609D01*
X150805776Y-99750428D01*
X150791897Y-99731841D01*
X150732761Y-99652649D01*
X150684320Y-99587779D01*
X150538172Y-99452681D01*
X156391513Y-99452681D01*
X156392094Y-99457701D01*
X156392094Y-99457705D01*
X156404237Y-99562648D01*
X156419340Y-99693180D01*
X156420719Y-99698054D01*
X156420720Y-99698058D01*
X156480986Y-99911033D01*
X156485260Y-99926137D01*
X156587578Y-100145557D01*
X156590419Y-100149738D01*
X156590420Y-100149739D01*
X156625161Y-100200858D01*
X156624545Y-100201276D01*
X156625709Y-100202424D01*
X156625894Y-100202285D01*
X156625924Y-100202325D01*
X156626586Y-100203207D01*
X156626786Y-100203486D01*
X156626823Y-100203523D01*
X156628382Y-100205599D01*
X156629798Y-100207683D01*
X156629887Y-100207824D01*
X156630024Y-100208015D01*
X156723660Y-100345797D01*
X156727137Y-100349474D01*
X156727142Y-100349480D01*
X156772126Y-100397048D01*
X156771573Y-100397571D01*
X156773590Y-100398998D01*
X156774072Y-100399640D01*
X156777798Y-100403201D01*
X156778129Y-100403574D01*
X156781505Y-100406967D01*
X156823961Y-100451862D01*
X156890007Y-100521703D01*
X156894024Y-100524774D01*
X156894027Y-100524777D01*
X156948567Y-100566476D01*
X156949073Y-100566874D01*
X156952457Y-100570108D01*
X156956729Y-100573022D01*
X156957634Y-100573640D01*
X156963155Y-100577630D01*
X157078316Y-100665678D01*
X157078327Y-100665685D01*
X157082337Y-100668751D01*
X157146775Y-100703302D01*
X157149410Y-100704758D01*
X157152018Y-100706240D01*
X157156289Y-100709153D01*
X157160975Y-100711328D01*
X157160978Y-100711330D01*
X157163416Y-100712462D01*
X157169901Y-100715703D01*
X157295704Y-100783157D01*
X157300489Y-100784805D01*
X157300490Y-100784805D01*
X157367073Y-100807731D01*
X157370532Y-100809125D01*
X157370550Y-100809075D01*
X157375392Y-100810857D01*
X157380093Y-100813039D01*
X157388712Y-100815429D01*
X157396025Y-100817701D01*
X157524618Y-100861979D01*
X157529607Y-100862841D01*
X157529608Y-100862841D01*
X157603134Y-100875541D01*
X157608977Y-100876852D01*
X157612877Y-100877596D01*
X157617860Y-100878978D01*
X157627392Y-100879997D01*
X157635417Y-100881117D01*
X157763189Y-100903187D01*
X157767150Y-100903367D01*
X157767151Y-100903367D01*
X157790773Y-100904440D01*
X157790792Y-100904440D01*
X157792192Y-100904504D01*
X157960830Y-100904504D01*
X157963338Y-100904302D01*
X157963343Y-100904302D01*
X158136272Y-100890389D01*
X158136277Y-100890388D01*
X158141313Y-100889983D01*
X158146221Y-100888778D01*
X158146224Y-100888777D01*
X158371514Y-100833440D01*
X158376428Y-100832233D01*
X158381080Y-100830258D01*
X158381084Y-100830257D01*
X158594631Y-100739611D01*
X158594632Y-100739611D01*
X158599286Y-100737635D01*
X158804152Y-100608624D01*
X158985757Y-100448518D01*
X159139428Y-100261436D01*
X159261211Y-100052192D01*
X159293485Y-99968115D01*
X159346158Y-99830898D01*
X159346159Y-99830895D01*
X159347973Y-99826169D01*
X159397482Y-99589181D01*
X159408465Y-99347327D01*
X159407563Y-99339525D01*
X159390553Y-99192517D01*
X159380638Y-99106828D01*
X159365117Y-99051976D01*
X159316096Y-98878740D01*
X159316095Y-98878738D01*
X159314718Y-98873871D01*
X159299300Y-98840806D01*
X159214537Y-98659034D01*
X159212400Y-98654451D01*
X159174817Y-98599150D01*
X159175433Y-98598732D01*
X159174269Y-98597584D01*
X159174084Y-98597723D01*
X159173980Y-98597584D01*
X159173392Y-98596801D01*
X159173192Y-98596522D01*
X159173155Y-98596485D01*
X159171596Y-98594409D01*
X159170180Y-98592325D01*
X159170091Y-98592184D01*
X159169954Y-98591993D01*
X159076318Y-98454211D01*
X159072841Y-98450534D01*
X159072836Y-98450528D01*
X159027852Y-98402960D01*
X159028405Y-98402437D01*
X159026388Y-98401010D01*
X159025906Y-98400368D01*
X159022180Y-98396807D01*
X159021849Y-98396434D01*
X159018473Y-98393041D01*
X158913447Y-98281981D01*
X158909971Y-98278305D01*
X158905954Y-98275234D01*
X158905951Y-98275231D01*
X158851411Y-98233532D01*
X158850905Y-98233134D01*
X158847521Y-98229900D01*
X158843249Y-98226986D01*
X158842344Y-98226368D01*
X158836823Y-98222378D01*
X158721662Y-98134330D01*
X158721651Y-98134323D01*
X158717641Y-98131257D01*
X158653203Y-98096706D01*
X158650568Y-98095250D01*
X158647960Y-98093768D01*
X158643689Y-98090855D01*
X158639003Y-98088680D01*
X158639000Y-98088678D01*
X158636562Y-98087546D01*
X158630070Y-98084302D01*
X158594205Y-98065071D01*
X158504274Y-98016851D01*
X158432902Y-97992276D01*
X158429446Y-97990883D01*
X158429428Y-97990933D01*
X158424586Y-97989151D01*
X158419885Y-97986969D01*
X158411266Y-97984579D01*
X158403953Y-97982307D01*
X158275360Y-97938029D01*
X158270371Y-97937167D01*
X158270370Y-97937167D01*
X158196844Y-97924467D01*
X158191001Y-97923156D01*
X158187101Y-97922412D01*
X158182118Y-97921030D01*
X158172586Y-97920011D01*
X158164561Y-97918891D01*
X158036789Y-97896821D01*
X158032828Y-97896641D01*
X158032827Y-97896641D01*
X158009205Y-97895568D01*
X158009186Y-97895568D01*
X158007786Y-97895504D01*
X157839148Y-97895504D01*
X157836640Y-97895706D01*
X157836635Y-97895706D01*
X157663706Y-97909619D01*
X157663701Y-97909620D01*
X157658665Y-97910025D01*
X157653757Y-97911230D01*
X157653754Y-97911231D01*
X157537940Y-97939678D01*
X157423550Y-97967775D01*
X157418898Y-97969750D01*
X157418894Y-97969751D01*
X157232326Y-98048945D01*
X157200692Y-98062373D01*
X156995826Y-98191384D01*
X156814221Y-98351490D01*
X156660550Y-98538572D01*
X156538767Y-98747816D01*
X156536954Y-98752539D01*
X156467100Y-98934516D01*
X156452005Y-98973839D01*
X156402496Y-99210827D01*
X156402267Y-99215877D01*
X156402266Y-99215882D01*
X156397777Y-99314748D01*
X156391513Y-99452681D01*
X150538172Y-99452681D01*
X150535258Y-99449987D01*
X150530375Y-99446906D01*
X150530371Y-99446903D01*
X150380562Y-99352381D01*
X150363581Y-99341667D01*
X150352485Y-99337240D01*
X150270009Y-99304335D01*
X150214150Y-99260514D01*
X150190700Y-99187305D01*
X150190700Y-98934516D01*
X150210702Y-98866395D01*
X150264358Y-98819902D01*
X150276184Y-98815208D01*
X150311165Y-98803334D01*
X150488276Y-98704147D01*
X150527969Y-98671135D01*
X150623176Y-98591951D01*
X150644345Y-98574345D01*
X150709488Y-98496020D01*
X150770453Y-98422718D01*
X150770455Y-98422715D01*
X150774147Y-98418276D01*
X150873334Y-98241165D01*
X150875190Y-98235698D01*
X150875192Y-98235693D01*
X150936728Y-98054414D01*
X150936729Y-98054409D01*
X150938584Y-98048945D01*
X150939412Y-98043236D01*
X150939413Y-98043231D01*
X150967179Y-97851727D01*
X150967712Y-97848053D01*
X150969232Y-97790000D01*
X150950658Y-97587859D01*
X150949090Y-97582299D01*
X150897125Y-97398046D01*
X150897124Y-97398044D01*
X150895557Y-97392487D01*
X150884978Y-97371033D01*
X150808331Y-97215609D01*
X150805776Y-97210428D01*
X150792333Y-97192425D01*
X150749451Y-97135000D01*
X150684320Y-97047779D01*
X150620713Y-96988981D01*
X150584268Y-96928055D01*
X150586548Y-96857095D01*
X150626831Y-96798633D01*
X150692325Y-96771229D01*
X150706293Y-96770458D01*
X159162140Y-96773859D01*
X159474549Y-96773985D01*
X159499078Y-96776406D01*
X159499827Y-96776555D01*
X159499828Y-96776555D01*
X159512000Y-96778976D01*
X159523918Y-96776605D01*
X159539594Y-96777633D01*
X159594163Y-96784817D01*
X159625934Y-96793330D01*
X159631329Y-96795564D01*
X159687174Y-96818696D01*
X159715659Y-96835142D01*
X159768247Y-96875494D01*
X159791506Y-96898753D01*
X159831858Y-96951341D01*
X159848304Y-96979826D01*
X159850403Y-96984893D01*
X159869498Y-97030991D01*
X159873670Y-97041064D01*
X159882183Y-97072837D01*
X159889367Y-97127406D01*
X159890395Y-97143082D01*
X159888024Y-97155000D01*
X159890445Y-97167170D01*
X159890579Y-97167844D01*
X159893000Y-97192425D01*
X159893000Y-101562575D01*
X159890579Y-101587153D01*
X159888024Y-101600000D01*
X159890395Y-101611918D01*
X159889367Y-101627594D01*
X159882183Y-101682163D01*
X159873670Y-101713936D01*
X159848304Y-101775174D01*
X159831858Y-101803659D01*
X159791506Y-101856247D01*
X159768247Y-101879506D01*
X159715659Y-101919858D01*
X159687174Y-101936304D01*
X159673783Y-101941851D01*
X159625934Y-101961670D01*
X159594163Y-101970183D01*
X159539594Y-101977367D01*
X159523918Y-101978395D01*
X159512000Y-101976024D01*
X159499153Y-101978579D01*
X159474575Y-101981000D01*
X158172425Y-101981000D01*
X158147847Y-101978579D01*
X158135000Y-101976024D01*
X158128278Y-101977361D01*
X157960726Y-101993863D01*
X157793149Y-102044697D01*
X157787694Y-102047613D01*
X157787691Y-102047614D01*
X157677607Y-102106455D01*
X157638708Y-102127247D01*
X157503341Y-102238341D01*
X157392247Y-102373708D01*
X157389330Y-102379166D01*
X157389329Y-102379167D01*
X157312628Y-102522666D01*
X157309697Y-102528149D01*
X157258863Y-102695726D01*
X157242361Y-102863278D01*
X157241024Y-102870000D01*
X157243445Y-102882170D01*
X157243579Y-102882844D01*
X157246000Y-102907425D01*
X157246000Y-112992575D01*
X157243579Y-113017153D01*
X157241024Y-113030000D01*
X157242361Y-113036722D01*
X157258863Y-113204274D01*
X157309697Y-113371851D01*
X157312613Y-113377306D01*
X157312614Y-113377309D01*
X157328677Y-113407361D01*
X157392247Y-113526292D01*
X157503341Y-113661659D01*
X157638708Y-113772753D01*
X157644166Y-113775670D01*
X157644167Y-113775671D01*
X157787691Y-113852386D01*
X157787694Y-113852387D01*
X157793149Y-113855303D01*
X157960726Y-113906137D01*
X158128278Y-113922639D01*
X158135000Y-113923976D01*
X158147847Y-113921421D01*
X158172425Y-113919000D01*
X159474575Y-113919000D01*
X159499153Y-113921421D01*
X159512000Y-113923976D01*
X159523918Y-113921605D01*
X159539594Y-113922633D01*
X159594163Y-113929817D01*
X159625934Y-113938330D01*
X159656555Y-113951013D01*
X159687174Y-113963696D01*
X159715659Y-113980142D01*
X159768247Y-114020494D01*
X159791506Y-114043753D01*
X159831858Y-114096341D01*
X159848304Y-114124826D01*
X159873670Y-114186064D01*
X159882183Y-114217837D01*
X159889367Y-114272406D01*
X159890395Y-114288082D01*
X159888024Y-114300000D01*
X159890445Y-114312170D01*
X159890579Y-114312844D01*
X159893000Y-114337425D01*
X159893000Y-118707575D01*
X159890579Y-118732153D01*
X159888024Y-118745000D01*
X159890395Y-118756918D01*
X159889367Y-118772594D01*
X159882183Y-118827163D01*
X159873670Y-118858936D01*
X159848304Y-118920174D01*
X159831858Y-118948659D01*
X159791506Y-119001247D01*
X159768247Y-119024506D01*
X159715659Y-119064858D01*
X159687174Y-119081304D01*
X159678705Y-119084812D01*
X159625934Y-119106670D01*
X159594163Y-119115183D01*
X159539594Y-119122367D01*
X159523918Y-119123395D01*
X159512000Y-119121024D01*
X159499828Y-119123445D01*
X159499827Y-119123445D01*
X159499078Y-119123594D01*
X159474549Y-119126015D01*
X153251379Y-119128519D01*
X153183251Y-119108544D01*
X153136736Y-119054907D01*
X153126604Y-118984638D01*
X153156071Y-118920045D01*
X153170757Y-118905647D01*
X153179909Y-118898035D01*
X153179915Y-118898029D01*
X153184345Y-118894345D01*
X153268971Y-118792594D01*
X153310453Y-118742718D01*
X153310455Y-118742715D01*
X153314147Y-118738276D01*
X153413334Y-118561165D01*
X153415190Y-118555698D01*
X153415192Y-118555693D01*
X153476728Y-118374414D01*
X153476729Y-118374409D01*
X153478584Y-118368945D01*
X153479412Y-118363236D01*
X153479413Y-118363231D01*
X153507179Y-118171727D01*
X153507712Y-118168053D01*
X153509232Y-118110000D01*
X153490658Y-117907859D01*
X153489090Y-117902299D01*
X153437125Y-117718046D01*
X153437124Y-117718044D01*
X153435557Y-117712487D01*
X153424978Y-117691033D01*
X153348331Y-117535609D01*
X153345776Y-117530428D01*
X153224320Y-117367779D01*
X153075258Y-117229987D01*
X153070375Y-117226906D01*
X153070371Y-117226903D01*
X152908464Y-117124748D01*
X152903581Y-117121667D01*
X152898212Y-117119525D01*
X152810009Y-117084335D01*
X152754150Y-117040514D01*
X152730700Y-116967305D01*
X152730700Y-116714516D01*
X152748859Y-116652672D01*
X156391513Y-116652672D01*
X156392094Y-116657692D01*
X156392094Y-116657696D01*
X156398669Y-116714516D01*
X156419340Y-116893171D01*
X156420719Y-116898045D01*
X156420720Y-116898049D01*
X156483392Y-117119528D01*
X156485260Y-117126128D01*
X156487395Y-117130707D01*
X156487396Y-117130709D01*
X156533166Y-117228863D01*
X156587578Y-117345548D01*
X156590419Y-117349729D01*
X156590420Y-117349730D01*
X156625161Y-117400849D01*
X156624545Y-117401267D01*
X156625709Y-117402415D01*
X156625894Y-117402276D01*
X156625924Y-117402316D01*
X156626586Y-117403198D01*
X156626786Y-117403477D01*
X156626823Y-117403514D01*
X156628382Y-117405590D01*
X156629798Y-117407674D01*
X156629887Y-117407815D01*
X156630024Y-117408006D01*
X156723660Y-117545788D01*
X156727137Y-117549465D01*
X156727142Y-117549471D01*
X156772126Y-117597039D01*
X156771573Y-117597562D01*
X156773590Y-117598989D01*
X156774072Y-117599631D01*
X156777798Y-117603192D01*
X156778129Y-117603565D01*
X156781505Y-117606958D01*
X156823961Y-117651853D01*
X156890007Y-117721694D01*
X156894024Y-117724765D01*
X156894027Y-117724768D01*
X156948567Y-117766467D01*
X156949073Y-117766865D01*
X156952457Y-117770099D01*
X156956729Y-117773013D01*
X156957634Y-117773631D01*
X156963155Y-117777621D01*
X157078316Y-117865669D01*
X157078327Y-117865676D01*
X157082337Y-117868742D01*
X157146775Y-117903293D01*
X157149410Y-117904749D01*
X157152018Y-117906231D01*
X157156289Y-117909144D01*
X157160975Y-117911319D01*
X157160978Y-117911321D01*
X157163416Y-117912453D01*
X157169901Y-117915694D01*
X157295704Y-117983148D01*
X157300489Y-117984796D01*
X157300490Y-117984796D01*
X157367073Y-118007722D01*
X157370532Y-118009116D01*
X157370550Y-118009066D01*
X157375392Y-118010848D01*
X157380093Y-118013030D01*
X157388712Y-118015420D01*
X157396025Y-118017692D01*
X157524618Y-118061970D01*
X157529607Y-118062832D01*
X157529608Y-118062832D01*
X157603134Y-118075532D01*
X157608977Y-118076843D01*
X157612877Y-118077587D01*
X157617860Y-118078969D01*
X157627392Y-118079988D01*
X157635417Y-118081108D01*
X157763189Y-118103178D01*
X157767150Y-118103358D01*
X157767151Y-118103358D01*
X157790773Y-118104431D01*
X157790792Y-118104431D01*
X157792192Y-118104495D01*
X157960830Y-118104495D01*
X157963338Y-118104293D01*
X157963343Y-118104293D01*
X158136272Y-118090380D01*
X158136277Y-118090379D01*
X158141313Y-118089974D01*
X158146221Y-118088769D01*
X158146224Y-118088768D01*
X158371514Y-118033431D01*
X158376428Y-118032224D01*
X158381080Y-118030249D01*
X158381084Y-118030248D01*
X158594631Y-117939602D01*
X158594632Y-117939602D01*
X158599286Y-117937626D01*
X158804152Y-117808615D01*
X158985757Y-117648509D01*
X159139428Y-117461427D01*
X159261211Y-117252183D01*
X159291656Y-117172872D01*
X159346158Y-117030889D01*
X159346159Y-117030886D01*
X159347973Y-117026160D01*
X159397482Y-116789172D01*
X159408465Y-116547318D01*
X159406418Y-116529622D01*
X159395126Y-116432035D01*
X159380638Y-116306819D01*
X159351181Y-116202718D01*
X159316096Y-116078731D01*
X159316095Y-116078729D01*
X159314718Y-116073862D01*
X159292497Y-116026208D01*
X159214537Y-115859025D01*
X159212400Y-115854442D01*
X159174817Y-115799141D01*
X159175433Y-115798723D01*
X159174269Y-115797575D01*
X159174084Y-115797714D01*
X159173980Y-115797575D01*
X159173392Y-115796792D01*
X159173192Y-115796513D01*
X159173155Y-115796476D01*
X159171596Y-115794400D01*
X159170180Y-115792316D01*
X159170091Y-115792175D01*
X159169954Y-115791984D01*
X159076318Y-115654202D01*
X159072841Y-115650525D01*
X159072836Y-115650519D01*
X159027852Y-115602951D01*
X159028405Y-115602428D01*
X159026388Y-115601001D01*
X159025906Y-115600359D01*
X159022180Y-115596798D01*
X159021849Y-115596425D01*
X159018473Y-115593032D01*
X158969234Y-115540964D01*
X158909971Y-115478296D01*
X158905954Y-115475225D01*
X158905951Y-115475222D01*
X158851411Y-115433523D01*
X158850905Y-115433125D01*
X158847521Y-115429891D01*
X158843249Y-115426977D01*
X158842344Y-115426359D01*
X158836823Y-115422369D01*
X158721662Y-115334321D01*
X158721651Y-115334314D01*
X158717641Y-115331248D01*
X158653203Y-115296697D01*
X158650568Y-115295241D01*
X158647960Y-115293759D01*
X158643689Y-115290846D01*
X158639003Y-115288671D01*
X158639000Y-115288669D01*
X158636562Y-115287537D01*
X158630070Y-115284293D01*
X158594205Y-115265062D01*
X158504274Y-115216842D01*
X158432902Y-115192267D01*
X158429446Y-115190874D01*
X158429428Y-115190924D01*
X158424586Y-115189142D01*
X158419885Y-115186960D01*
X158411266Y-115184570D01*
X158403953Y-115182298D01*
X158275360Y-115138020D01*
X158270371Y-115137158D01*
X158270370Y-115137158D01*
X158196844Y-115124458D01*
X158191001Y-115123147D01*
X158187101Y-115122403D01*
X158182118Y-115121021D01*
X158172586Y-115120002D01*
X158164561Y-115118882D01*
X158036789Y-115096812D01*
X158032828Y-115096632D01*
X158032827Y-115096632D01*
X158009205Y-115095559D01*
X158009186Y-115095559D01*
X158007786Y-115095495D01*
X157839148Y-115095495D01*
X157836640Y-115095697D01*
X157836635Y-115095697D01*
X157663706Y-115109610D01*
X157663701Y-115109611D01*
X157658665Y-115110016D01*
X157653757Y-115111221D01*
X157653754Y-115111222D01*
X157491674Y-115151033D01*
X157423550Y-115167766D01*
X157418898Y-115169741D01*
X157418894Y-115169742D01*
X157302297Y-115219235D01*
X157200692Y-115262364D01*
X156995826Y-115391375D01*
X156814221Y-115551481D01*
X156660550Y-115738563D01*
X156658008Y-115742931D01*
X156546411Y-115934674D01*
X156538767Y-115947807D01*
X156536954Y-115952530D01*
X156492138Y-116069281D01*
X156452005Y-116173830D01*
X156402496Y-116410818D01*
X156402267Y-116415868D01*
X156402266Y-116415873D01*
X156400665Y-116451135D01*
X156391513Y-116652672D01*
X152748859Y-116652672D01*
X152750702Y-116646395D01*
X152804358Y-116599902D01*
X152816184Y-116595208D01*
X152851165Y-116583334D01*
X153028276Y-116484147D01*
X153067969Y-116451135D01*
X153179913Y-116358031D01*
X153184345Y-116354345D01*
X153314147Y-116198276D01*
X153373845Y-116091677D01*
X153410510Y-116026208D01*
X153410511Y-116026206D01*
X153413334Y-116021165D01*
X153415190Y-116015698D01*
X153415192Y-116015693D01*
X153476728Y-115834414D01*
X153476729Y-115834409D01*
X153478584Y-115828945D01*
X153479412Y-115823236D01*
X153479413Y-115823231D01*
X153503314Y-115658386D01*
X153507712Y-115628053D01*
X153509232Y-115570000D01*
X153490658Y-115367859D01*
X153489090Y-115362299D01*
X153437125Y-115178046D01*
X153437124Y-115178044D01*
X153435557Y-115172487D01*
X153424978Y-115151033D01*
X153348331Y-114995609D01*
X153345776Y-114990428D01*
X153224320Y-114827779D01*
X153075258Y-114689987D01*
X153070375Y-114686906D01*
X153070371Y-114686903D01*
X152908464Y-114584748D01*
X152903581Y-114581667D01*
X152715039Y-114506446D01*
X152709379Y-114505320D01*
X152709375Y-114505319D01*
X152521613Y-114467971D01*
X152521610Y-114467971D01*
X152515946Y-114466844D01*
X152510171Y-114466768D01*
X152510167Y-114466768D01*
X152408793Y-114465441D01*
X152312971Y-114464187D01*
X152307274Y-114465166D01*
X152307273Y-114465166D01*
X152219397Y-114480266D01*
X152112910Y-114498564D01*
X151957256Y-114555988D01*
X151886424Y-114560800D01*
X151824551Y-114526871D01*
X145824791Y-108527111D01*
X145790765Y-108464799D01*
X145794573Y-108397515D01*
X145856728Y-108214414D01*
X145856729Y-108214409D01*
X145858584Y-108208945D01*
X145859412Y-108203236D01*
X145859413Y-108203231D01*
X145887179Y-108011727D01*
X145887712Y-108008053D01*
X145889232Y-107950000D01*
X145870658Y-107747859D01*
X145869090Y-107742299D01*
X145817125Y-107558046D01*
X145817124Y-107558044D01*
X145815557Y-107552487D01*
X145804978Y-107531033D01*
X145728331Y-107375609D01*
X145725776Y-107370428D01*
X145604320Y-107207779D01*
X145455258Y-107069987D01*
X145450375Y-107066906D01*
X145450371Y-107066903D01*
X145288464Y-106964748D01*
X145283581Y-106961667D01*
X145095039Y-106886446D01*
X145089379Y-106885320D01*
X145089375Y-106885319D01*
X144901613Y-106847971D01*
X144901610Y-106847971D01*
X144895946Y-106846844D01*
X144890171Y-106846768D01*
X144890167Y-106846768D01*
X144788793Y-106845441D01*
X144692971Y-106844187D01*
X144687274Y-106845166D01*
X144687273Y-106845166D01*
X144498607Y-106877585D01*
X144492910Y-106878564D01*
X144302463Y-106948824D01*
X144128010Y-107052612D01*
X144123670Y-107056418D01*
X144123666Y-107056421D01*
X144011890Y-107154447D01*
X143975392Y-107186455D01*
X143849720Y-107345869D01*
X143847031Y-107350980D01*
X143847029Y-107350983D01*
X143799128Y-107442027D01*
X143755203Y-107525515D01*
X143695007Y-107719378D01*
X143671148Y-107920964D01*
X143684424Y-108123522D01*
X143685845Y-108129118D01*
X143685846Y-108129123D01*
X143706119Y-108208945D01*
X143734392Y-108320269D01*
X143736809Y-108325512D01*
X143780951Y-108421264D01*
X143819377Y-108504616D01*
X143936533Y-108670389D01*
X143940675Y-108674424D01*
X144025508Y-108757064D01*
X144081938Y-108812035D01*
X144250720Y-108924812D01*
X144256023Y-108927090D01*
X144256026Y-108927092D01*
X144343266Y-108964573D01*
X144437228Y-109004942D01*
X144495038Y-109018023D01*
X144629579Y-109048467D01*
X144629584Y-109048468D01*
X144635216Y-109049742D01*
X144640987Y-109049969D01*
X144640989Y-109049969D01*
X144700756Y-109052317D01*
X144838053Y-109057712D01*
X144938499Y-109043148D01*
X145033231Y-109029413D01*
X145033236Y-109029412D01*
X145038945Y-109028584D01*
X145044409Y-109026729D01*
X145044414Y-109026728D01*
X145227515Y-108964573D01*
X145298450Y-108961617D01*
X145357111Y-108994791D01*
X151355300Y-114992980D01*
X151389326Y-115055292D01*
X151384261Y-115126107D01*
X151378228Y-115139594D01*
X151377895Y-115140399D01*
X151375203Y-115145515D01*
X151315007Y-115339378D01*
X151291148Y-115540964D01*
X151304424Y-115743522D01*
X151305845Y-115749118D01*
X151305846Y-115749123D01*
X151326119Y-115828945D01*
X151354392Y-115940269D01*
X151356809Y-115945512D01*
X151394010Y-116026208D01*
X151439377Y-116124616D01*
X151556533Y-116290389D01*
X151560675Y-116294424D01*
X151573399Y-116306819D01*
X151701938Y-116432035D01*
X151870720Y-116544812D01*
X151876023Y-116547090D01*
X151876026Y-116547092D01*
X151993038Y-116597364D01*
X152047731Y-116642632D01*
X152069300Y-116713132D01*
X152069300Y-116966836D01*
X152049298Y-117034957D01*
X151995642Y-117081450D01*
X151986914Y-117085047D01*
X151922463Y-117108824D01*
X151748010Y-117212612D01*
X151743670Y-117216418D01*
X151743666Y-117216421D01*
X151702888Y-117252183D01*
X151595392Y-117346455D01*
X151469720Y-117505869D01*
X151467031Y-117510980D01*
X151467029Y-117510983D01*
X151421753Y-117597039D01*
X151375203Y-117685515D01*
X151315007Y-117879378D01*
X151291148Y-118080964D01*
X151304424Y-118283522D01*
X151305845Y-118289118D01*
X151305846Y-118289123D01*
X151326119Y-118368945D01*
X151354392Y-118480269D01*
X151356809Y-118485512D01*
X151394010Y-118566208D01*
X151439377Y-118664616D01*
X151442710Y-118669332D01*
X151518200Y-118776148D01*
X151556533Y-118830389D01*
X151560675Y-118834424D01*
X151641283Y-118912948D01*
X151676121Y-118974809D01*
X151671984Y-119045685D01*
X151630185Y-119103073D01*
X151563996Y-119128752D01*
X151553414Y-119129202D01*
X151076093Y-119129394D01*
X150710150Y-119129541D01*
X150642021Y-119109566D01*
X150595506Y-119055929D01*
X150585374Y-118985659D01*
X150614841Y-118921067D01*
X150629531Y-118906666D01*
X150639909Y-118898035D01*
X150639915Y-118898029D01*
X150644345Y-118894345D01*
X150728971Y-118792594D01*
X150770453Y-118742718D01*
X150770455Y-118742715D01*
X150774147Y-118738276D01*
X150873334Y-118561165D01*
X150875190Y-118555698D01*
X150875192Y-118555693D01*
X150936728Y-118374414D01*
X150936729Y-118374409D01*
X150938584Y-118368945D01*
X150939412Y-118363236D01*
X150939413Y-118363231D01*
X150967179Y-118171727D01*
X150967712Y-118168053D01*
X150969232Y-118110000D01*
X150950658Y-117907859D01*
X150949090Y-117902299D01*
X150897125Y-117718046D01*
X150897124Y-117718044D01*
X150895557Y-117712487D01*
X150884978Y-117691033D01*
X150808331Y-117535609D01*
X150805776Y-117530428D01*
X150684320Y-117367779D01*
X150535258Y-117229987D01*
X150530375Y-117226906D01*
X150530371Y-117226903D01*
X150368464Y-117124748D01*
X150363581Y-117121667D01*
X150358212Y-117119525D01*
X150270009Y-117084335D01*
X150214150Y-117040514D01*
X150190700Y-116967305D01*
X150190700Y-116714516D01*
X150210702Y-116646395D01*
X150264358Y-116599902D01*
X150276184Y-116595208D01*
X150311165Y-116583334D01*
X150488276Y-116484147D01*
X150527969Y-116451135D01*
X150639913Y-116358031D01*
X150644345Y-116354345D01*
X150774147Y-116198276D01*
X150833845Y-116091677D01*
X150870510Y-116026208D01*
X150870511Y-116026206D01*
X150873334Y-116021165D01*
X150875190Y-116015698D01*
X150875192Y-116015693D01*
X150936728Y-115834414D01*
X150936729Y-115834409D01*
X150938584Y-115828945D01*
X150939412Y-115823236D01*
X150939413Y-115823231D01*
X150963314Y-115658386D01*
X150967712Y-115628053D01*
X150969232Y-115570000D01*
X150950658Y-115367859D01*
X150949090Y-115362299D01*
X150897125Y-115178046D01*
X150897124Y-115178044D01*
X150895557Y-115172487D01*
X150884978Y-115151033D01*
X150808331Y-114995609D01*
X150805776Y-114990428D01*
X150684320Y-114827779D01*
X150535258Y-114689987D01*
X150530375Y-114686906D01*
X150530371Y-114686903D01*
X150368464Y-114584748D01*
X150363581Y-114581667D01*
X150175039Y-114506446D01*
X150169379Y-114505320D01*
X150169375Y-114505319D01*
X149981613Y-114467971D01*
X149981610Y-114467971D01*
X149975946Y-114466844D01*
X149970171Y-114466768D01*
X149970167Y-114466768D01*
X149868793Y-114465441D01*
X149772971Y-114464187D01*
X149767274Y-114465166D01*
X149767273Y-114465166D01*
X149679397Y-114480266D01*
X149572910Y-114498564D01*
X149417256Y-114555988D01*
X149346424Y-114560800D01*
X149284551Y-114526871D01*
X145824791Y-111067111D01*
X145790765Y-111004799D01*
X145794573Y-110937515D01*
X145856728Y-110754414D01*
X145856729Y-110754409D01*
X145858584Y-110748945D01*
X145859412Y-110743236D01*
X145859413Y-110743231D01*
X145887179Y-110551727D01*
X145887712Y-110548053D01*
X145889232Y-110490000D01*
X145870658Y-110287859D01*
X145869090Y-110282299D01*
X145817125Y-110098046D01*
X145817124Y-110098044D01*
X145815557Y-110092487D01*
X145804978Y-110071033D01*
X145728331Y-109915609D01*
X145725776Y-109910428D01*
X145604320Y-109747779D01*
X145455258Y-109609987D01*
X145450375Y-109606906D01*
X145450371Y-109606903D01*
X145288464Y-109504748D01*
X145283581Y-109501667D01*
X145095039Y-109426446D01*
X145089379Y-109425320D01*
X145089375Y-109425319D01*
X144901613Y-109387971D01*
X144901610Y-109387971D01*
X144895946Y-109386844D01*
X144890171Y-109386768D01*
X144890167Y-109386768D01*
X144788793Y-109385441D01*
X144692971Y-109384187D01*
X144687274Y-109385166D01*
X144687273Y-109385166D01*
X144574757Y-109404500D01*
X144492910Y-109418564D01*
X144302463Y-109488824D01*
X144128010Y-109592612D01*
X144123670Y-109596418D01*
X144123666Y-109596421D01*
X144103723Y-109613911D01*
X143975392Y-109726455D01*
X143849720Y-109885869D01*
X143847031Y-109890980D01*
X143847029Y-109890983D01*
X143806418Y-109968172D01*
X143755203Y-110065515D01*
X143746828Y-110092487D01*
X143733472Y-110135501D01*
X143694169Y-110194626D01*
X143629140Y-110223117D01*
X143559030Y-110211927D01*
X143513176Y-110174841D01*
X143433093Y-110070474D01*
X143428071Y-110063929D01*
X143303278Y-109968172D01*
X143157953Y-109907977D01*
X143002000Y-109887445D01*
X142846047Y-109907977D01*
X142700723Y-109968172D01*
X142575929Y-110063929D01*
X142480172Y-110188723D01*
X142419977Y-110334047D01*
X142399445Y-110490000D01*
X142419977Y-110645953D01*
X142480172Y-110791277D01*
X142575929Y-110916071D01*
X142582475Y-110921094D01*
X142583595Y-110922214D01*
X142617621Y-110984526D01*
X142620500Y-111011309D01*
X142620500Y-112057787D01*
X142600498Y-112125908D01*
X142583595Y-112146883D01*
X142372881Y-112357596D01*
X142310569Y-112391621D01*
X142283786Y-112394500D01*
X133145308Y-112394500D01*
X133077187Y-112374498D01*
X133056210Y-112357593D01*
X133055100Y-112356483D01*
X133050071Y-112349929D01*
X133021312Y-112327861D01*
X132955385Y-112277274D01*
X132925278Y-112254172D01*
X132779953Y-112193977D01*
X132624000Y-112173445D01*
X132468047Y-112193977D01*
X132322723Y-112254172D01*
X132197929Y-112349929D01*
X132102172Y-112474723D01*
X132041977Y-112620047D01*
X132021445Y-112776000D01*
X132041977Y-112931953D01*
X132102172Y-113077277D01*
X132197929Y-113202071D01*
X132322722Y-113297828D01*
X132468047Y-113358023D01*
X132624000Y-113378555D01*
X132779953Y-113358023D01*
X132925278Y-113297828D01*
X133050071Y-113202071D01*
X133055100Y-113195517D01*
X133056210Y-113194407D01*
X133118521Y-113160380D01*
X133145308Y-113157500D01*
X142439865Y-113157500D01*
X142464164Y-113160086D01*
X142465602Y-113160154D01*
X142475780Y-113162345D01*
X142509341Y-113158373D01*
X142515320Y-113158021D01*
X142515312Y-113157928D01*
X142520490Y-113157500D01*
X142525692Y-113157500D01*
X142544846Y-113154312D01*
X142550704Y-113153478D01*
X142567318Y-113151512D01*
X142591567Y-113148642D01*
X142591568Y-113148642D01*
X142601907Y-113147418D01*
X142610206Y-113143433D01*
X142619283Y-113141922D01*
X142664651Y-113117442D01*
X142669914Y-113114761D01*
X142709250Y-113095873D01*
X142709254Y-113095870D01*
X142716398Y-113092440D01*
X142720692Y-113088830D01*
X142722624Y-113086898D01*
X142724573Y-113085111D01*
X142724626Y-113085082D01*
X142724745Y-113085212D01*
X142725313Y-113084711D01*
X142731057Y-113081612D01*
X142767854Y-113041805D01*
X142771284Y-113038238D01*
X143233483Y-112576040D01*
X143252494Y-112560686D01*
X143253556Y-112559720D01*
X143262304Y-112554071D01*
X143268748Y-112545896D01*
X143268751Y-112545894D01*
X143283229Y-112527528D01*
X143287208Y-112523050D01*
X143287137Y-112522990D01*
X143290490Y-112519033D01*
X143294171Y-112515352D01*
X143305469Y-112499543D01*
X143309032Y-112494798D01*
X143318843Y-112482353D01*
X143340934Y-112454330D01*
X143343984Y-112445645D01*
X143349334Y-112438158D01*
X143364109Y-112388753D01*
X143365930Y-112383150D01*
X143368969Y-112374498D01*
X143383016Y-112334498D01*
X143383500Y-112328909D01*
X143383500Y-112326196D01*
X143383615Y-112323531D01*
X143383634Y-112323468D01*
X143383808Y-112323475D01*
X143383855Y-112322729D01*
X143385725Y-112316476D01*
X143383597Y-112262322D01*
X143383500Y-112257375D01*
X143383500Y-111011309D01*
X143403502Y-110943188D01*
X143420405Y-110922214D01*
X143421525Y-110921094D01*
X143428071Y-110916071D01*
X143475181Y-110854676D01*
X143510725Y-110808354D01*
X143568063Y-110766487D01*
X143638934Y-110762265D01*
X143700837Y-110797029D01*
X143730261Y-110849500D01*
X143731041Y-110849224D01*
X143732643Y-110853748D01*
X143732813Y-110854050D01*
X143734392Y-110860269D01*
X143736809Y-110865512D01*
X143772618Y-110943188D01*
X143819377Y-111044616D01*
X143936533Y-111210389D01*
X144081938Y-111352035D01*
X144250720Y-111464812D01*
X144256023Y-111467090D01*
X144256026Y-111467092D01*
X144343266Y-111504573D01*
X144437228Y-111544942D01*
X144510244Y-111561464D01*
X144629579Y-111588467D01*
X144629584Y-111588468D01*
X144635216Y-111589742D01*
X144640987Y-111589969D01*
X144640989Y-111589969D01*
X144700756Y-111592317D01*
X144838053Y-111597712D01*
X144938499Y-111583148D01*
X145033231Y-111569413D01*
X145033236Y-111569412D01*
X145038945Y-111568584D01*
X145044409Y-111566729D01*
X145044414Y-111566728D01*
X145227515Y-111504573D01*
X145298450Y-111501617D01*
X145357111Y-111534791D01*
X145532725Y-111710405D01*
X145566751Y-111772717D01*
X145561686Y-111843532D01*
X145519139Y-111900368D01*
X145452619Y-111925179D01*
X145443630Y-111925500D01*
X143954706Y-111925501D01*
X143904934Y-111925501D01*
X143869182Y-111932612D01*
X143842874Y-111937844D01*
X143842872Y-111937845D01*
X143830699Y-111940266D01*
X143820379Y-111947161D01*
X143820378Y-111947162D01*
X143759985Y-111987516D01*
X143746516Y-111996516D01*
X143739623Y-112006832D01*
X143705576Y-112057787D01*
X143690266Y-112080699D01*
X143675500Y-112154933D01*
X143675501Y-113905066D01*
X143690266Y-113979301D01*
X143697161Y-113989620D01*
X143697162Y-113989622D01*
X143724538Y-114030592D01*
X143746516Y-114063484D01*
X143830699Y-114119734D01*
X143904933Y-114134500D01*
X144779858Y-114134500D01*
X145655066Y-114134499D01*
X145699175Y-114125726D01*
X145717126Y-114122156D01*
X145717128Y-114122155D01*
X145729301Y-114119734D01*
X145739621Y-114112839D01*
X145739622Y-114112838D01*
X145803168Y-114070377D01*
X145813484Y-114063484D01*
X145869734Y-113979301D01*
X145884500Y-113905067D01*
X145884499Y-112366369D01*
X145904501Y-112298248D01*
X145958157Y-112251755D01*
X146028431Y-112241651D01*
X146093011Y-112271145D01*
X146099594Y-112277274D01*
X148815300Y-114992980D01*
X148849326Y-115055292D01*
X148844261Y-115126107D01*
X148838228Y-115139594D01*
X148837895Y-115140399D01*
X148835203Y-115145515D01*
X148775007Y-115339378D01*
X148751148Y-115540964D01*
X148764424Y-115743522D01*
X148765845Y-115749118D01*
X148765846Y-115749123D01*
X148786119Y-115828945D01*
X148814392Y-115940269D01*
X148816809Y-115945512D01*
X148854010Y-116026208D01*
X148899377Y-116124616D01*
X149016533Y-116290389D01*
X149020675Y-116294424D01*
X149033399Y-116306819D01*
X149161938Y-116432035D01*
X149330720Y-116544812D01*
X149336023Y-116547090D01*
X149336026Y-116547092D01*
X149453038Y-116597364D01*
X149507731Y-116642632D01*
X149529300Y-116713132D01*
X149529300Y-116966836D01*
X149509298Y-117034957D01*
X149455642Y-117081450D01*
X149446914Y-117085047D01*
X149382463Y-117108824D01*
X149208010Y-117212612D01*
X149203670Y-117216418D01*
X149203666Y-117216421D01*
X149162888Y-117252183D01*
X149055392Y-117346455D01*
X148929720Y-117505869D01*
X148927031Y-117510980D01*
X148927029Y-117510983D01*
X148881753Y-117597039D01*
X148835203Y-117685515D01*
X148775007Y-117879378D01*
X148751148Y-118080964D01*
X148764424Y-118283522D01*
X148765845Y-118289118D01*
X148765846Y-118289123D01*
X148786119Y-118368945D01*
X148814392Y-118480269D01*
X148816809Y-118485512D01*
X148854010Y-118566208D01*
X148899377Y-118664616D01*
X148902710Y-118669332D01*
X148978200Y-118776148D01*
X149016533Y-118830389D01*
X149102334Y-118913972D01*
X149137170Y-118975829D01*
X149133033Y-119046705D01*
X149091235Y-119104093D01*
X149025045Y-119129773D01*
X149014462Y-119130223D01*
X148168921Y-119130563D01*
X148100792Y-119110588D01*
X148054277Y-119056951D01*
X148044145Y-118986681D01*
X148073612Y-118922089D01*
X148088296Y-118907693D01*
X148104345Y-118894345D01*
X148188971Y-118792594D01*
X148230453Y-118742718D01*
X148230455Y-118742715D01*
X148234147Y-118738276D01*
X148333334Y-118561165D01*
X148335190Y-118555698D01*
X148335192Y-118555693D01*
X148396728Y-118374414D01*
X148396729Y-118374409D01*
X148398584Y-118368945D01*
X148399412Y-118363236D01*
X148399413Y-118363231D01*
X148427179Y-118171727D01*
X148427712Y-118168053D01*
X148429232Y-118110000D01*
X148410658Y-117907859D01*
X148409090Y-117902299D01*
X148357125Y-117718046D01*
X148357124Y-117718044D01*
X148355557Y-117712487D01*
X148344978Y-117691033D01*
X148268331Y-117535609D01*
X148265776Y-117530428D01*
X148144320Y-117367779D01*
X147995258Y-117229987D01*
X147990375Y-117226906D01*
X147990371Y-117226903D01*
X147828464Y-117124748D01*
X147823581Y-117121667D01*
X147818212Y-117119525D01*
X147730009Y-117084335D01*
X147674150Y-117040514D01*
X147650700Y-116967305D01*
X147650700Y-116714516D01*
X147670702Y-116646395D01*
X147724358Y-116599902D01*
X147736184Y-116595208D01*
X147771165Y-116583334D01*
X147948276Y-116484147D01*
X147987969Y-116451135D01*
X148099913Y-116358031D01*
X148104345Y-116354345D01*
X148234147Y-116198276D01*
X148293845Y-116091677D01*
X148330510Y-116026208D01*
X148330511Y-116026206D01*
X148333334Y-116021165D01*
X148335190Y-116015698D01*
X148335192Y-116015693D01*
X148396728Y-115834414D01*
X148396729Y-115834409D01*
X148398584Y-115828945D01*
X148399412Y-115823236D01*
X148399413Y-115823231D01*
X148423314Y-115658386D01*
X148427712Y-115628053D01*
X148429232Y-115570000D01*
X148410658Y-115367859D01*
X148409090Y-115362299D01*
X148357125Y-115178046D01*
X148357124Y-115178044D01*
X148355557Y-115172487D01*
X148344978Y-115151033D01*
X148268331Y-114995609D01*
X148265776Y-114990428D01*
X148144320Y-114827779D01*
X147995258Y-114689987D01*
X147990375Y-114686906D01*
X147990371Y-114686903D01*
X147828464Y-114584748D01*
X147823581Y-114581667D01*
X147635039Y-114506446D01*
X147629379Y-114505320D01*
X147629375Y-114505319D01*
X147441613Y-114467971D01*
X147441610Y-114467971D01*
X147435946Y-114466844D01*
X147430171Y-114466768D01*
X147430167Y-114466768D01*
X147328793Y-114465441D01*
X147232971Y-114464187D01*
X147227274Y-114465166D01*
X147227273Y-114465166D01*
X147139397Y-114480266D01*
X147032910Y-114498564D01*
X146842463Y-114568824D01*
X146668010Y-114672612D01*
X146663670Y-114676418D01*
X146663666Y-114676421D01*
X146519733Y-114802648D01*
X146515392Y-114806455D01*
X146389720Y-114965869D01*
X146387031Y-114970980D01*
X146387029Y-114970983D01*
X146375456Y-114992980D01*
X146295203Y-115145515D01*
X146235007Y-115339378D01*
X146211148Y-115540964D01*
X146224424Y-115743522D01*
X146225845Y-115749118D01*
X146225846Y-115749123D01*
X146246119Y-115828945D01*
X146274392Y-115940269D01*
X146276809Y-115945512D01*
X146314010Y-116026208D01*
X146359377Y-116124616D01*
X146476533Y-116290389D01*
X146480675Y-116294424D01*
X146493399Y-116306819D01*
X146621938Y-116432035D01*
X146790720Y-116544812D01*
X146796023Y-116547090D01*
X146796026Y-116547092D01*
X146913038Y-116597364D01*
X146967731Y-116642632D01*
X146989300Y-116713132D01*
X146989300Y-116966836D01*
X146969298Y-117034957D01*
X146915642Y-117081450D01*
X146906914Y-117085047D01*
X146842463Y-117108824D01*
X146668010Y-117212612D01*
X146663670Y-117216418D01*
X146663666Y-117216421D01*
X146622888Y-117252183D01*
X146515392Y-117346455D01*
X146389720Y-117505869D01*
X146387031Y-117510980D01*
X146387029Y-117510983D01*
X146341753Y-117597039D01*
X146295203Y-117685515D01*
X146235007Y-117879378D01*
X146211148Y-118080964D01*
X146224424Y-118283522D01*
X146225845Y-118289118D01*
X146225846Y-118289123D01*
X146246119Y-118368945D01*
X146274392Y-118480269D01*
X146276809Y-118485512D01*
X146314010Y-118566208D01*
X146359377Y-118664616D01*
X146362710Y-118669332D01*
X146438200Y-118776148D01*
X146476533Y-118830389D01*
X146480675Y-118834424D01*
X146563380Y-118914991D01*
X146598218Y-118976852D01*
X146594081Y-119047728D01*
X146552282Y-119105116D01*
X146486093Y-119130796D01*
X146475511Y-119131245D01*
X145627691Y-119131586D01*
X145559563Y-119111611D01*
X145513048Y-119057974D01*
X145502916Y-118987704D01*
X145532383Y-118923112D01*
X145547070Y-118908713D01*
X145559911Y-118898033D01*
X145559915Y-118898029D01*
X145564345Y-118894345D01*
X145648971Y-118792594D01*
X145690453Y-118742718D01*
X145690455Y-118742715D01*
X145694147Y-118738276D01*
X145793334Y-118561165D01*
X145795190Y-118555698D01*
X145795192Y-118555693D01*
X145856728Y-118374414D01*
X145856729Y-118374409D01*
X145858584Y-118368945D01*
X145859412Y-118363236D01*
X145859413Y-118363231D01*
X145887179Y-118171727D01*
X145887712Y-118168053D01*
X145889232Y-118110000D01*
X145870658Y-117907859D01*
X145869090Y-117902299D01*
X145817125Y-117718046D01*
X145817124Y-117718044D01*
X145815557Y-117712487D01*
X145804978Y-117691033D01*
X145728331Y-117535609D01*
X145725776Y-117530428D01*
X145604320Y-117367779D01*
X145455258Y-117229987D01*
X145450375Y-117226906D01*
X145450371Y-117226903D01*
X145288464Y-117124748D01*
X145283581Y-117121667D01*
X145278212Y-117119525D01*
X145190009Y-117084335D01*
X145134150Y-117040514D01*
X145110700Y-116967305D01*
X145110700Y-116714516D01*
X145130702Y-116646395D01*
X145184358Y-116599902D01*
X145196184Y-116595208D01*
X145231165Y-116583334D01*
X145408276Y-116484147D01*
X145447969Y-116451135D01*
X145559913Y-116358031D01*
X145564345Y-116354345D01*
X145694147Y-116198276D01*
X145753845Y-116091677D01*
X145790510Y-116026208D01*
X145790511Y-116026206D01*
X145793334Y-116021165D01*
X145795190Y-116015698D01*
X145795192Y-116015693D01*
X145856728Y-115834414D01*
X145856729Y-115834409D01*
X145858584Y-115828945D01*
X145859412Y-115823236D01*
X145859413Y-115823231D01*
X145883314Y-115658386D01*
X145887712Y-115628053D01*
X145889232Y-115570000D01*
X145870658Y-115367859D01*
X145869090Y-115362299D01*
X145817125Y-115178046D01*
X145817124Y-115178044D01*
X145815557Y-115172487D01*
X145804978Y-115151033D01*
X145728331Y-114995609D01*
X145725776Y-114990428D01*
X145604320Y-114827779D01*
X145455258Y-114689987D01*
X145450375Y-114686906D01*
X145450371Y-114686903D01*
X145288464Y-114584748D01*
X145283581Y-114581667D01*
X145095039Y-114506446D01*
X145089379Y-114505320D01*
X145089375Y-114505319D01*
X144901613Y-114467971D01*
X144901610Y-114467971D01*
X144895946Y-114466844D01*
X144890171Y-114466768D01*
X144890167Y-114466768D01*
X144788793Y-114465441D01*
X144692971Y-114464187D01*
X144687274Y-114465166D01*
X144687273Y-114465166D01*
X144599397Y-114480266D01*
X144492910Y-114498564D01*
X144302463Y-114568824D01*
X144128010Y-114672612D01*
X144123670Y-114676418D01*
X144123666Y-114676421D01*
X143979733Y-114802648D01*
X143975392Y-114806455D01*
X143849720Y-114965869D01*
X143847031Y-114970980D01*
X143847029Y-114970983D01*
X143835456Y-114992980D01*
X143755203Y-115145515D01*
X143695007Y-115339378D01*
X143671148Y-115540964D01*
X143684424Y-115743522D01*
X143685845Y-115749118D01*
X143685846Y-115749123D01*
X143706119Y-115828945D01*
X143734392Y-115940269D01*
X143736809Y-115945512D01*
X143774010Y-116026208D01*
X143819377Y-116124616D01*
X143936533Y-116290389D01*
X143940675Y-116294424D01*
X143953399Y-116306819D01*
X144081938Y-116432035D01*
X144250720Y-116544812D01*
X144256023Y-116547090D01*
X144256026Y-116547092D01*
X144373038Y-116597364D01*
X144427731Y-116642632D01*
X144449300Y-116713132D01*
X144449300Y-116966836D01*
X144429298Y-117034957D01*
X144375642Y-117081450D01*
X144366914Y-117085047D01*
X144302463Y-117108824D01*
X144128010Y-117212612D01*
X144123670Y-117216418D01*
X144123666Y-117216421D01*
X144082888Y-117252183D01*
X143975392Y-117346455D01*
X143849720Y-117505869D01*
X143847031Y-117510980D01*
X143847029Y-117510983D01*
X143801753Y-117597039D01*
X143755203Y-117685515D01*
X143695007Y-117879378D01*
X143671148Y-118080964D01*
X143684424Y-118283522D01*
X143685845Y-118289118D01*
X143685846Y-118289123D01*
X143706119Y-118368945D01*
X143734392Y-118480269D01*
X143736809Y-118485512D01*
X143774010Y-118566208D01*
X143819377Y-118664616D01*
X143822710Y-118669332D01*
X143898200Y-118776148D01*
X143936533Y-118830389D01*
X144024431Y-118916015D01*
X144059267Y-118977872D01*
X144055130Y-119048748D01*
X144013332Y-119106137D01*
X143947142Y-119131816D01*
X143936559Y-119132266D01*
X143091788Y-119132606D01*
X143086463Y-119132608D01*
X143018334Y-119112633D01*
X142971819Y-119058996D01*
X142961687Y-118988727D01*
X142991154Y-118924134D01*
X143005842Y-118909734D01*
X143019912Y-118898032D01*
X143019915Y-118898029D01*
X143024345Y-118894345D01*
X143108971Y-118792594D01*
X143150453Y-118742718D01*
X143150455Y-118742715D01*
X143154147Y-118738276D01*
X143253334Y-118561165D01*
X143255190Y-118555698D01*
X143255192Y-118555693D01*
X143316728Y-118374414D01*
X143316729Y-118374409D01*
X143318584Y-118368945D01*
X143319412Y-118363236D01*
X143319413Y-118363231D01*
X143347179Y-118171727D01*
X143347712Y-118168053D01*
X143349232Y-118110000D01*
X143330658Y-117907859D01*
X143329090Y-117902299D01*
X143277125Y-117718046D01*
X143277124Y-117718044D01*
X143275557Y-117712487D01*
X143264978Y-117691033D01*
X143188331Y-117535609D01*
X143185776Y-117530428D01*
X143064320Y-117367779D01*
X142915258Y-117229987D01*
X142910375Y-117226906D01*
X142910371Y-117226903D01*
X142748464Y-117124748D01*
X142743581Y-117121667D01*
X142738212Y-117119525D01*
X142650009Y-117084335D01*
X142594150Y-117040514D01*
X142570700Y-116967305D01*
X142570700Y-116714516D01*
X142590702Y-116646395D01*
X142644358Y-116599902D01*
X142656184Y-116595208D01*
X142691165Y-116583334D01*
X142868276Y-116484147D01*
X142907969Y-116451135D01*
X143019913Y-116358031D01*
X143024345Y-116354345D01*
X143154147Y-116198276D01*
X143213845Y-116091677D01*
X143250510Y-116026208D01*
X143250511Y-116026206D01*
X143253334Y-116021165D01*
X143255190Y-116015698D01*
X143255192Y-116015693D01*
X143316728Y-115834414D01*
X143316729Y-115834409D01*
X143318584Y-115828945D01*
X143319412Y-115823236D01*
X143319413Y-115823231D01*
X143343314Y-115658386D01*
X143347712Y-115628053D01*
X143349232Y-115570000D01*
X143330658Y-115367859D01*
X143329090Y-115362299D01*
X143277125Y-115178046D01*
X143277124Y-115178044D01*
X143275557Y-115172487D01*
X143264978Y-115151033D01*
X143188331Y-114995609D01*
X143185776Y-114990428D01*
X143064320Y-114827779D01*
X142915258Y-114689987D01*
X142910375Y-114686906D01*
X142910371Y-114686903D01*
X142748464Y-114584748D01*
X142743581Y-114581667D01*
X142555039Y-114506446D01*
X142549379Y-114505320D01*
X142549375Y-114505319D01*
X142361613Y-114467971D01*
X142361610Y-114467971D01*
X142355946Y-114466844D01*
X142350171Y-114466768D01*
X142350167Y-114466768D01*
X142248793Y-114465441D01*
X142152971Y-114464187D01*
X142147274Y-114465166D01*
X142147273Y-114465166D01*
X142059397Y-114480266D01*
X141952910Y-114498564D01*
X141762463Y-114568824D01*
X141588010Y-114672612D01*
X141583670Y-114676418D01*
X141583666Y-114676421D01*
X141439733Y-114802648D01*
X141435392Y-114806455D01*
X141309720Y-114965869D01*
X141307031Y-114970980D01*
X141307029Y-114970983D01*
X141295456Y-114992980D01*
X141215203Y-115145515D01*
X141155007Y-115339378D01*
X141131148Y-115540964D01*
X141144424Y-115743522D01*
X141145845Y-115749118D01*
X141145846Y-115749123D01*
X141166119Y-115828945D01*
X141194392Y-115940269D01*
X141196809Y-115945512D01*
X141234010Y-116026208D01*
X141279377Y-116124616D01*
X141396533Y-116290389D01*
X141400675Y-116294424D01*
X141413399Y-116306819D01*
X141541938Y-116432035D01*
X141710720Y-116544812D01*
X141716023Y-116547090D01*
X141716026Y-116547092D01*
X141833038Y-116597364D01*
X141887731Y-116642632D01*
X141909300Y-116713132D01*
X141909300Y-116966836D01*
X141889298Y-117034957D01*
X141835642Y-117081450D01*
X141826914Y-117085047D01*
X141762463Y-117108824D01*
X141588010Y-117212612D01*
X141583670Y-117216418D01*
X141583666Y-117216421D01*
X141542888Y-117252183D01*
X141435392Y-117346455D01*
X141309720Y-117505869D01*
X141307031Y-117510980D01*
X141307029Y-117510983D01*
X141261753Y-117597039D01*
X141215203Y-117685515D01*
X141155007Y-117879378D01*
X141131148Y-118080964D01*
X141144424Y-118283522D01*
X141145845Y-118289118D01*
X141145846Y-118289123D01*
X141166119Y-118368945D01*
X141194392Y-118480269D01*
X141196809Y-118485512D01*
X141234010Y-118566208D01*
X141279377Y-118664616D01*
X141282710Y-118669332D01*
X141358200Y-118776148D01*
X141396533Y-118830389D01*
X141485480Y-118917037D01*
X141520316Y-118978894D01*
X141516179Y-119049770D01*
X141474381Y-119107159D01*
X141408191Y-119132838D01*
X141397608Y-119133288D01*
X140545233Y-119133631D01*
X140477104Y-119113656D01*
X140430589Y-119060019D01*
X140420457Y-118989750D01*
X140449924Y-118925157D01*
X140464612Y-118910758D01*
X140479906Y-118898038D01*
X140479915Y-118898029D01*
X140484345Y-118894345D01*
X140568971Y-118792594D01*
X140610453Y-118742718D01*
X140610455Y-118742715D01*
X140614147Y-118738276D01*
X140713334Y-118561165D01*
X140715190Y-118555698D01*
X140715192Y-118555693D01*
X140776728Y-118374414D01*
X140776729Y-118374409D01*
X140778584Y-118368945D01*
X140779412Y-118363236D01*
X140779413Y-118363231D01*
X140807179Y-118171727D01*
X140807712Y-118168053D01*
X140809232Y-118110000D01*
X140790658Y-117907859D01*
X140789090Y-117902299D01*
X140737125Y-117718046D01*
X140737124Y-117718044D01*
X140735557Y-117712487D01*
X140724978Y-117691033D01*
X140648331Y-117535609D01*
X140645776Y-117530428D01*
X140524320Y-117367779D01*
X140375258Y-117229987D01*
X140370375Y-117226906D01*
X140370371Y-117226903D01*
X140208464Y-117124748D01*
X140203581Y-117121667D01*
X140198212Y-117119525D01*
X140110009Y-117084335D01*
X140054150Y-117040514D01*
X140030700Y-116967305D01*
X140030700Y-116714516D01*
X140050702Y-116646395D01*
X140104358Y-116599902D01*
X140116184Y-116595208D01*
X140151165Y-116583334D01*
X140328276Y-116484147D01*
X140367969Y-116451135D01*
X140479913Y-116358031D01*
X140484345Y-116354345D01*
X140614147Y-116198276D01*
X140673845Y-116091677D01*
X140710510Y-116026208D01*
X140710511Y-116026206D01*
X140713334Y-116021165D01*
X140715190Y-116015698D01*
X140715192Y-116015693D01*
X140776728Y-115834414D01*
X140776729Y-115834409D01*
X140778584Y-115828945D01*
X140779412Y-115823236D01*
X140779413Y-115823231D01*
X140803314Y-115658386D01*
X140807712Y-115628053D01*
X140809232Y-115570000D01*
X140790658Y-115367859D01*
X140789090Y-115362299D01*
X140737125Y-115178046D01*
X140737124Y-115178044D01*
X140735557Y-115172487D01*
X140724978Y-115151033D01*
X140648331Y-114995609D01*
X140645776Y-114990428D01*
X140524320Y-114827779D01*
X140375258Y-114689987D01*
X140370375Y-114686906D01*
X140370371Y-114686903D01*
X140208464Y-114584748D01*
X140203581Y-114581667D01*
X140015039Y-114506446D01*
X140009379Y-114505320D01*
X140009375Y-114505319D01*
X139821613Y-114467971D01*
X139821610Y-114467971D01*
X139815946Y-114466844D01*
X139810171Y-114466768D01*
X139810167Y-114466768D01*
X139708793Y-114465441D01*
X139612971Y-114464187D01*
X139607274Y-114465166D01*
X139607273Y-114465166D01*
X139519397Y-114480266D01*
X139412910Y-114498564D01*
X139222463Y-114568824D01*
X139048010Y-114672612D01*
X139043670Y-114676418D01*
X139043666Y-114676421D01*
X138899733Y-114802648D01*
X138895392Y-114806455D01*
X138769720Y-114965869D01*
X138767031Y-114970980D01*
X138767029Y-114970983D01*
X138755456Y-114992980D01*
X138675203Y-115145515D01*
X138615007Y-115339378D01*
X138591148Y-115540964D01*
X138604424Y-115743522D01*
X138605845Y-115749118D01*
X138605846Y-115749123D01*
X138626119Y-115828945D01*
X138654392Y-115940269D01*
X138656809Y-115945512D01*
X138694010Y-116026208D01*
X138739377Y-116124616D01*
X138856533Y-116290389D01*
X138860675Y-116294424D01*
X138873399Y-116306819D01*
X139001938Y-116432035D01*
X139170720Y-116544812D01*
X139176023Y-116547090D01*
X139176026Y-116547092D01*
X139293038Y-116597364D01*
X139347731Y-116642632D01*
X139369300Y-116713132D01*
X139369300Y-116966836D01*
X139349298Y-117034957D01*
X139295642Y-117081450D01*
X139286914Y-117085047D01*
X139222463Y-117108824D01*
X139048010Y-117212612D01*
X139043670Y-117216418D01*
X139043666Y-117216421D01*
X139002888Y-117252183D01*
X138895392Y-117346455D01*
X138769720Y-117505869D01*
X138767031Y-117510980D01*
X138767029Y-117510983D01*
X138721753Y-117597039D01*
X138675203Y-117685515D01*
X138615007Y-117879378D01*
X138591148Y-118080964D01*
X138604424Y-118283522D01*
X138605845Y-118289118D01*
X138605846Y-118289123D01*
X138626119Y-118368945D01*
X138654392Y-118480269D01*
X138656809Y-118485512D01*
X138694010Y-118566208D01*
X138739377Y-118664616D01*
X138742710Y-118669332D01*
X138818200Y-118776148D01*
X138856533Y-118830389D01*
X138860675Y-118834424D01*
X138946525Y-118918055D01*
X138981363Y-118979916D01*
X138977226Y-119050792D01*
X138935427Y-119108180D01*
X138869237Y-119133860D01*
X138858657Y-119134309D01*
X138575733Y-119134423D01*
X138004004Y-119134653D01*
X137935875Y-119114678D01*
X137889360Y-119061041D01*
X137879228Y-118990772D01*
X137908695Y-118926179D01*
X137923383Y-118911779D01*
X137939913Y-118898031D01*
X137939915Y-118898029D01*
X137944345Y-118894345D01*
X138028971Y-118792594D01*
X138070453Y-118742718D01*
X138070455Y-118742715D01*
X138074147Y-118738276D01*
X138173334Y-118561165D01*
X138175190Y-118555698D01*
X138175192Y-118555693D01*
X138236728Y-118374414D01*
X138236729Y-118374409D01*
X138238584Y-118368945D01*
X138239412Y-118363236D01*
X138239413Y-118363231D01*
X138267179Y-118171727D01*
X138267712Y-118168053D01*
X138269232Y-118110000D01*
X138250658Y-117907859D01*
X138249090Y-117902299D01*
X138197125Y-117718046D01*
X138197124Y-117718044D01*
X138195557Y-117712487D01*
X138184978Y-117691033D01*
X138108331Y-117535609D01*
X138105776Y-117530428D01*
X137984320Y-117367779D01*
X137835258Y-117229987D01*
X137830375Y-117226906D01*
X137830371Y-117226903D01*
X137668464Y-117124748D01*
X137663581Y-117121667D01*
X137658212Y-117119525D01*
X137570009Y-117084335D01*
X137514150Y-117040514D01*
X137490700Y-116967305D01*
X137490700Y-116714516D01*
X137510702Y-116646395D01*
X137564358Y-116599902D01*
X137576184Y-116595208D01*
X137611165Y-116583334D01*
X137788276Y-116484147D01*
X137827969Y-116451135D01*
X137939913Y-116358031D01*
X137944345Y-116354345D01*
X138074147Y-116198276D01*
X138133845Y-116091677D01*
X138170510Y-116026208D01*
X138170511Y-116026206D01*
X138173334Y-116021165D01*
X138175190Y-116015698D01*
X138175192Y-116015693D01*
X138236728Y-115834414D01*
X138236729Y-115834409D01*
X138238584Y-115828945D01*
X138239412Y-115823236D01*
X138239413Y-115823231D01*
X138263314Y-115658386D01*
X138267712Y-115628053D01*
X138269232Y-115570000D01*
X138250658Y-115367859D01*
X138249090Y-115362299D01*
X138197125Y-115178046D01*
X138197124Y-115178044D01*
X138195557Y-115172487D01*
X138184978Y-115151033D01*
X138108331Y-114995609D01*
X138105776Y-114990428D01*
X137984320Y-114827779D01*
X137835258Y-114689987D01*
X137830375Y-114686906D01*
X137830371Y-114686903D01*
X137668464Y-114584748D01*
X137663581Y-114581667D01*
X137475039Y-114506446D01*
X137469379Y-114505320D01*
X137469375Y-114505319D01*
X137281613Y-114467971D01*
X137281610Y-114467971D01*
X137275946Y-114466844D01*
X137270171Y-114466768D01*
X137270167Y-114466768D01*
X137168793Y-114465441D01*
X137072971Y-114464187D01*
X137067274Y-114465166D01*
X137067273Y-114465166D01*
X136979397Y-114480266D01*
X136872910Y-114498564D01*
X136682463Y-114568824D01*
X136508010Y-114672612D01*
X136503670Y-114676418D01*
X136503666Y-114676421D01*
X136359733Y-114802648D01*
X136355392Y-114806455D01*
X136229720Y-114965869D01*
X136227031Y-114970980D01*
X136227029Y-114970983D01*
X136215456Y-114992980D01*
X136135203Y-115145515D01*
X136075007Y-115339378D01*
X136051148Y-115540964D01*
X136064424Y-115743522D01*
X136065845Y-115749118D01*
X136065846Y-115749123D01*
X136086119Y-115828945D01*
X136114392Y-115940269D01*
X136116809Y-115945512D01*
X136154010Y-116026208D01*
X136199377Y-116124616D01*
X136316533Y-116290389D01*
X136320675Y-116294424D01*
X136333399Y-116306819D01*
X136461938Y-116432035D01*
X136630720Y-116544812D01*
X136636023Y-116547090D01*
X136636026Y-116547092D01*
X136753038Y-116597364D01*
X136807731Y-116642632D01*
X136829300Y-116713132D01*
X136829300Y-116966836D01*
X136809298Y-117034957D01*
X136755642Y-117081450D01*
X136746914Y-117085047D01*
X136682463Y-117108824D01*
X136508010Y-117212612D01*
X136503670Y-117216418D01*
X136503666Y-117216421D01*
X136462888Y-117252183D01*
X136355392Y-117346455D01*
X136229720Y-117505869D01*
X136227031Y-117510980D01*
X136227029Y-117510983D01*
X136181753Y-117597039D01*
X136135203Y-117685515D01*
X136075007Y-117879378D01*
X136051148Y-118080964D01*
X136064424Y-118283522D01*
X136065845Y-118289118D01*
X136065846Y-118289123D01*
X136086119Y-118368945D01*
X136114392Y-118480269D01*
X136116809Y-118485512D01*
X136154010Y-118566208D01*
X136199377Y-118664616D01*
X136202710Y-118669332D01*
X136278200Y-118776148D01*
X136316533Y-118830389D01*
X136407576Y-118919078D01*
X136442412Y-118980937D01*
X136438275Y-119051813D01*
X136396477Y-119109201D01*
X136330287Y-119134880D01*
X136319704Y-119135330D01*
X135462775Y-119135675D01*
X135394646Y-119115700D01*
X135348131Y-119062063D01*
X135337999Y-118991794D01*
X135367466Y-118927201D01*
X135382155Y-118912801D01*
X135399908Y-118898036D01*
X135399915Y-118898029D01*
X135404345Y-118894345D01*
X135488971Y-118792594D01*
X135530453Y-118742718D01*
X135530455Y-118742715D01*
X135534147Y-118738276D01*
X135633334Y-118561165D01*
X135635190Y-118555698D01*
X135635192Y-118555693D01*
X135696728Y-118374414D01*
X135696729Y-118374409D01*
X135698584Y-118368945D01*
X135699412Y-118363236D01*
X135699413Y-118363231D01*
X135727179Y-118171727D01*
X135727712Y-118168053D01*
X135729232Y-118110000D01*
X135710658Y-117907859D01*
X135709090Y-117902299D01*
X135657125Y-117718046D01*
X135657124Y-117718044D01*
X135655557Y-117712487D01*
X135644978Y-117691033D01*
X135568331Y-117535609D01*
X135565776Y-117530428D01*
X135444320Y-117367779D01*
X135295258Y-117229987D01*
X135290375Y-117226906D01*
X135290371Y-117226903D01*
X135128464Y-117124748D01*
X135123581Y-117121667D01*
X135118212Y-117119525D01*
X135030009Y-117084335D01*
X134974150Y-117040514D01*
X134950700Y-116967305D01*
X134950700Y-116714516D01*
X134970702Y-116646395D01*
X135024358Y-116599902D01*
X135036184Y-116595208D01*
X135071165Y-116583334D01*
X135248276Y-116484147D01*
X135287969Y-116451135D01*
X135399913Y-116358031D01*
X135404345Y-116354345D01*
X135534147Y-116198276D01*
X135593845Y-116091677D01*
X135630510Y-116026208D01*
X135630511Y-116026206D01*
X135633334Y-116021165D01*
X135635190Y-116015698D01*
X135635192Y-116015693D01*
X135696728Y-115834414D01*
X135696729Y-115834409D01*
X135698584Y-115828945D01*
X135699412Y-115823236D01*
X135699413Y-115823231D01*
X135723314Y-115658386D01*
X135727712Y-115628053D01*
X135729232Y-115570000D01*
X135710658Y-115367859D01*
X135709090Y-115362299D01*
X135657125Y-115178046D01*
X135657124Y-115178044D01*
X135655557Y-115172487D01*
X135644978Y-115151033D01*
X135568331Y-114995609D01*
X135565776Y-114990428D01*
X135444320Y-114827779D01*
X135295258Y-114689987D01*
X135290375Y-114686906D01*
X135290371Y-114686903D01*
X135128464Y-114584748D01*
X135123581Y-114581667D01*
X134935039Y-114506446D01*
X134929379Y-114505320D01*
X134929375Y-114505319D01*
X134741613Y-114467971D01*
X134741610Y-114467971D01*
X134735946Y-114466844D01*
X134730171Y-114466768D01*
X134730167Y-114466768D01*
X134628793Y-114465441D01*
X134532971Y-114464187D01*
X134527274Y-114465166D01*
X134527273Y-114465166D01*
X134439397Y-114480266D01*
X134332910Y-114498564D01*
X134142463Y-114568824D01*
X133968010Y-114672612D01*
X133963670Y-114676418D01*
X133963666Y-114676421D01*
X133819733Y-114802648D01*
X133815392Y-114806455D01*
X133689720Y-114965869D01*
X133687031Y-114970980D01*
X133687029Y-114970983D01*
X133675456Y-114992980D01*
X133595203Y-115145515D01*
X133535007Y-115339378D01*
X133511148Y-115540964D01*
X133524424Y-115743522D01*
X133525845Y-115749118D01*
X133525846Y-115749123D01*
X133546119Y-115828945D01*
X133574392Y-115940269D01*
X133576809Y-115945512D01*
X133614010Y-116026208D01*
X133659377Y-116124616D01*
X133776533Y-116290389D01*
X133780675Y-116294424D01*
X133793399Y-116306819D01*
X133921938Y-116432035D01*
X134090720Y-116544812D01*
X134096023Y-116547090D01*
X134096026Y-116547092D01*
X134213038Y-116597364D01*
X134267731Y-116642632D01*
X134289300Y-116713132D01*
X134289300Y-116966836D01*
X134269298Y-117034957D01*
X134215642Y-117081450D01*
X134206914Y-117085047D01*
X134142463Y-117108824D01*
X133968010Y-117212612D01*
X133963670Y-117216418D01*
X133963666Y-117216421D01*
X133922888Y-117252183D01*
X133815392Y-117346455D01*
X133689720Y-117505869D01*
X133687031Y-117510980D01*
X133687029Y-117510983D01*
X133641753Y-117597039D01*
X133595203Y-117685515D01*
X133535007Y-117879378D01*
X133511148Y-118080964D01*
X133524424Y-118283522D01*
X133525845Y-118289118D01*
X133525846Y-118289123D01*
X133546119Y-118368945D01*
X133574392Y-118480269D01*
X133576809Y-118485512D01*
X133614010Y-118566208D01*
X133659377Y-118664616D01*
X133662710Y-118669332D01*
X133738200Y-118776148D01*
X133776533Y-118830389D01*
X133868625Y-118920100D01*
X133903461Y-118981959D01*
X133899324Y-119052835D01*
X133857525Y-119110223D01*
X133791336Y-119135902D01*
X133780755Y-119136352D01*
X132921544Y-119136698D01*
X132853416Y-119116723D01*
X132806901Y-119063086D01*
X132796769Y-118992817D01*
X132826236Y-118928224D01*
X132840925Y-118913824D01*
X132859908Y-118898036D01*
X132859915Y-118898029D01*
X132864345Y-118894345D01*
X132948971Y-118792594D01*
X132990453Y-118742718D01*
X132990455Y-118742715D01*
X132994147Y-118738276D01*
X133093334Y-118561165D01*
X133095190Y-118555698D01*
X133095192Y-118555693D01*
X133156728Y-118374414D01*
X133156729Y-118374409D01*
X133158584Y-118368945D01*
X133159412Y-118363236D01*
X133159413Y-118363231D01*
X133187179Y-118171727D01*
X133187712Y-118168053D01*
X133189232Y-118110000D01*
X133170658Y-117907859D01*
X133169090Y-117902299D01*
X133117125Y-117718046D01*
X133117124Y-117718044D01*
X133115557Y-117712487D01*
X133104978Y-117691033D01*
X133028331Y-117535609D01*
X133025776Y-117530428D01*
X132904320Y-117367779D01*
X132755258Y-117229987D01*
X132750375Y-117226906D01*
X132750371Y-117226903D01*
X132588464Y-117124748D01*
X132583581Y-117121667D01*
X132578212Y-117119525D01*
X132490009Y-117084335D01*
X132434150Y-117040514D01*
X132410700Y-116967305D01*
X132410700Y-116714516D01*
X132430702Y-116646395D01*
X132484358Y-116599902D01*
X132496184Y-116595208D01*
X132531165Y-116583334D01*
X132708276Y-116484147D01*
X132747969Y-116451135D01*
X132859913Y-116358031D01*
X132864345Y-116354345D01*
X132994147Y-116198276D01*
X133053845Y-116091677D01*
X133090510Y-116026208D01*
X133090511Y-116026206D01*
X133093334Y-116021165D01*
X133095190Y-116015698D01*
X133095192Y-116015693D01*
X133156728Y-115834414D01*
X133156729Y-115834409D01*
X133158584Y-115828945D01*
X133159412Y-115823236D01*
X133159413Y-115823231D01*
X133183314Y-115658386D01*
X133187712Y-115628053D01*
X133189232Y-115570000D01*
X133170658Y-115367859D01*
X133169090Y-115362299D01*
X133117125Y-115178046D01*
X133117124Y-115178044D01*
X133115557Y-115172487D01*
X133104978Y-115151033D01*
X133028331Y-114995609D01*
X133025776Y-114990428D01*
X132904320Y-114827779D01*
X132755258Y-114689987D01*
X132750375Y-114686906D01*
X132750371Y-114686903D01*
X132588464Y-114584748D01*
X132583581Y-114581667D01*
X132395039Y-114506446D01*
X132389379Y-114505320D01*
X132389375Y-114505319D01*
X132201613Y-114467971D01*
X132201610Y-114467971D01*
X132195946Y-114466844D01*
X132190171Y-114466768D01*
X132190167Y-114466768D01*
X132088793Y-114465441D01*
X131992971Y-114464187D01*
X131987274Y-114465166D01*
X131987273Y-114465166D01*
X131899397Y-114480266D01*
X131792910Y-114498564D01*
X131602463Y-114568824D01*
X131428010Y-114672612D01*
X131423670Y-114676418D01*
X131423666Y-114676421D01*
X131279733Y-114802648D01*
X131275392Y-114806455D01*
X131149720Y-114965869D01*
X131147031Y-114970980D01*
X131147029Y-114970983D01*
X131135456Y-114992980D01*
X131055203Y-115145515D01*
X130995007Y-115339378D01*
X130971148Y-115540964D01*
X130984424Y-115743522D01*
X130985845Y-115749118D01*
X130985846Y-115749123D01*
X131006119Y-115828945D01*
X131034392Y-115940269D01*
X131036809Y-115945512D01*
X131074010Y-116026208D01*
X131119377Y-116124616D01*
X131236533Y-116290389D01*
X131240675Y-116294424D01*
X131253399Y-116306819D01*
X131381938Y-116432035D01*
X131550720Y-116544812D01*
X131556023Y-116547090D01*
X131556026Y-116547092D01*
X131673038Y-116597364D01*
X131727731Y-116642632D01*
X131749300Y-116713132D01*
X131749300Y-116966836D01*
X131729298Y-117034957D01*
X131675642Y-117081450D01*
X131666914Y-117085047D01*
X131602463Y-117108824D01*
X131428010Y-117212612D01*
X131423670Y-117216418D01*
X131423666Y-117216421D01*
X131382888Y-117252183D01*
X131275392Y-117346455D01*
X131149720Y-117505869D01*
X131147031Y-117510980D01*
X131147029Y-117510983D01*
X131101753Y-117597039D01*
X131055203Y-117685515D01*
X130995007Y-117879378D01*
X130971148Y-118080964D01*
X130984424Y-118283522D01*
X130985845Y-118289118D01*
X130985846Y-118289123D01*
X131006119Y-118368945D01*
X131034392Y-118480269D01*
X131036809Y-118485512D01*
X131074010Y-118566208D01*
X131119377Y-118664616D01*
X131122710Y-118669332D01*
X131198200Y-118776148D01*
X131236533Y-118830389D01*
X131329673Y-118921121D01*
X131364509Y-118982980D01*
X131360372Y-119053856D01*
X131318573Y-119111244D01*
X131252384Y-119136923D01*
X131241801Y-119137373D01*
X130380316Y-119137720D01*
X130312187Y-119117745D01*
X130265672Y-119064108D01*
X130255540Y-118993839D01*
X130285007Y-118929246D01*
X130299696Y-118914846D01*
X130319908Y-118898036D01*
X130319915Y-118898029D01*
X130324345Y-118894345D01*
X130408971Y-118792594D01*
X130450453Y-118742718D01*
X130450455Y-118742715D01*
X130454147Y-118738276D01*
X130553334Y-118561165D01*
X130555190Y-118555698D01*
X130555192Y-118555693D01*
X130616728Y-118374414D01*
X130616729Y-118374409D01*
X130618584Y-118368945D01*
X130619412Y-118363236D01*
X130619413Y-118363231D01*
X130647179Y-118171727D01*
X130647712Y-118168053D01*
X130649232Y-118110000D01*
X130630658Y-117907859D01*
X130629090Y-117902299D01*
X130577125Y-117718046D01*
X130577124Y-117718044D01*
X130575557Y-117712487D01*
X130564978Y-117691033D01*
X130488331Y-117535609D01*
X130485776Y-117530428D01*
X130364320Y-117367779D01*
X130215258Y-117229987D01*
X130210375Y-117226906D01*
X130210371Y-117226903D01*
X130048464Y-117124748D01*
X130043581Y-117121667D01*
X130038212Y-117119525D01*
X129950009Y-117084335D01*
X129894150Y-117040514D01*
X129870700Y-116967305D01*
X129870700Y-116714516D01*
X129890702Y-116646395D01*
X129944358Y-116599902D01*
X129956184Y-116595208D01*
X129991165Y-116583334D01*
X130168276Y-116484147D01*
X130207969Y-116451135D01*
X130319913Y-116358031D01*
X130324345Y-116354345D01*
X130454147Y-116198276D01*
X130513845Y-116091677D01*
X130550510Y-116026208D01*
X130550511Y-116026206D01*
X130553334Y-116021165D01*
X130555190Y-116015698D01*
X130555192Y-116015693D01*
X130616728Y-115834414D01*
X130616729Y-115834409D01*
X130618584Y-115828945D01*
X130619412Y-115823236D01*
X130619413Y-115823231D01*
X130643314Y-115658386D01*
X130647712Y-115628053D01*
X130649232Y-115570000D01*
X130630658Y-115367859D01*
X130629090Y-115362299D01*
X130577125Y-115178046D01*
X130577124Y-115178044D01*
X130575557Y-115172487D01*
X130564978Y-115151033D01*
X130488331Y-114995609D01*
X130485776Y-114990428D01*
X130364320Y-114827779D01*
X130215258Y-114689987D01*
X130210375Y-114686906D01*
X130210371Y-114686903D01*
X130048464Y-114584748D01*
X130043581Y-114581667D01*
X129855039Y-114506446D01*
X129849379Y-114505320D01*
X129849375Y-114505319D01*
X129661613Y-114467971D01*
X129661610Y-114467971D01*
X129655946Y-114466844D01*
X129650171Y-114466768D01*
X129650167Y-114466768D01*
X129548793Y-114465441D01*
X129452971Y-114464187D01*
X129447274Y-114465166D01*
X129447273Y-114465166D01*
X129359397Y-114480266D01*
X129252910Y-114498564D01*
X129062463Y-114568824D01*
X128888010Y-114672612D01*
X128883670Y-114676418D01*
X128883666Y-114676421D01*
X128739733Y-114802648D01*
X128735392Y-114806455D01*
X128609720Y-114965869D01*
X128607031Y-114970980D01*
X128607029Y-114970983D01*
X128595456Y-114992980D01*
X128515203Y-115145515D01*
X128455007Y-115339378D01*
X128431148Y-115540964D01*
X128444424Y-115743522D01*
X128445845Y-115749118D01*
X128445846Y-115749123D01*
X128466119Y-115828945D01*
X128494392Y-115940269D01*
X128496809Y-115945512D01*
X128534010Y-116026208D01*
X128579377Y-116124616D01*
X128696533Y-116290389D01*
X128700675Y-116294424D01*
X128713399Y-116306819D01*
X128841938Y-116432035D01*
X129010720Y-116544812D01*
X129016023Y-116547090D01*
X129016026Y-116547092D01*
X129133038Y-116597364D01*
X129187731Y-116642632D01*
X129209300Y-116713132D01*
X129209300Y-116966836D01*
X129189298Y-117034957D01*
X129135642Y-117081450D01*
X129126914Y-117085047D01*
X129062463Y-117108824D01*
X128888010Y-117212612D01*
X128883670Y-117216418D01*
X128883666Y-117216421D01*
X128842888Y-117252183D01*
X128735392Y-117346455D01*
X128609720Y-117505869D01*
X128607031Y-117510980D01*
X128607029Y-117510983D01*
X128561753Y-117597039D01*
X128515203Y-117685515D01*
X128455007Y-117879378D01*
X128431148Y-118080964D01*
X128444424Y-118283522D01*
X128445845Y-118289118D01*
X128445846Y-118289123D01*
X128466119Y-118368945D01*
X128494392Y-118480269D01*
X128496809Y-118485512D01*
X128534010Y-118566208D01*
X128579377Y-118664616D01*
X128582710Y-118669332D01*
X128658200Y-118776148D01*
X128696533Y-118830389D01*
X128786526Y-118918055D01*
X128790720Y-118922141D01*
X128825558Y-118984002D01*
X128821421Y-119054878D01*
X128779622Y-119112266D01*
X128713433Y-119137945D01*
X128702852Y-119138395D01*
X128537560Y-119138461D01*
X127839087Y-119138742D01*
X127770958Y-119118767D01*
X127724443Y-119065130D01*
X127714311Y-118994860D01*
X127743778Y-118930268D01*
X127758463Y-118915871D01*
X127784345Y-118894345D01*
X127868971Y-118792594D01*
X127910453Y-118742718D01*
X127910455Y-118742715D01*
X127914147Y-118738276D01*
X128013334Y-118561165D01*
X128015190Y-118555698D01*
X128015192Y-118555693D01*
X128076728Y-118374414D01*
X128076729Y-118374409D01*
X128078584Y-118368945D01*
X128079412Y-118363236D01*
X128079413Y-118363231D01*
X128107179Y-118171727D01*
X128107712Y-118168053D01*
X128109232Y-118110000D01*
X128090658Y-117907859D01*
X128089090Y-117902299D01*
X128037125Y-117718046D01*
X128037124Y-117718044D01*
X128035557Y-117712487D01*
X128024978Y-117691033D01*
X127948331Y-117535609D01*
X127945776Y-117530428D01*
X127824320Y-117367779D01*
X127675258Y-117229987D01*
X127670375Y-117226906D01*
X127670371Y-117226903D01*
X127508464Y-117124748D01*
X127503581Y-117121667D01*
X127498212Y-117119525D01*
X127410009Y-117084335D01*
X127354150Y-117040514D01*
X127330700Y-116967305D01*
X127330700Y-116714516D01*
X127350702Y-116646395D01*
X127404358Y-116599902D01*
X127416184Y-116595208D01*
X127451165Y-116583334D01*
X127628276Y-116484147D01*
X127667969Y-116451135D01*
X127779913Y-116358031D01*
X127784345Y-116354345D01*
X127914147Y-116198276D01*
X127973845Y-116091677D01*
X128010510Y-116026208D01*
X128010511Y-116026206D01*
X128013334Y-116021165D01*
X128015190Y-116015698D01*
X128015192Y-116015693D01*
X128076728Y-115834414D01*
X128076729Y-115834409D01*
X128078584Y-115828945D01*
X128079412Y-115823236D01*
X128079413Y-115823231D01*
X128103314Y-115658386D01*
X128107712Y-115628053D01*
X128109232Y-115570000D01*
X128090658Y-115367859D01*
X128089090Y-115362299D01*
X128037125Y-115178046D01*
X128037124Y-115178044D01*
X128035557Y-115172487D01*
X128024978Y-115151033D01*
X127948331Y-114995609D01*
X127945776Y-114990428D01*
X127824320Y-114827779D01*
X127675258Y-114689987D01*
X127670375Y-114686906D01*
X127670371Y-114686903D01*
X127508464Y-114584748D01*
X127503581Y-114581667D01*
X127315039Y-114506446D01*
X127309379Y-114505320D01*
X127309375Y-114505319D01*
X127121613Y-114467971D01*
X127121610Y-114467971D01*
X127115946Y-114466844D01*
X127110171Y-114466768D01*
X127110167Y-114466768D01*
X127008793Y-114465441D01*
X126912971Y-114464187D01*
X126907274Y-114465166D01*
X126907273Y-114465166D01*
X126819397Y-114480266D01*
X126712910Y-114498564D01*
X126522463Y-114568824D01*
X126348010Y-114672612D01*
X126343670Y-114676418D01*
X126343666Y-114676421D01*
X126199733Y-114802648D01*
X126195392Y-114806455D01*
X126069720Y-114965869D01*
X126067031Y-114970980D01*
X126067029Y-114970983D01*
X126055456Y-114992980D01*
X125975203Y-115145515D01*
X125915007Y-115339378D01*
X125891148Y-115540964D01*
X125904424Y-115743522D01*
X125905845Y-115749118D01*
X125905846Y-115749123D01*
X125926119Y-115828945D01*
X125954392Y-115940269D01*
X125956809Y-115945512D01*
X125994010Y-116026208D01*
X126039377Y-116124616D01*
X126156533Y-116290389D01*
X126160675Y-116294424D01*
X126173399Y-116306819D01*
X126301938Y-116432035D01*
X126470720Y-116544812D01*
X126476023Y-116547090D01*
X126476026Y-116547092D01*
X126593038Y-116597364D01*
X126647731Y-116642632D01*
X126669300Y-116713132D01*
X126669300Y-116966836D01*
X126649298Y-117034957D01*
X126595642Y-117081450D01*
X126586914Y-117085047D01*
X126522463Y-117108824D01*
X126348010Y-117212612D01*
X126343670Y-117216418D01*
X126343666Y-117216421D01*
X126302888Y-117252183D01*
X126195392Y-117346455D01*
X126069720Y-117505869D01*
X126067031Y-117510980D01*
X126067029Y-117510983D01*
X126021753Y-117597039D01*
X125975203Y-117685515D01*
X125915007Y-117879378D01*
X125891148Y-118080964D01*
X125904424Y-118283522D01*
X125905845Y-118289118D01*
X125905846Y-118289123D01*
X125926119Y-118368945D01*
X125954392Y-118480269D01*
X125956809Y-118485512D01*
X125994010Y-118566208D01*
X126039377Y-118664616D01*
X126042710Y-118669332D01*
X126118200Y-118776148D01*
X126156533Y-118830389D01*
X126160675Y-118834424D01*
X126251768Y-118923162D01*
X126286606Y-118985023D01*
X126282469Y-119055899D01*
X126240670Y-119113287D01*
X126174481Y-119138966D01*
X126163898Y-119139416D01*
X125622824Y-119139634D01*
X125297857Y-119139765D01*
X125229729Y-119119790D01*
X125183214Y-119066153D01*
X125173082Y-118995884D01*
X125202549Y-118931291D01*
X125217237Y-118916892D01*
X125239906Y-118898038D01*
X125239915Y-118898029D01*
X125244345Y-118894345D01*
X125328971Y-118792594D01*
X125370453Y-118742718D01*
X125370455Y-118742715D01*
X125374147Y-118738276D01*
X125473334Y-118561165D01*
X125475190Y-118555698D01*
X125475192Y-118555693D01*
X125536728Y-118374414D01*
X125536729Y-118374409D01*
X125538584Y-118368945D01*
X125539412Y-118363236D01*
X125539413Y-118363231D01*
X125567179Y-118171727D01*
X125567712Y-118168053D01*
X125569232Y-118110000D01*
X125550658Y-117907859D01*
X125549090Y-117902299D01*
X125497125Y-117718046D01*
X125497124Y-117718044D01*
X125495557Y-117712487D01*
X125484978Y-117691033D01*
X125408331Y-117535609D01*
X125405776Y-117530428D01*
X125284320Y-117367779D01*
X125135258Y-117229987D01*
X125130375Y-117226906D01*
X125130371Y-117226903D01*
X124968464Y-117124748D01*
X124963581Y-117121667D01*
X124958212Y-117119525D01*
X124870009Y-117084335D01*
X124814150Y-117040514D01*
X124790700Y-116967305D01*
X124790700Y-116714516D01*
X124810702Y-116646395D01*
X124864358Y-116599902D01*
X124876184Y-116595208D01*
X124911165Y-116583334D01*
X125088276Y-116484147D01*
X125127969Y-116451135D01*
X125239913Y-116358031D01*
X125244345Y-116354345D01*
X125374147Y-116198276D01*
X125433845Y-116091677D01*
X125470510Y-116026208D01*
X125470511Y-116026206D01*
X125473334Y-116021165D01*
X125475190Y-116015698D01*
X125475192Y-116015693D01*
X125536728Y-115834414D01*
X125536729Y-115834409D01*
X125538584Y-115828945D01*
X125539412Y-115823236D01*
X125539413Y-115823231D01*
X125563314Y-115658386D01*
X125567712Y-115628053D01*
X125569232Y-115570000D01*
X125550658Y-115367859D01*
X125549090Y-115362299D01*
X125497125Y-115178046D01*
X125497124Y-115178044D01*
X125495557Y-115172487D01*
X125484978Y-115151033D01*
X125408331Y-114995609D01*
X125405776Y-114990428D01*
X125284320Y-114827779D01*
X125135258Y-114689987D01*
X125130375Y-114686906D01*
X125130371Y-114686903D01*
X124968464Y-114584748D01*
X124963581Y-114581667D01*
X124775039Y-114506446D01*
X124769379Y-114505320D01*
X124769375Y-114505319D01*
X124581613Y-114467971D01*
X124581610Y-114467971D01*
X124575946Y-114466844D01*
X124570171Y-114466768D01*
X124570167Y-114466768D01*
X124468793Y-114465441D01*
X124372971Y-114464187D01*
X124367274Y-114465166D01*
X124367273Y-114465166D01*
X124279397Y-114480266D01*
X124172910Y-114498564D01*
X123982463Y-114568824D01*
X123808010Y-114672612D01*
X123803670Y-114676418D01*
X123803666Y-114676421D01*
X123659733Y-114802648D01*
X123655392Y-114806455D01*
X123529720Y-114965869D01*
X123527031Y-114970980D01*
X123527029Y-114970983D01*
X123515456Y-114992980D01*
X123435203Y-115145515D01*
X123375007Y-115339378D01*
X123351148Y-115540964D01*
X123364424Y-115743522D01*
X123365845Y-115749118D01*
X123365846Y-115749123D01*
X123386119Y-115828945D01*
X123414392Y-115940269D01*
X123416809Y-115945512D01*
X123454010Y-116026208D01*
X123499377Y-116124616D01*
X123616533Y-116290389D01*
X123620675Y-116294424D01*
X123633399Y-116306819D01*
X123761938Y-116432035D01*
X123930720Y-116544812D01*
X123936023Y-116547090D01*
X123936026Y-116547092D01*
X124053038Y-116597364D01*
X124107731Y-116642632D01*
X124129300Y-116713132D01*
X124129300Y-116966836D01*
X124109298Y-117034957D01*
X124055642Y-117081450D01*
X124046914Y-117085047D01*
X123982463Y-117108824D01*
X123808010Y-117212612D01*
X123803670Y-117216418D01*
X123803666Y-117216421D01*
X123762888Y-117252183D01*
X123655392Y-117346455D01*
X123529720Y-117505869D01*
X123527031Y-117510980D01*
X123527029Y-117510983D01*
X123481753Y-117597039D01*
X123435203Y-117685515D01*
X123375007Y-117879378D01*
X123351148Y-118080964D01*
X123364424Y-118283522D01*
X123365845Y-118289118D01*
X123365846Y-118289123D01*
X123386119Y-118368945D01*
X123414392Y-118480269D01*
X123416809Y-118485512D01*
X123454010Y-118566208D01*
X123499377Y-118664616D01*
X123502710Y-118669332D01*
X123578200Y-118776148D01*
X123616533Y-118830389D01*
X123620675Y-118834424D01*
X123712817Y-118924184D01*
X123747655Y-118986045D01*
X123743518Y-119056921D01*
X123701719Y-119114309D01*
X123635530Y-119139988D01*
X123624950Y-119140438D01*
X123131067Y-119140637D01*
X122756629Y-119140787D01*
X122688500Y-119120812D01*
X122641985Y-119067175D01*
X122631853Y-118996905D01*
X122661320Y-118932313D01*
X122676008Y-118917914D01*
X122699906Y-118898038D01*
X122699915Y-118898029D01*
X122704345Y-118894345D01*
X122788971Y-118792594D01*
X122830453Y-118742718D01*
X122830455Y-118742715D01*
X122834147Y-118738276D01*
X122933334Y-118561165D01*
X122935190Y-118555698D01*
X122935192Y-118555693D01*
X122996728Y-118374414D01*
X122996729Y-118374409D01*
X122998584Y-118368945D01*
X122999412Y-118363236D01*
X122999413Y-118363231D01*
X123027179Y-118171727D01*
X123027712Y-118168053D01*
X123029232Y-118110000D01*
X123010658Y-117907859D01*
X123009090Y-117902299D01*
X122957125Y-117718046D01*
X122957124Y-117718044D01*
X122955557Y-117712487D01*
X122944978Y-117691033D01*
X122868331Y-117535609D01*
X122865776Y-117530428D01*
X122744320Y-117367779D01*
X122595258Y-117229987D01*
X122590375Y-117226906D01*
X122590371Y-117226903D01*
X122428464Y-117124748D01*
X122423581Y-117121667D01*
X122418212Y-117119525D01*
X122330009Y-117084335D01*
X122274150Y-117040514D01*
X122250700Y-116967305D01*
X122250700Y-116714516D01*
X122270702Y-116646395D01*
X122324358Y-116599902D01*
X122336184Y-116595208D01*
X122371165Y-116583334D01*
X122548276Y-116484147D01*
X122587969Y-116451135D01*
X122699913Y-116358031D01*
X122704345Y-116354345D01*
X122834147Y-116198276D01*
X122893845Y-116091677D01*
X122930510Y-116026208D01*
X122930511Y-116026206D01*
X122933334Y-116021165D01*
X122935190Y-116015698D01*
X122935192Y-116015693D01*
X122996728Y-115834414D01*
X122996729Y-115834409D01*
X122998584Y-115828945D01*
X122999412Y-115823236D01*
X122999413Y-115823231D01*
X123023314Y-115658386D01*
X123027712Y-115628053D01*
X123029232Y-115570000D01*
X123010658Y-115367859D01*
X123009090Y-115362299D01*
X122957125Y-115178046D01*
X122957124Y-115178044D01*
X122955557Y-115172487D01*
X122944978Y-115151033D01*
X122868331Y-114995609D01*
X122865776Y-114990428D01*
X122744320Y-114827779D01*
X122595258Y-114689987D01*
X122590375Y-114686906D01*
X122590371Y-114686903D01*
X122428464Y-114584748D01*
X122423581Y-114581667D01*
X122235039Y-114506446D01*
X122229379Y-114505320D01*
X122229375Y-114505319D01*
X122041613Y-114467971D01*
X122041610Y-114467971D01*
X122035946Y-114466844D01*
X122030171Y-114466768D01*
X122030167Y-114466768D01*
X121928793Y-114465441D01*
X121832971Y-114464187D01*
X121827274Y-114465166D01*
X121827273Y-114465166D01*
X121739397Y-114480266D01*
X121632910Y-114498564D01*
X121442463Y-114568824D01*
X121268010Y-114672612D01*
X121263670Y-114676418D01*
X121263666Y-114676421D01*
X121119733Y-114802648D01*
X121115392Y-114806455D01*
X120989720Y-114965869D01*
X120987031Y-114970980D01*
X120987029Y-114970983D01*
X120975456Y-114992980D01*
X120895203Y-115145515D01*
X120835007Y-115339378D01*
X120811148Y-115540964D01*
X120824424Y-115743522D01*
X120825845Y-115749118D01*
X120825846Y-115749123D01*
X120846119Y-115828945D01*
X120874392Y-115940269D01*
X120876809Y-115945512D01*
X120914010Y-116026208D01*
X120959377Y-116124616D01*
X121076533Y-116290389D01*
X121080675Y-116294424D01*
X121093399Y-116306819D01*
X121221938Y-116432035D01*
X121390720Y-116544812D01*
X121396023Y-116547090D01*
X121396026Y-116547092D01*
X121513038Y-116597364D01*
X121567731Y-116642632D01*
X121589300Y-116713132D01*
X121589300Y-116966836D01*
X121569298Y-117034957D01*
X121515642Y-117081450D01*
X121506914Y-117085047D01*
X121442463Y-117108824D01*
X121268010Y-117212612D01*
X121263670Y-117216418D01*
X121263666Y-117216421D01*
X121222888Y-117252183D01*
X121115392Y-117346455D01*
X120989720Y-117505869D01*
X120987031Y-117510980D01*
X120987029Y-117510983D01*
X120941753Y-117597039D01*
X120895203Y-117685515D01*
X120835007Y-117879378D01*
X120811148Y-118080964D01*
X120824424Y-118283522D01*
X120825845Y-118289118D01*
X120825846Y-118289123D01*
X120846119Y-118368945D01*
X120874392Y-118480269D01*
X120876809Y-118485512D01*
X120914010Y-118566208D01*
X120959377Y-118664616D01*
X120962710Y-118669332D01*
X121038200Y-118776148D01*
X121076533Y-118830389D01*
X121173868Y-118925208D01*
X121208704Y-118987065D01*
X121204567Y-119057941D01*
X121162769Y-119115330D01*
X121096579Y-119141009D01*
X121085996Y-119141459D01*
X120215399Y-119141809D01*
X120147270Y-119121834D01*
X120100755Y-119068197D01*
X120090623Y-118997927D01*
X120120090Y-118933335D01*
X120134780Y-118918934D01*
X120136007Y-118917914D01*
X120140924Y-118913824D01*
X120159909Y-118898035D01*
X120159915Y-118898029D01*
X120164345Y-118894345D01*
X120248971Y-118792594D01*
X120290453Y-118742718D01*
X120290455Y-118742715D01*
X120294147Y-118738276D01*
X120393334Y-118561165D01*
X120395190Y-118555698D01*
X120395192Y-118555693D01*
X120456728Y-118374414D01*
X120456729Y-118374409D01*
X120458584Y-118368945D01*
X120459412Y-118363236D01*
X120459413Y-118363231D01*
X120487179Y-118171727D01*
X120487712Y-118168053D01*
X120489232Y-118110000D01*
X120470658Y-117907859D01*
X120469090Y-117902299D01*
X120417125Y-117718046D01*
X120417124Y-117718044D01*
X120415557Y-117712487D01*
X120404978Y-117691033D01*
X120328331Y-117535609D01*
X120325776Y-117530428D01*
X120204320Y-117367779D01*
X120055258Y-117229987D01*
X120050375Y-117226906D01*
X120050371Y-117226903D01*
X119888464Y-117124748D01*
X119883581Y-117121667D01*
X119878212Y-117119525D01*
X119790009Y-117084335D01*
X119734150Y-117040514D01*
X119710700Y-116967305D01*
X119710700Y-116714516D01*
X119730702Y-116646395D01*
X119784358Y-116599902D01*
X119796184Y-116595208D01*
X119831165Y-116583334D01*
X120008276Y-116484147D01*
X120047969Y-116451135D01*
X120159913Y-116358031D01*
X120164345Y-116354345D01*
X120294147Y-116198276D01*
X120353845Y-116091677D01*
X120390510Y-116026208D01*
X120390511Y-116026206D01*
X120393334Y-116021165D01*
X120395190Y-116015698D01*
X120395192Y-116015693D01*
X120456728Y-115834414D01*
X120456729Y-115834409D01*
X120458584Y-115828945D01*
X120459412Y-115823236D01*
X120459413Y-115823231D01*
X120483314Y-115658386D01*
X120487712Y-115628053D01*
X120489232Y-115570000D01*
X120470658Y-115367859D01*
X120469090Y-115362299D01*
X120417125Y-115178046D01*
X120417124Y-115178044D01*
X120415557Y-115172487D01*
X120404978Y-115151033D01*
X120328331Y-114995609D01*
X120325776Y-114990428D01*
X120204320Y-114827779D01*
X120055258Y-114689987D01*
X120050375Y-114686906D01*
X120050371Y-114686903D01*
X119888464Y-114584748D01*
X119883581Y-114581667D01*
X119695039Y-114506446D01*
X119689379Y-114505320D01*
X119689375Y-114505319D01*
X119501613Y-114467971D01*
X119501610Y-114467971D01*
X119495946Y-114466844D01*
X119490171Y-114466768D01*
X119490167Y-114466768D01*
X119388793Y-114465441D01*
X119292971Y-114464187D01*
X119287274Y-114465166D01*
X119287273Y-114465166D01*
X119199397Y-114480266D01*
X119092910Y-114498564D01*
X118902463Y-114568824D01*
X118728010Y-114672612D01*
X118723670Y-114676418D01*
X118723666Y-114676421D01*
X118579733Y-114802648D01*
X118575392Y-114806455D01*
X118449720Y-114965869D01*
X118447031Y-114970980D01*
X118447029Y-114970983D01*
X118435456Y-114992980D01*
X118355203Y-115145515D01*
X118295007Y-115339378D01*
X118271148Y-115540964D01*
X118284424Y-115743522D01*
X118285845Y-115749118D01*
X118285846Y-115749123D01*
X118306119Y-115828945D01*
X118334392Y-115940269D01*
X118336809Y-115945512D01*
X118374010Y-116026208D01*
X118419377Y-116124616D01*
X118536533Y-116290389D01*
X118540675Y-116294424D01*
X118553399Y-116306819D01*
X118681938Y-116432035D01*
X118850720Y-116544812D01*
X118856023Y-116547090D01*
X118856026Y-116547092D01*
X118973038Y-116597364D01*
X119027731Y-116642632D01*
X119049300Y-116713132D01*
X119049300Y-116966836D01*
X119029298Y-117034957D01*
X118975642Y-117081450D01*
X118966914Y-117085047D01*
X118902463Y-117108824D01*
X118728010Y-117212612D01*
X118723670Y-117216418D01*
X118723666Y-117216421D01*
X118682888Y-117252183D01*
X118575392Y-117346455D01*
X118449720Y-117505869D01*
X118447031Y-117510980D01*
X118447029Y-117510983D01*
X118401753Y-117597039D01*
X118355203Y-117685515D01*
X118295007Y-117879378D01*
X118271148Y-118080964D01*
X118284424Y-118283522D01*
X118285845Y-118289118D01*
X118285846Y-118289123D01*
X118306119Y-118368945D01*
X118334392Y-118480269D01*
X118336809Y-118485512D01*
X118374010Y-118566208D01*
X118419377Y-118664616D01*
X118422710Y-118669332D01*
X118498200Y-118776148D01*
X118536533Y-118830389D01*
X118540675Y-118834424D01*
X118634914Y-118926227D01*
X118669752Y-118988088D01*
X118665615Y-119058964D01*
X118623816Y-119116352D01*
X118557626Y-119142032D01*
X118547047Y-119142481D01*
X117674169Y-119142832D01*
X117606041Y-119122857D01*
X117559526Y-119069220D01*
X117549394Y-118998950D01*
X117578861Y-118934358D01*
X117593549Y-118919958D01*
X117619912Y-118898032D01*
X117619915Y-118898029D01*
X117624345Y-118894345D01*
X117708971Y-118792594D01*
X117750453Y-118742718D01*
X117750455Y-118742715D01*
X117754147Y-118738276D01*
X117853334Y-118561165D01*
X117855190Y-118555698D01*
X117855192Y-118555693D01*
X117916728Y-118374414D01*
X117916729Y-118374409D01*
X117918584Y-118368945D01*
X117919412Y-118363236D01*
X117919413Y-118363231D01*
X117947179Y-118171727D01*
X117947712Y-118168053D01*
X117949232Y-118110000D01*
X117930658Y-117907859D01*
X117929090Y-117902299D01*
X117877125Y-117718046D01*
X117877124Y-117718044D01*
X117875557Y-117712487D01*
X117864978Y-117691033D01*
X117788331Y-117535609D01*
X117785776Y-117530428D01*
X117664320Y-117367779D01*
X117515258Y-117229987D01*
X117510375Y-117226906D01*
X117510371Y-117226903D01*
X117348464Y-117124748D01*
X117343581Y-117121667D01*
X117338212Y-117119525D01*
X117250009Y-117084335D01*
X117194150Y-117040514D01*
X117170700Y-116967305D01*
X117170700Y-116714516D01*
X117190702Y-116646395D01*
X117244358Y-116599902D01*
X117256184Y-116595208D01*
X117291165Y-116583334D01*
X117468276Y-116484147D01*
X117507969Y-116451135D01*
X117619913Y-116358031D01*
X117624345Y-116354345D01*
X117754147Y-116198276D01*
X117813845Y-116091677D01*
X117850510Y-116026208D01*
X117850511Y-116026206D01*
X117853334Y-116021165D01*
X117855190Y-116015698D01*
X117855192Y-116015693D01*
X117916728Y-115834414D01*
X117916729Y-115834409D01*
X117918584Y-115828945D01*
X117919412Y-115823236D01*
X117919413Y-115823231D01*
X117943314Y-115658386D01*
X117947712Y-115628053D01*
X117949232Y-115570000D01*
X117930658Y-115367859D01*
X117929090Y-115362299D01*
X117877125Y-115178046D01*
X117877124Y-115178044D01*
X117875557Y-115172487D01*
X117864978Y-115151033D01*
X117788331Y-114995609D01*
X117785776Y-114990428D01*
X117664320Y-114827779D01*
X117515258Y-114689987D01*
X117510375Y-114686906D01*
X117510371Y-114686903D01*
X117348464Y-114584748D01*
X117343581Y-114581667D01*
X117155039Y-114506446D01*
X117149379Y-114505320D01*
X117149375Y-114505319D01*
X116961613Y-114467971D01*
X116961610Y-114467971D01*
X116955946Y-114466844D01*
X116950171Y-114466768D01*
X116950167Y-114466768D01*
X116848793Y-114465441D01*
X116752971Y-114464187D01*
X116747274Y-114465166D01*
X116747273Y-114465166D01*
X116659397Y-114480266D01*
X116552910Y-114498564D01*
X116362463Y-114568824D01*
X116188010Y-114672612D01*
X116183670Y-114676418D01*
X116183666Y-114676421D01*
X116039733Y-114802648D01*
X116035392Y-114806455D01*
X115909720Y-114965869D01*
X115907031Y-114970980D01*
X115907029Y-114970983D01*
X115895456Y-114992980D01*
X115815203Y-115145515D01*
X115755007Y-115339378D01*
X115731148Y-115540964D01*
X115744424Y-115743522D01*
X115745845Y-115749118D01*
X115745846Y-115749123D01*
X115766119Y-115828945D01*
X115794392Y-115940269D01*
X115796809Y-115945512D01*
X115834010Y-116026208D01*
X115879377Y-116124616D01*
X115996533Y-116290389D01*
X116000675Y-116294424D01*
X116013399Y-116306819D01*
X116141938Y-116432035D01*
X116310720Y-116544812D01*
X116316023Y-116547090D01*
X116316026Y-116547092D01*
X116433038Y-116597364D01*
X116487731Y-116642632D01*
X116509300Y-116713132D01*
X116509300Y-116966836D01*
X116489298Y-117034957D01*
X116435642Y-117081450D01*
X116426914Y-117085047D01*
X116362463Y-117108824D01*
X116188010Y-117212612D01*
X116183670Y-117216418D01*
X116183666Y-117216421D01*
X116142888Y-117252183D01*
X116035392Y-117346455D01*
X115909720Y-117505869D01*
X115907031Y-117510980D01*
X115907029Y-117510983D01*
X115861753Y-117597039D01*
X115815203Y-117685515D01*
X115755007Y-117879378D01*
X115731148Y-118080964D01*
X115744424Y-118283522D01*
X115745845Y-118289118D01*
X115745846Y-118289123D01*
X115766119Y-118368945D01*
X115794392Y-118480269D01*
X115796809Y-118485512D01*
X115834010Y-118566208D01*
X115879377Y-118664616D01*
X115882710Y-118669332D01*
X115958200Y-118776148D01*
X115996533Y-118830389D01*
X116095965Y-118927250D01*
X116130801Y-118989109D01*
X116126664Y-119059985D01*
X116084866Y-119117373D01*
X116018676Y-119143052D01*
X116008093Y-119143502D01*
X115132941Y-119143854D01*
X115064812Y-119123879D01*
X115018297Y-119070242D01*
X115008165Y-118999972D01*
X115037632Y-118935380D01*
X115052321Y-118920980D01*
X115079908Y-118898036D01*
X115079915Y-118898029D01*
X115084345Y-118894345D01*
X115168971Y-118792594D01*
X115210453Y-118742718D01*
X115210455Y-118742715D01*
X115214147Y-118738276D01*
X115313334Y-118561165D01*
X115315190Y-118555698D01*
X115315192Y-118555693D01*
X115376728Y-118374414D01*
X115376729Y-118374409D01*
X115378584Y-118368945D01*
X115379412Y-118363236D01*
X115379413Y-118363231D01*
X115407179Y-118171727D01*
X115407712Y-118168053D01*
X115409232Y-118110000D01*
X115390658Y-117907859D01*
X115389090Y-117902299D01*
X115337125Y-117718046D01*
X115337124Y-117718044D01*
X115335557Y-117712487D01*
X115324978Y-117691033D01*
X115248331Y-117535609D01*
X115245776Y-117530428D01*
X115124320Y-117367779D01*
X114975258Y-117229987D01*
X114970375Y-117226906D01*
X114970371Y-117226903D01*
X114808464Y-117124748D01*
X114803581Y-117121667D01*
X114798221Y-117119528D01*
X114798214Y-117119525D01*
X114760808Y-117104601D01*
X114704949Y-117060780D01*
X114681500Y-116987572D01*
X114681500Y-116695597D01*
X114701502Y-116627476D01*
X114751740Y-116584361D01*
X114751165Y-116583334D01*
X114765086Y-116575538D01*
X114928276Y-116484147D01*
X114967969Y-116451135D01*
X115079913Y-116358031D01*
X115084345Y-116354345D01*
X115214147Y-116198276D01*
X115273845Y-116091677D01*
X115310510Y-116026208D01*
X115310511Y-116026206D01*
X115313334Y-116021165D01*
X115315190Y-116015698D01*
X115315192Y-116015693D01*
X115376728Y-115834414D01*
X115376729Y-115834409D01*
X115378584Y-115828945D01*
X115379412Y-115823236D01*
X115379413Y-115823231D01*
X115403314Y-115658386D01*
X115407712Y-115628053D01*
X115409232Y-115570000D01*
X115390658Y-115367859D01*
X115389090Y-115362299D01*
X115337125Y-115178046D01*
X115337124Y-115178044D01*
X115335557Y-115172487D01*
X115324978Y-115151033D01*
X115248331Y-114995609D01*
X115245776Y-114990428D01*
X115124320Y-114827779D01*
X114975258Y-114689987D01*
X114970375Y-114686906D01*
X114970371Y-114686903D01*
X114808464Y-114584748D01*
X114803581Y-114581667D01*
X114615039Y-114506446D01*
X114609379Y-114505320D01*
X114609375Y-114505319D01*
X114421613Y-114467971D01*
X114421610Y-114467971D01*
X114415946Y-114466844D01*
X114410171Y-114466768D01*
X114410167Y-114466768D01*
X114308793Y-114465441D01*
X114212971Y-114464187D01*
X114207274Y-114465166D01*
X114207273Y-114465166D01*
X114119397Y-114480266D01*
X114012910Y-114498564D01*
X113822463Y-114568824D01*
X113648010Y-114672612D01*
X113643670Y-114676418D01*
X113643666Y-114676421D01*
X113499733Y-114802648D01*
X113495392Y-114806455D01*
X113369720Y-114965869D01*
X113367031Y-114970980D01*
X113367029Y-114970983D01*
X113355456Y-114992980D01*
X113275203Y-115145515D01*
X113215007Y-115339378D01*
X113191148Y-115540964D01*
X113204424Y-115743522D01*
X113205845Y-115749118D01*
X113205846Y-115749123D01*
X113226119Y-115828945D01*
X113254392Y-115940269D01*
X113256809Y-115945512D01*
X113294010Y-116026208D01*
X113339377Y-116124616D01*
X113456533Y-116290389D01*
X113460675Y-116294424D01*
X113473399Y-116306819D01*
X113601938Y-116432035D01*
X113770720Y-116544812D01*
X113776027Y-116547092D01*
X113776029Y-116547093D01*
X113842237Y-116575538D01*
X113896930Y-116620806D01*
X113918500Y-116691306D01*
X113918500Y-116985577D01*
X113898498Y-117053698D01*
X113844842Y-117100191D01*
X113836112Y-117103789D01*
X113822463Y-117108824D01*
X113648010Y-117212612D01*
X113643670Y-117216418D01*
X113643666Y-117216421D01*
X113602888Y-117252183D01*
X113495392Y-117346455D01*
X113369720Y-117505869D01*
X113367031Y-117510980D01*
X113367029Y-117510983D01*
X113321753Y-117597039D01*
X113275203Y-117685515D01*
X113215007Y-117879378D01*
X113191148Y-118080964D01*
X113204424Y-118283522D01*
X113205845Y-118289118D01*
X113205846Y-118289123D01*
X113226119Y-118368945D01*
X113254392Y-118480269D01*
X113256809Y-118485512D01*
X113294010Y-118566208D01*
X113339377Y-118664616D01*
X113342710Y-118669332D01*
X113418200Y-118776148D01*
X113456533Y-118830389D01*
X113460675Y-118834424D01*
X113557011Y-118928270D01*
X113591849Y-118990131D01*
X113587712Y-119061007D01*
X113545913Y-119118395D01*
X113479723Y-119144075D01*
X113469146Y-119144524D01*
X112986325Y-119144718D01*
X112918197Y-119124743D01*
X112871682Y-119071106D01*
X112863069Y-118997336D01*
X112862686Y-118997298D01*
X112862859Y-118995538D01*
X112862696Y-118994138D01*
X112863293Y-118991138D01*
X112863294Y-118991132D01*
X112864500Y-118985067D01*
X112864499Y-117234934D01*
X112849734Y-117160699D01*
X112823654Y-117121667D01*
X112800377Y-117086832D01*
X112793484Y-117076516D01*
X112709301Y-117020266D01*
X112635067Y-117005500D01*
X112216700Y-117005500D01*
X112148579Y-116985498D01*
X112102086Y-116931842D01*
X112090700Y-116879500D01*
X112090700Y-116800499D01*
X112110702Y-116732378D01*
X112164358Y-116685885D01*
X112216700Y-116674499D01*
X112635066Y-116674499D01*
X112670818Y-116667388D01*
X112697126Y-116662156D01*
X112697128Y-116662155D01*
X112709301Y-116659734D01*
X112719621Y-116652839D01*
X112719622Y-116652838D01*
X112783168Y-116610377D01*
X112793484Y-116603484D01*
X112849734Y-116519301D01*
X112864500Y-116445067D01*
X112864499Y-114694934D01*
X112849734Y-114620699D01*
X112823654Y-114581667D01*
X112800377Y-114546832D01*
X112793484Y-114536516D01*
X112709301Y-114480266D01*
X112635067Y-114465500D01*
X111760142Y-114465500D01*
X110884934Y-114465501D01*
X110849182Y-114472612D01*
X110822874Y-114477844D01*
X110822872Y-114477845D01*
X110810699Y-114480266D01*
X110800379Y-114487161D01*
X110800378Y-114487162D01*
X110740951Y-114526871D01*
X110726516Y-114536516D01*
X110670266Y-114620699D01*
X110655500Y-114694933D01*
X110655501Y-116445066D01*
X110670266Y-116519301D01*
X110677161Y-116529620D01*
X110677162Y-116529622D01*
X110717516Y-116590015D01*
X110726516Y-116603484D01*
X110810699Y-116659734D01*
X110884933Y-116674500D01*
X111303300Y-116674500D01*
X111371421Y-116694502D01*
X111417914Y-116748158D01*
X111429300Y-116800500D01*
X111429300Y-116879501D01*
X111409298Y-116947622D01*
X111355642Y-116994115D01*
X111303300Y-117005501D01*
X110884934Y-117005501D01*
X110849182Y-117012612D01*
X110822874Y-117017844D01*
X110822872Y-117017845D01*
X110810699Y-117020266D01*
X110800379Y-117027161D01*
X110800378Y-117027162D01*
X110760665Y-117053698D01*
X110726516Y-117076516D01*
X110670266Y-117160699D01*
X110655500Y-117234933D01*
X110655501Y-118985066D01*
X110657502Y-118995126D01*
X110657311Y-118997256D01*
X110657315Y-118997294D01*
X110657308Y-118997295D01*
X110651174Y-119065838D01*
X110607619Y-119121905D01*
X110533975Y-119145705D01*
X109837402Y-119145985D01*
X109812771Y-119143564D01*
X109812173Y-119143445D01*
X109812171Y-119143445D01*
X109800000Y-119141024D01*
X109788082Y-119143395D01*
X109772406Y-119142367D01*
X109717837Y-119135183D01*
X109686066Y-119126670D01*
X109643891Y-119109201D01*
X109624826Y-119101304D01*
X109596341Y-119084858D01*
X109543753Y-119044506D01*
X109520494Y-119021247D01*
X109480142Y-118968659D01*
X109463696Y-118940174D01*
X109449394Y-118905647D01*
X109438330Y-118878934D01*
X109429817Y-118847163D01*
X109422633Y-118792594D01*
X109421605Y-118776918D01*
X109423976Y-118765000D01*
X109421421Y-118752153D01*
X109419000Y-118727575D01*
X109419000Y-107952677D01*
X111521524Y-107952677D01*
X111549351Y-108193176D01*
X111550730Y-108198050D01*
X111550731Y-108198054D01*
X111585579Y-108321205D01*
X111615271Y-108426133D01*
X111617406Y-108430712D01*
X111617407Y-108430714D01*
X111654068Y-108509332D01*
X111717589Y-108645553D01*
X111720430Y-108649734D01*
X111720431Y-108649735D01*
X111755172Y-108700854D01*
X111754556Y-108701272D01*
X111755720Y-108702420D01*
X111755905Y-108702281D01*
X111755935Y-108702321D01*
X111756597Y-108703203D01*
X111756797Y-108703482D01*
X111756834Y-108703519D01*
X111758393Y-108705595D01*
X111759809Y-108707679D01*
X111759898Y-108707820D01*
X111760035Y-108708011D01*
X111853671Y-108845793D01*
X111857148Y-108849470D01*
X111857153Y-108849476D01*
X111902137Y-108897044D01*
X111901584Y-108897567D01*
X111903601Y-108898994D01*
X111904083Y-108899636D01*
X111907809Y-108903197D01*
X111908140Y-108903570D01*
X111911516Y-108906963D01*
X111953972Y-108951858D01*
X112020018Y-109021699D01*
X112024035Y-109024770D01*
X112024038Y-109024773D01*
X112078578Y-109066472D01*
X112079084Y-109066870D01*
X112082468Y-109070104D01*
X112086740Y-109073018D01*
X112087645Y-109073636D01*
X112093166Y-109077626D01*
X112208327Y-109165674D01*
X112208338Y-109165681D01*
X112212348Y-109168747D01*
X112276786Y-109203298D01*
X112279421Y-109204754D01*
X112282029Y-109206236D01*
X112286300Y-109209149D01*
X112290986Y-109211324D01*
X112290989Y-109211326D01*
X112293427Y-109212458D01*
X112299912Y-109215699D01*
X112425715Y-109283153D01*
X112430500Y-109284801D01*
X112430501Y-109284801D01*
X112497084Y-109307727D01*
X112500543Y-109309121D01*
X112500561Y-109309071D01*
X112505403Y-109310853D01*
X112510104Y-109313035D01*
X112518723Y-109315425D01*
X112526036Y-109317697D01*
X112654629Y-109361975D01*
X112659618Y-109362837D01*
X112659619Y-109362837D01*
X112733145Y-109375537D01*
X112738988Y-109376848D01*
X112742888Y-109377592D01*
X112747871Y-109378974D01*
X112757403Y-109379993D01*
X112765428Y-109381113D01*
X112893200Y-109403183D01*
X112897161Y-109403363D01*
X112897162Y-109403363D01*
X112920784Y-109404436D01*
X112920803Y-109404436D01*
X112922203Y-109404500D01*
X113090841Y-109404500D01*
X113093349Y-109404298D01*
X113093354Y-109404298D01*
X113266283Y-109390385D01*
X113266288Y-109390384D01*
X113271324Y-109389979D01*
X113276232Y-109388774D01*
X113276235Y-109388773D01*
X113501525Y-109333436D01*
X113506439Y-109332229D01*
X113511091Y-109330254D01*
X113511095Y-109330253D01*
X113724642Y-109239607D01*
X113724643Y-109239607D01*
X113729297Y-109237631D01*
X113934163Y-109108620D01*
X114115768Y-108948514D01*
X114269439Y-108761432D01*
X114391222Y-108552188D01*
X114411497Y-108499371D01*
X114476169Y-108330894D01*
X114476170Y-108330891D01*
X114477984Y-108326165D01*
X114527493Y-108089177D01*
X114531346Y-108004344D01*
X114532728Y-107973888D01*
X114538476Y-107847323D01*
X114526968Y-107747859D01*
X114511231Y-107611857D01*
X114510649Y-107606824D01*
X114496847Y-107558046D01*
X114446107Y-107378736D01*
X114446106Y-107378734D01*
X114444729Y-107373867D01*
X114342411Y-107154447D01*
X114304828Y-107099146D01*
X114305444Y-107098728D01*
X114304280Y-107097580D01*
X114304095Y-107097719D01*
X114303991Y-107097580D01*
X114303403Y-107096797D01*
X114303203Y-107096518D01*
X114303166Y-107096481D01*
X114301607Y-107094405D01*
X114300191Y-107092321D01*
X114300102Y-107092180D01*
X114299965Y-107091989D01*
X114206329Y-106954207D01*
X114202852Y-106950530D01*
X114202847Y-106950524D01*
X114157863Y-106902956D01*
X114158416Y-106902433D01*
X114156399Y-106901006D01*
X114155917Y-106900364D01*
X114152191Y-106896803D01*
X114151860Y-106896430D01*
X114148484Y-106893037D01*
X114043458Y-106781977D01*
X114039982Y-106778301D01*
X114035965Y-106775230D01*
X114035962Y-106775227D01*
X113981422Y-106733528D01*
X113980916Y-106733130D01*
X113977532Y-106729896D01*
X113973260Y-106726982D01*
X113972355Y-106726364D01*
X113966834Y-106722374D01*
X113851673Y-106634326D01*
X113851662Y-106634319D01*
X113847652Y-106631253D01*
X113783214Y-106596702D01*
X113780579Y-106595246D01*
X113777971Y-106593764D01*
X113773700Y-106590851D01*
X113769014Y-106588676D01*
X113769011Y-106588674D01*
X113766573Y-106587542D01*
X113760081Y-106584298D01*
X113724216Y-106565067D01*
X113634285Y-106516847D01*
X113562913Y-106492272D01*
X113559457Y-106490879D01*
X113559439Y-106490929D01*
X113554597Y-106489147D01*
X113549896Y-106486965D01*
X113541277Y-106484575D01*
X113533964Y-106482303D01*
X113405371Y-106438025D01*
X113400382Y-106437163D01*
X113400381Y-106437163D01*
X113326855Y-106424463D01*
X113321012Y-106423152D01*
X113317112Y-106422408D01*
X113312129Y-106421026D01*
X113302597Y-106420007D01*
X113294572Y-106418887D01*
X113166800Y-106396817D01*
X113162839Y-106396637D01*
X113162838Y-106396637D01*
X113139216Y-106395564D01*
X113139197Y-106395564D01*
X113137797Y-106395500D01*
X112969159Y-106395500D01*
X112966651Y-106395702D01*
X112966646Y-106395702D01*
X112793717Y-106409615D01*
X112793712Y-106409616D01*
X112788676Y-106410021D01*
X112783768Y-106411226D01*
X112783765Y-106411227D01*
X112667951Y-106439674D01*
X112553561Y-106467771D01*
X112548909Y-106469746D01*
X112548905Y-106469747D01*
X112432308Y-106519240D01*
X112330703Y-106562369D01*
X112125837Y-106691380D01*
X111944232Y-106851486D01*
X111790561Y-107038568D01*
X111774070Y-107066903D01*
X111694362Y-107203855D01*
X111668778Y-107247812D01*
X111666965Y-107252535D01*
X111622149Y-107369286D01*
X111582016Y-107473835D01*
X111532507Y-107710823D01*
X111532278Y-107715873D01*
X111532277Y-107715878D01*
X111530825Y-107747859D01*
X111521524Y-107952677D01*
X109419000Y-107952677D01*
X109419000Y-97172425D01*
X109421421Y-97147844D01*
X109421555Y-97147170D01*
X109423976Y-97135000D01*
X109421605Y-97123082D01*
X109422633Y-97107406D01*
X109429817Y-97052837D01*
X109438330Y-97021064D01*
X109463696Y-96959826D01*
X109480142Y-96931341D01*
X109520494Y-96878753D01*
X109543753Y-96855494D01*
X109596341Y-96815142D01*
X109624826Y-96798696D01*
X109661085Y-96783677D01*
X109686066Y-96773330D01*
X109717837Y-96764817D01*
X109772406Y-96757633D01*
X109788082Y-96756605D01*
X109800000Y-96758976D01*
X109812171Y-96756555D01*
X109812173Y-96756555D01*
X109812771Y-96756436D01*
X109837402Y-96754015D01*
X110533973Y-96754295D01*
G37*
G04 #@! TD.AperFunction*
M02*
