M48
; DRILL file {KiCad (6.0.0-0)} date Tuesday, May 16, 2023 at 04:06:37 PM
; FORMAT={-:-/ absolute / inch / decimal}
; #@! TF.CreationDate,2023-05-16T16:06:37-07:00
; #@! TF.GenerationSoftware,Kicad,Pcbnew,(6.0.0-0)
; #@! TF.FileFunction,Plated,1,2,PTH
FMAT,2
INCH
; #@! TA.AperFunction,Plated,PTH,ViaDrill
T1C0.0130
; #@! TA.AperFunction,Plated,PTH,ComponentDrill
T2C0.0394
%
G90
G05
T1
X5.2214Y-4.44
X5.25Y-4.19
X5.31Y-4.05
X5.4159Y-4.3759
X5.43Y-4.1
X5.63Y-4.35
X5.89Y-4.16
X6.01Y-4.07
X6.15Y-4.0157
T2
X4.4Y-3.85
X4.4Y-3.95
X4.4Y-4.55
X4.4Y-4.65
X4.5Y-3.85
X4.5Y-3.95
X4.5Y-4.55
X4.5Y-4.65
X4.6Y-3.85
X4.6Y-3.95
X4.6Y-4.55
X4.6Y-4.65
X4.7Y-3.85
X4.7Y-3.95
X4.7Y-4.55
X4.7Y-4.65
X4.8Y-3.85
X4.8Y-3.95
X4.8Y-4.55
X4.8Y-4.65
X4.9Y-3.85
X4.9Y-3.95
X4.9Y-4.55
X4.9Y-4.65
X5.0Y-3.85
X5.0Y-3.95
X5.0Y-4.55
X5.0Y-4.65
X5.1Y-3.85
X5.1Y-3.95
X5.1Y-4.55
X5.1Y-4.65
X5.2Y-3.85
X5.2Y-3.95
X5.2Y-4.55
X5.2Y-4.65
X5.3Y-3.85
X5.3Y-3.95
X5.3Y-4.55
X5.3Y-4.65
X5.4Y-3.85
X5.4Y-3.95
X5.4Y-4.55
X5.4Y-4.65
X5.5Y-3.85
X5.5Y-3.95
X5.5Y-4.55
X5.5Y-4.65
X5.6Y-3.85
X5.6Y-3.95
X5.6Y-4.55
X5.6Y-4.65
X5.7Y-3.85
X5.7Y-3.95
X5.7Y-4.05
X5.7Y-4.15
X5.7Y-4.25
X5.7Y-4.35
X5.7Y-4.45
X5.7Y-4.55
X5.7Y-4.65
X5.8Y-3.85
X5.8Y-3.95
X5.8Y-4.55
X5.8Y-4.65
X5.9Y-3.85
X5.9Y-3.95
X5.9Y-4.55
X5.9Y-4.65
X6.0Y-4.55
X6.0Y-4.65
T0
M30
